<ttFont>
    <TTGlyph name=".notdef" xMin="0" yMin="-540" xMax="1365" yMax="2020">
      <contour>
        <pt x="0" y="2020" on="1"/>
        <pt x="1365" y="2020" on="1"/>
        <pt x="1365" y="-540" on="1"/>
        <pt x="0" y="-540" on="1"/>
      </contour>
      <contour>
        <pt x="286" y="107" on="1"/>
        <pt x="680" y="508" on="1"/>
        <pt x="1075" y="107" on="1"/>
        <pt x="1177" y="209" on="1"/>
        <pt x="775" y="604" on="1"/>
        <pt x="1177" y="1000" on="1"/>
        <pt x="1075" y="1102" on="1"/>
        <pt x="680" y="699" on="1"/>
        <pt x="286" y="1102" on="1"/>
        <pt x="183" y="1000" on="1"/>
        <pt x="584" y="604" on="1"/>
        <pt x="183" y="209" on="1"/>
      </contour>
    </TTGlyph>
    <TTGlyph name="A" xMin="41" yMin="0" xMax="1147" yMax="1358">
      <contour>
        <pt x="440" y="1358" on="1"/>
        <pt x="748" y="1358" on="1"/>
        <pt x="1147" y="0" on="1"/>
        <pt x="961" y="0" on="1"/>
        <pt x="836" y="436" on="1"/>
        <pt x="346" y="436" on="1"/>
        <pt x="221" y="0" on="1"/>
        <pt x="41" y="0" on="1"/>
      </contour>
      <contour>
        <pt x="791" y="588" on="1"/>
        <pt x="602" y="1242" on="1"/>
        <pt x="578" y="1242" on="1"/>
        <pt x="389" y="588" on="1"/>
      </contour>
    </TTGlyph>
    <TTGlyph name="AE" xMin="41" yMin="0" xMax="1394" yMax="1358">
      <contour>
        <pt x="1394" y="105" on="1"/>
        <pt x="1394" y="44" on="0"/>
        <pt x="1382" y="0" on="1"/>
        <pt x="708" y="0" on="1"/>
        <pt x="708" y="467" on="1"/>
        <pt x="355" y="467" on="1"/>
        <pt x="221" y="0" on="1"/>
        <pt x="41" y="0" on="1"/>
        <pt x="440" y="1358" on="1"/>
        <pt x="1384" y="1358" on="1"/>
        <pt x="1384" y="1354" on="0"/>
        <pt x="1385" y="1348" on="1"/>
        <pt x="1386" y="1320" on="1"/>
        <pt x="1386" y="1254" on="0"/>
        <pt x="1363" y="1206" on="1"/>
        <pt x="1206" y="1212" on="1"/>
        <pt x="999" y="1218" on="0"/>
        <pt x="891" y="1218" on="1"/>
        <pt x="891" y="704" on="1"/>
        <pt x="914" y="704" on="0"/>
        <pt x="976" y="705" on="0"/>
        <pt x="1012" y="706" on="1"/>
        <pt x="1084" y="706" on="1"/>
        <pt x="1168" y="708" on="0"/>
        <pt x="1331" y="713" on="1"/>
        <pt x="1331" y="707" on="0"/>
        <pt x="1332" y="700" on="1"/>
        <pt x="1333" y="666" on="1"/>
        <pt x="1333" y="604" on="0"/>
        <pt x="1321" y="564" on="1"/>
        <pt x="1231" y="565" on="0"/>
        <pt x="1114" y="567" on="0"/>
        <pt x="1078" y="568" on="1"/>
        <pt x="1006" y="568" on="1"/>
        <pt x="972" y="569" on="0"/>
        <pt x="912" y="570" on="0"/>
        <pt x="891" y="570" on="1"/>
        <pt x="891" y="138" on="1"/>
        <pt x="972" y="138" on="0"/>
        <pt x="1036" y="140" on="1"/>
        <pt x="1142" y="142" on="1"/>
        <pt x="1219" y="144" on="0"/>
        <pt x="1392" y="152" on="1"/>
        <pt x="1392" y="146" on="0"/>
        <pt x="1393" y="139" on="1"/>
      </contour>
      <contour>
        <pt x="708" y="618" on="1"/>
        <pt x="708" y="1216" on="1"/>
        <pt x="572" y="1216" on="1"/>
        <pt x="400" y="618" on="1"/>
      </contour>
    </TTGlyph>
    <TTGlyph name="AEacute" xMin="41" yMin="0" xMax="1394" yMax="1941">
      <component glyphName="AE" x="0" y="0" flags="0x1204"/>
      <component glyphName="acute.cap" x="607" y="0" flags="0x1004"/>
    </TTGlyph>
    <TTGlyph name="Aacute" xMin="41" yMin="0" xMax="1147" yMax="1941">
      <component glyphName="A" x="0" y="0" flags="0x1204"/>
      <component glyphName="acute.cap" x="351" y="0" flags="0x1004"/>
    </TTGlyph>
    <TTGlyph name="Abreve" xMin="41" yMin="0" xMax="1147" yMax="1881">
      <component glyphName="A" x="0" y="0" flags="0x1204"/>
      <component glyphName="breve.cap" x="254" y="0" flags="0x1004"/>
    </TTGlyph>
    <TTGlyph name="Acircumflex" xMin="41" yMin="0" xMax="1147" yMax="1870">
      <component glyphName="A" x="0" y="0" flags="0x1204"/>
      <component glyphName="circumflex.cap" x="254" y="0" flags="0x1004"/>
    </TTGlyph>
    <TTGlyph name="Adieresis" xMin="41" yMin="0" xMax="1147" yMax="1760">
      <component glyphName="A" x="0" y="0" flags="0x1204"/>
      <component glyphName="dieresis.cap" x="350" y="0" flags="0x1004"/>
    </TTGlyph>
    <TTGlyph name="Agrave" xMin="41" yMin="0" xMax="1147" yMax="1941">
      <component glyphName="A" x="0" y="0" flags="0x1204"/>
      <component glyphName="grave.cap" x="351" y="0" flags="0x1004"/>
    </TTGlyph>
    <TTGlyph name="Amacron" xMin="41" yMin="0" xMax="1147" yMax="1852">
      <component glyphName="A" x="0" y="0" flags="0x1204"/>
      <component glyphName="macron.cap" x="83" y="0" flags="0x1004"/>
    </TTGlyph>
    <TTGlyph name="Aogonek" xMin="41" yMin="-371" xMax="1161" yMax="1358">
      <contour>
        <pt x="1149" y="-182" on="1"/>
        <pt x="1161" y="-221" on="0"/>
        <pt x="1161" y="-271" on="1"/>
        <pt x="1161" y="-322" on="0"/>
        <pt x="1149" y="-366" on="1"/>
        <pt x="1136" y="-371" on="0"/>
        <pt x="1022" y="-371" on="0"/>
        <pt x="923" y="-336" on="0"/>
        <pt x="890" y="-306" on="1"/>
        <pt x="821" y="-245" on="0"/>
        <pt x="821" y="-149" on="1"/>
        <pt x="821" y="-82" on="0"/>
        <pt x="870" y="-22" on="1"/>
        <pt x="908" y="22" on="0"/>
        <pt x="950" y="39" on="1"/>
        <pt x="1147" y="0" on="1"/>
        <pt x="959" y="0" on="0"/>
        <pt x="959" y="-109" on="1"/>
        <pt x="959" y="-146" on="0"/>
        <pt x="1031" y="-189" on="0"/>
        <pt x="1119" y="-189" on="0"/>
      </contour>
      <contour>
        <pt x="440" y="1358" on="1"/>
        <pt x="748" y="1358" on="1"/>
        <pt x="1147" y="0" on="1"/>
        <pt x="961" y="0" on="1"/>
        <pt x="836" y="436" on="1"/>
        <pt x="346" y="436" on="1"/>
        <pt x="221" y="0" on="1"/>
        <pt x="41" y="0" on="1"/>
      </contour>
      <contour>
        <pt x="791" y="588" on="1"/>
        <pt x="602" y="1242" on="1"/>
        <pt x="578" y="1242" on="1"/>
        <pt x="389" y="588" on="1"/>
      </contour>
    </TTGlyph>
    <TTGlyph name="Aring" xMin="41" yMin="0" xMax="1147" yMax="1897">
      <component glyphName="A" x="0" y="0" flags="0x1204"/>
      <component glyphName="ring.cap" x="350" y="0" flags="0x1004"/>
    </TTGlyph>
    <TTGlyph name="Atilde" xMin="41" yMin="0" xMax="1147" yMax="1846">
      <component glyphName="A" x="0" y="0" flags="0x1204"/>
      <component glyphName="tilde.cap" x="251" y="0" flags="0x1004"/>
    </TTGlyph>
    <TTGlyph name="B" xMin="182" yMin="0" xMax="1086" yMax="1358">
      <contour>
        <pt x="182" y="1358" on="1"/>
        <pt x="683" y="1358" on="1"/>
        <pt x="840" y="1358" on="0"/>
        <pt x="935" y="1273" on="1"/>
        <pt x="1036" y="1183" on="0"/>
        <pt x="1036" y="1020" on="1"/>
        <pt x="1036" y="865" on="0"/>
        <pt x="922" y="779" on="1"/>
        <pt x="885" y="751" on="0"/>
        <pt x="839" y="736" on="1"/>
        <pt x="1009" y="677" on="0"/>
        <pt x="1065" y="526" on="1"/>
        <pt x="1086" y="470" on="0"/>
        <pt x="1086" y="302" on="0"/>
        <pt x="1029" y="155" on="0"/>
        <pt x="974" y="104" on="1"/>
        <pt x="860" y="0" on="0"/>
        <pt x="646" y="0" on="1"/>
        <pt x="182" y="0" on="1"/>
      </contour>
      <contour>
        <pt x="669" y="764" on="1"/>
        <pt x="748" y="787" on="0"/>
        <pt x="843" y="911" on="0"/>
        <pt x="843" y="1010" on="1"/>
        <pt x="843" y="1207" on="0"/>
        <pt x="638" y="1207" on="1"/>
        <pt x="365" y="1207" on="1"/>
        <pt x="365" y="764" on="1"/>
      </contour>
      <contour>
        <pt x="893" y="391" on="1"/>
        <pt x="893" y="627" on="0"/>
        <pt x="638" y="627" on="1"/>
        <pt x="365" y="627" on="1"/>
        <pt x="365" y="152" on="1"/>
        <pt x="622" y="152" on="1"/>
        <pt x="820" y="152" on="0"/>
        <pt x="874" y="278" on="1"/>
        <pt x="893" y="323" on="0"/>
      </contour>
    </TTGlyph>
    <TTGlyph name="C" xMin="122" yMin="-27" xMax="1047" yMax="1385">
      <contour>
        <pt x="474" y="211" on="0"/>
        <pt x="626" y="138" on="0"/>
        <pt x="871" y="138" on="0"/>
        <pt x="1016" y="184" on="1"/>
        <pt x="1047" y="118" on="0"/>
        <pt x="1042" y="23" on="1"/>
        <pt x="867" y="-27" on="0"/>
        <pt x="722" y="-27" on="1"/>
        <pt x="424" y="-27" on="0"/>
        <pt x="122" y="323" on="0"/>
        <pt x="122" y="1011" on="0"/>
        <pt x="277" y="1198" on="1"/>
        <pt x="433" y="1385" on="0"/>
        <pt x="722" y="1385" on="1"/>
        <pt x="869" y="1385" on="0"/>
        <pt x="1037" y="1335" on="1"/>
        <pt x="1030" y="1259" on="0"/>
        <pt x="994" y="1184" on="1"/>
        <pt x="859" y="1229" on="0"/>
        <pt x="626" y="1229" on="0"/>
        <pt x="474" y="1146" on="0"/>
        <pt x="422" y="1072" on="1"/>
        <pt x="314" y="919" on="0"/>
        <pt x="314" y="667" on="1"/>
        <pt x="314" y="420" on="0"/>
        <pt x="422" y="280" on="1"/>
      </contour>
    </TTGlyph>
    <TTGlyph name="Cacute" xMin="122" yMin="-27" xMax="1047" yMax="1941">
      <component glyphName="C" x="0" y="0" flags="0x1204"/>
      <component glyphName="acute.cap" x="476" y="0" flags="0x1004"/>
    </TTGlyph>
    <TTGlyph name="Ccaron" xMin="122" yMin="-27" xMax="1057" yMax="1869">
      <component glyphName="C" x="0" y="0" flags="0x1204"/>
      <component glyphName="caron.cap" x="379" y="0" flags="0x1004"/>
    </TTGlyph>
    <TTGlyph name="Ccedilla" xMin="122" yMin="-371" xMax="1047" yMax="1385">
      <component glyphName="C" x="0" y="0" flags="0x1204"/>
      <component glyphName="cedilla" x="470" y="0" flags="0x1004"/>
    </TTGlyph>
    <TTGlyph name="Ccircumflex" xMin="122" yMin="-27" xMax="1064" yMax="1870">
      <component glyphName="C" x="0" y="0" flags="0x1204"/>
      <component glyphName="circumflex.cap" x="379" y="0" flags="0x1004"/>
    </TTGlyph>
    <TTGlyph name="Cdotaccent" xMin="122" yMin="-27" xMax="1047" yMax="1762">
      <component glyphName="C" x="0" y="0" flags="0x1204"/>
      <component glyphName="dotaccent.cap" x="476" y="0" flags="0x1004"/>
    </TTGlyph>
    <TTGlyph name="D" xMin="182" yMin="0" xMax="1200" yMax="1368">
      <contour>
        <pt x="182" y="1358" on="1"/>
        <pt x="407" y="1368" on="0"/>
        <pt x="718" y="1368" on="0"/>
        <pt x="955" y="1283" on="0"/>
        <pt x="1036" y="1198" on="1"/>
        <pt x="1200" y="1023" on="0"/>
        <pt x="1200" y="685" on="1"/>
        <pt x="1200" y="348" on="0"/>
        <pt x="1026" y="172" on="1"/>
        <pt x="856" y="0" on="0"/>
        <pt x="551" y="0" on="1"/>
        <pt x="182" y="0" on="1"/>
      </contour>
      <contour>
        <pt x="568" y="1217" on="1"/>
        <pt x="457" y="1217" on="0"/>
        <pt x="365" y="1209" on="1"/>
        <pt x="365" y="152" on="1"/>
        <pt x="580" y="152" on="1"/>
        <pt x="775" y="152" on="0"/>
        <pt x="893" y="306" on="1"/>
        <pt x="1006" y="454" on="0"/>
        <pt x="1006" y="685" on="1"/>
        <pt x="1006" y="932" on="0"/>
        <pt x="893" y="1074" on="1"/>
        <pt x="779" y="1217" on="0"/>
      </contour>
    </TTGlyph>
    <TTGlyph name="Dcaron" xMin="182" yMin="0" xMax="1200" yMax="1869">
      <component glyphName="D" x="0" y="0" flags="0x1204"/>
      <component glyphName="caron.cap" x="351" y="0" flags="0x1004"/>
    </TTGlyph>
    <TTGlyph name="Dcroat" xMin="53" yMin="0" xMax="1200" yMax="1368">
      <contour>
        <pt x="182" y="1358" on="1"/>
        <pt x="407" y="1368" on="0"/>
        <pt x="718" y="1368" on="0"/>
        <pt x="955" y="1283" on="0"/>
        <pt x="1036" y="1198" on="1"/>
        <pt x="1200" y="1023" on="0"/>
        <pt x="1200" y="685" on="1"/>
        <pt x="1200" y="348" on="0"/>
        <pt x="1026" y="172" on="1"/>
        <pt x="856" y="0" on="0"/>
        <pt x="551" y="0" on="1"/>
        <pt x="182" y="0" on="1"/>
        <pt x="182" y="631" on="1"/>
        <pt x="165" y="631" on="1"/>
        <pt x="53" y="629" on="1"/>
        <pt x="53" y="762" on="1"/>
        <pt x="165" y="764" on="1"/>
        <pt x="182" y="764" on="1"/>
      </contour>
      <contour>
        <pt x="665" y="625" on="1"/>
        <pt x="581" y="625" on="0"/>
        <pt x="365" y="629" on="1"/>
        <pt x="365" y="152" on="1"/>
        <pt x="580" y="152" on="1"/>
        <pt x="775" y="152" on="0"/>
        <pt x="893" y="306" on="1"/>
        <pt x="1006" y="454" on="0"/>
        <pt x="1006" y="685" on="1"/>
        <pt x="1006" y="932" on="0"/>
        <pt x="893" y="1074" on="1"/>
        <pt x="779" y="1217" on="0"/>
        <pt x="580" y="1217" on="1"/>
        <pt x="457" y="1217" on="0"/>
        <pt x="365" y="1209" on="1"/>
        <pt x="365" y="766" on="1"/>
        <pt x="477" y="768" on="1"/>
        <pt x="532" y="769" on="0"/>
        <pt x="580" y="770" on="1"/>
        <pt x="676" y="772" on="1"/>
        <pt x="676" y="767" on="0"/>
        <pt x="677" y="760" on="1"/>
        <pt x="678" y="728" on="1"/>
        <pt x="678" y="670" on="0"/>
      </contour>
    </TTGlyph>
    <TTGlyph name="Delta" xMin="172" yMin="5" xMax="1359" yMax="1530">
      <contour>
        <pt x="172" y="137" on="1"/>
        <pt x="682" y="1530" on="1"/>
        <pt x="849" y="1530" on="1"/>
        <pt x="1359" y="137" on="1"/>
        <pt x="1359" y="5" on="1"/>
        <pt x="172" y="5" on="1"/>
      </contour>
      <contour>
        <pt x="1192" y="137" on="1"/>
        <pt x="794" y="1258" on="1"/>
        <pt x="765" y="1371" on="1"/>
        <pt x="735" y="1255" on="1"/>
        <pt x="339" y="137" on="1"/>
      </contour>
    </TTGlyph>
    <TTGlyph name="E" xMin="182" yMin="0" xMax="939" yMax="1358">
      <contour>
        <pt x="939" y="107" on="1"/>
        <pt x="939" y="45" on="0"/>
        <pt x="927" y="0" on="1"/>
        <pt x="182" y="0" on="1"/>
        <pt x="182" y="1358" on="1"/>
        <pt x="929" y="1358" on="1"/>
        <pt x="929" y="1353" on="0"/>
        <pt x="930" y="1348" on="1"/>
        <pt x="931" y="1321" on="1"/>
        <pt x="931" y="1251" on="0"/>
        <pt x="909" y="1207" on="1"/>
        <pt x="727" y="1213" on="1"/>
        <pt x="487" y="1219" on="0"/>
        <pt x="365" y="1219" on="1"/>
        <pt x="365" y="764" on="1"/>
        <pt x="392" y="764" on="0"/>
        <pt x="465" y="765" on="0"/>
        <pt x="506" y="766" on="1"/>
        <pt x="506" y="766" on="0"/>
        <pt x="590" y="766" on="1"/>
        <pt x="634" y="767" on="0"/>
        <pt x="771" y="770" on="0"/>
        <pt x="876" y="772" on="1"/>
        <pt x="876" y="767" on="0"/>
        <pt x="877" y="760" on="1"/>
        <pt x="877" y="760" on="0"/>
        <pt x="878" y="728" on="1"/>
        <pt x="878" y="670" on="0"/>
        <pt x="865" y="625" on="1"/>
        <pt x="761" y="626" on="0"/>
        <pt x="625" y="628" on="0"/>
        <pt x="582" y="628" on="1"/>
        <pt x="500" y="630" on="1"/>
        <pt x="461" y="630" on="0"/>
        <pt x="390" y="631" on="0"/>
        <pt x="365" y="631" on="1"/>
        <pt x="365" y="138" on="1"/>
        <pt x="457" y="138" on="0"/>
        <pt x="530" y="140" on="1"/>
        <pt x="652" y="142" on="1"/>
        <pt x="739" y="144" on="0"/>
        <pt x="937" y="152" on="1"/>
        <pt x="937" y="147" on="0"/>
        <pt x="938" y="140" on="1"/>
      </contour>
    </TTGlyph>
    <TTGlyph name="Eacute" xMin="182" yMin="0" xMax="939" yMax="1941">
      <component glyphName="E" x="0" y="0" flags="0x1204"/>
      <component glyphName="acute.cap" x="318" y="0" flags="0x1004"/>
    </TTGlyph>
    <TTGlyph name="Ebreve" xMin="182" yMin="0" xMax="939" yMax="1881">
      <component glyphName="E" x="0" y="0" flags="0x1204"/>
      <component glyphName="breve.cap" x="221" y="0" flags="0x1004"/>
    </TTGlyph>
    <TTGlyph name="Ecaron" xMin="182" yMin="0" xMax="939" yMax="1869">
      <component glyphName="E" x="0" y="0" flags="0x1204"/>
      <component glyphName="caron.cap" x="221" y="0" flags="0x1004"/>
    </TTGlyph>
    <TTGlyph name="Ecircumflex" xMin="182" yMin="0" xMax="939" yMax="1870">
      <component glyphName="E" x="0" y="0" flags="0x1204"/>
      <component glyphName="circumflex.cap" x="221" y="0" flags="0x1004"/>
    </TTGlyph>
    <TTGlyph name="Edieresis" xMin="182" yMin="0" xMax="939" yMax="1760">
      <component glyphName="E" x="0" y="0" flags="0x1204"/>
      <component glyphName="dieresis.cap" x="317" y="0" flags="0x1004"/>
    </TTGlyph>
    <TTGlyph name="Edotaccent" xMin="182" yMin="0" xMax="939" yMax="1762">
      <component glyphName="E" x="0" y="0" flags="0x1204"/>
      <component glyphName="dotaccent.cap" x="318" y="0" flags="0x1004"/>
    </TTGlyph>
    <TTGlyph name="Egrave" xMin="182" yMin="0" xMax="939" yMax="1941">
      <component glyphName="E" x="0" y="0" flags="0x1204"/>
      <component glyphName="grave.cap" x="318" y="0" flags="0x1004"/>
    </TTGlyph>
    <TTGlyph name="Emacron" xMin="182" yMin="0" xMax="939" yMax="1852">
      <component glyphName="E" x="0" y="0" flags="0x1204"/>
      <component glyphName="macron.cap" x="50" y="0" flags="0x1004"/>
    </TTGlyph>
    <TTGlyph name="Eng" xMin="182" yMin="-511" xMax="1188" yMax="1358">
      <contour>
        <pt x="868" y="-358" on="1"/>
        <pt x="957" y="-340" on="0"/>
        <pt x="982" y="-292" on="1"/>
        <pt x="1006" y="-243" on="0"/>
        <pt x="1006" y="-95" on="1"/>
        <pt x="1006" y="127" on="1"/>
        <pt x="1099" y="226" on="1"/>
        <pt x="1188" y="0" on="1"/>
        <pt x="1188" y="-145" on="1"/>
        <pt x="1188" y="-311" on="0"/>
        <pt x="1130" y="-391" on="1"/>
        <pt x="1070" y="-476" on="0"/>
        <pt x="914" y="-511" on="1"/>
        <pt x="879" y="-459" on="0"/>
      </contour>
      <contour>
        <pt x="182" y="1358" on="1"/>
        <pt x="507" y="1358" on="1"/>
        <pt x="973" y="199" on="1"/>
        <pt x="1006" y="199" on="1"/>
        <pt x="1006" y="1358" on="1"/>
        <pt x="1188" y="1358" on="1"/>
        <pt x="1188" y="0" on="1"/>
        <pt x="872" y="0" on="1"/>
        <pt x="397" y="1159" on="1"/>
        <pt x="365" y="1159" on="1"/>
        <pt x="365" y="0" on="1"/>
        <pt x="182" y="0" on="1"/>
      </contour>
    </TTGlyph>
    <TTGlyph name="Eogonek" xMin="182" yMin="-371" xMax="951" yMax="1358">
      <contour>
        <pt x="939" y="-182" on="1"/>
        <pt x="951" y="-221" on="0"/>
        <pt x="951" y="-271" on="1"/>
        <pt x="951" y="-322" on="0"/>
        <pt x="939" y="-366" on="1"/>
        <pt x="926" y="-371" on="0"/>
        <pt x="875" y="-371" on="1"/>
        <pt x="747" y="-371" on="0"/>
        <pt x="611" y="-262" on="0"/>
        <pt x="611" y="-169" on="1"/>
        <pt x="611" y="-102" on="0"/>
        <pt x="641" y="-54" on="1"/>
        <pt x="689" y="23" on="0"/>
        <pt x="725" y="37" on="1"/>
        <pt x="924" y="0" on="1"/>
        <pt x="804" y="0" on="0"/>
        <pt x="764" y="-59" on="1"/>
        <pt x="749" y="-80" on="0"/>
        <pt x="749" y="-146" on="0"/>
        <pt x="821" y="-189" on="0"/>
        <pt x="909" y="-189" on="0"/>
      </contour>
      <contour>
        <pt x="939" y="107" on="1"/>
        <pt x="939" y="45" on="0"/>
        <pt x="927" y="0" on="1"/>
        <pt x="182" y="0" on="1"/>
        <pt x="182" y="1358" on="1"/>
        <pt x="929" y="1358" on="1"/>
        <pt x="929" y="1353" on="0"/>
        <pt x="930" y="1348" on="1"/>
        <pt x="931" y="1321" on="1"/>
        <pt x="931" y="1251" on="0"/>
        <pt x="909" y="1207" on="1"/>
        <pt x="727" y="1213" on="1"/>
        <pt x="487" y="1219" on="0"/>
        <pt x="365" y="1219" on="1"/>
        <pt x="365" y="764" on="1"/>
        <pt x="392" y="764" on="0"/>
        <pt x="465" y="765" on="0"/>
        <pt x="506" y="766" on="1"/>
        <pt x="590" y="766" on="1"/>
        <pt x="634" y="767" on="0"/>
        <pt x="771" y="770" on="0"/>
        <pt x="876" y="772" on="1"/>
        <pt x="876" y="767" on="0"/>
        <pt x="877" y="760" on="1"/>
        <pt x="878" y="728" on="1"/>
        <pt x="878" y="670" on="0"/>
        <pt x="865" y="625" on="1"/>
        <pt x="761" y="626" on="0"/>
        <pt x="625" y="628" on="0"/>
        <pt x="582" y="628" on="1"/>
        <pt x="500" y="630" on="1"/>
        <pt x="461" y="630" on="0"/>
        <pt x="390" y="631" on="0"/>
        <pt x="365" y="631" on="1"/>
        <pt x="365" y="138" on="1"/>
        <pt x="457" y="138" on="0"/>
        <pt x="530" y="140" on="1"/>
        <pt x="652" y="142" on="1"/>
        <pt x="739" y="144" on="0"/>
        <pt x="937" y="152" on="1"/>
        <pt x="937" y="147" on="0"/>
        <pt x="938" y="140" on="1"/>
      </contour>
    </TTGlyph>
    <TTGlyph name="Eth" xMin="53" yMin="0" xMax="1200" yMax="1368">
      <contour>
        <pt x="182" y="1358" on="1"/>
        <pt x="407" y="1368" on="0"/>
        <pt x="718" y="1368" on="0"/>
        <pt x="955" y="1283" on="0"/>
        <pt x="1036" y="1198" on="1"/>
        <pt x="1200" y="1023" on="0"/>
        <pt x="1200" y="685" on="1"/>
        <pt x="1200" y="348" on="0"/>
        <pt x="1026" y="172" on="1"/>
        <pt x="856" y="0" on="0"/>
        <pt x="551" y="0" on="1"/>
        <pt x="182" y="0" on="1"/>
        <pt x="182" y="631" on="1"/>
        <pt x="165" y="631" on="1"/>
        <pt x="53" y="629" on="1"/>
        <pt x="53" y="762" on="1"/>
        <pt x="165" y="764" on="1"/>
        <pt x="182" y="764" on="1"/>
      </contour>
      <contour>
        <pt x="665" y="625" on="1"/>
        <pt x="581" y="625" on="0"/>
        <pt x="365" y="629" on="1"/>
        <pt x="365" y="152" on="1"/>
        <pt x="580" y="152" on="1"/>
        <pt x="775" y="152" on="0"/>
        <pt x="893" y="306" on="1"/>
        <pt x="1006" y="454" on="0"/>
        <pt x="1006" y="685" on="1"/>
        <pt x="1006" y="932" on="0"/>
        <pt x="893" y="1074" on="1"/>
        <pt x="779" y="1217" on="0"/>
        <pt x="580" y="1217" on="1"/>
        <pt x="457" y="1217" on="0"/>
        <pt x="365" y="1209" on="1"/>
        <pt x="365" y="766" on="1"/>
        <pt x="477" y="768" on="1"/>
        <pt x="532" y="769" on="0"/>
        <pt x="580" y="770" on="1"/>
        <pt x="676" y="772" on="1"/>
        <pt x="676" y="767" on="0"/>
        <pt x="677" y="760" on="1"/>
        <pt x="678" y="728" on="1"/>
        <pt x="678" y="670" on="0"/>
      </contour>
    </TTGlyph>
    <TTGlyph name="Euro" xMin="1" yMin="-27" xMax="1047" yMax="1385">
      <contour>
        <pt x="11" y="429" on="1"/>
        <pt x="1" y="462" on="0"/>
        <pt x="1" y="542" on="0"/>
        <pt x="11" y="572" on="1"/>
        <pt x="125" y="572" on="1"/>
        <pt x="122" y="617" on="0"/>
        <pt x="122" y="715" on="0"/>
        <pt x="127" y="790" on="1"/>
        <pt x="21" y="790" on="1"/>
        <pt x="11" y="823" on="0"/>
        <pt x="11" y="903" on="0"/>
        <pt x="21" y="933" on="1"/>
        <pt x="151" y="933" on="1"/>
        <pt x="230" y="1264" on="0"/>
        <pt x="514" y="1355" on="1"/>
        <pt x="608" y="1385" on="0"/>
        <pt x="869" y="1385" on="0"/>
        <pt x="1037" y="1335" on="1"/>
        <pt x="1030" y="1259" on="0"/>
        <pt x="994" y="1184" on="1"/>
        <pt x="859" y="1229" on="0"/>
        <pt x="654" y="1229" on="0"/>
        <pt x="539" y="1187" on="0"/>
        <pt x="492" y="1148" on="1"/>
        <pt x="400" y="1072" on="0"/>
        <pt x="353" y="933" on="1"/>
        <pt x="865" y="933" on="1"/>
        <pt x="874" y="899" on="0"/>
        <pt x="874" y="862" on="1"/>
        <pt x="874" y="830" on="0"/>
        <pt x="865" y="790" on="1"/>
        <pt x="321" y="790" on="1"/>
        <pt x="314" y="739" on="0"/>
        <pt x="314" y="618" on="0"/>
        <pt x="318" y="572" on="1"/>
        <pt x="854" y="572" on="1"/>
        <pt x="863" y="538" on="0"/>
        <pt x="863" y="501" on="1"/>
        <pt x="863" y="470" on="0"/>
        <pt x="854" y="429" on="1"/>
        <pt x="347" y="429" on="1"/>
        <pt x="390" y="289" on="0"/>
        <pt x="581" y="138" on="0"/>
        <pt x="871" y="138" on="0"/>
        <pt x="1016" y="184" on="1"/>
        <pt x="1047" y="118" on="0"/>
        <pt x="1042" y="23" on="1"/>
        <pt x="867" y="-27" on="0"/>
        <pt x="722" y="-27" on="1"/>
        <pt x="240" y="-27" on="0"/>
        <pt x="144" y="429" on="1"/>
      </contour>
    </TTGlyph>
    <TTGlyph name="F" xMin="182" yMin="0" xMax="931" yMax="1358">
      <contour>
        <pt x="654" y="593" on="1"/>
        <pt x="365" y="596" on="1"/>
        <pt x="365" y="0" on="1"/>
        <pt x="182" y="0" on="1"/>
        <pt x="182" y="1358" on="1"/>
        <pt x="929" y="1358" on="1"/>
        <pt x="929" y="1353" on="0"/>
        <pt x="930" y="1348" on="1"/>
        <pt x="931" y="1321" on="1"/>
        <pt x="931" y="1251" on="0"/>
        <pt x="909" y="1207" on="1"/>
        <pt x="729" y="1213" on="1"/>
        <pt x="690" y="1214" on="0"/>
        <pt x="645" y="1215" on="1"/>
        <pt x="553" y="1217" on="1"/>
        <pt x="459" y="1219" on="0"/>
        <pt x="365" y="1219" on="1"/>
        <pt x="365" y="730" on="1"/>
        <pt x="389" y="730" on="0"/>
        <pt x="459" y="731" on="0"/>
        <pt x="500" y="732" on="1"/>
        <pt x="584" y="732" on="1"/>
        <pt x="627" y="733" on="0"/>
        <pt x="767" y="736" on="0"/>
        <pt x="876" y="738" on="1"/>
        <pt x="876" y="733" on="0"/>
        <pt x="877" y="726" on="1"/>
        <pt x="877" y="726" on="0"/>
        <pt x="878" y="693" on="1"/>
        <pt x="878" y="636" on="0"/>
        <pt x="865" y="590" on="1"/>
        <pt x="753" y="591" on="0"/>
      </contour>
    </TTGlyph>
    <TTGlyph name="G" xMin="122" yMin="-27" xMax="1070" yMax="1385">
      <contour>
        <pt x="977" y="617" on="1"/>
        <pt x="1004" y="617" on="0"/>
        <pt x="1070" y="606" on="1"/>
        <pt x="1070" y="394" on="0"/>
        <pt x="1062" y="83" on="0"/>
        <pt x="1060" y="-2" on="1"/>
        <pt x="910" y="-27" on="0"/>
        <pt x="742" y="-27" on="1"/>
        <pt x="435" y="-27" on="0"/>
        <pt x="122" y="325" on="0"/>
        <pt x="122" y="667" on="1"/>
        <pt x="122" y="1010" on="0"/>
        <pt x="282" y="1198" on="1"/>
        <pt x="443" y="1385" on="0"/>
        <pt x="742" y="1385" on="1"/>
        <pt x="888" y="1385" on="0"/>
        <pt x="1056" y="1335" on="1"/>
        <pt x="1049" y="1256" on="0"/>
        <pt x="1014" y="1184" on="1"/>
        <pt x="879" y="1229" on="0"/>
        <pt x="641" y="1229" on="0"/>
        <pt x="483" y="1149" on="0"/>
        <pt x="428" y="1076" on="1"/>
        <pt x="314" y="925" on="0"/>
        <pt x="314" y="667" on="1"/>
        <pt x="314" y="411" on="0"/>
        <pt x="428" y="270" on="1"/>
        <pt x="542" y="128" on="0"/>
        <pt x="742" y="128" on="1"/>
        <pt x="842" y="128" on="0"/>
        <pt x="898" y="136" on="1"/>
        <pt x="898" y="169" on="0"/>
        <pt x="896" y="244" on="0"/>
        <pt x="895" y="322" on="0"/>
        <pt x="894" y="361" on="1"/>
        <pt x="892" y="450" on="0"/>
        <pt x="888" y="606" on="1"/>
        <pt x="927" y="617" on="0"/>
      </contour>
    </TTGlyph>
    <TTGlyph name="Gbreve" xMin="122" yMin="-27" xMax="1070" yMax="1881">
      <component glyphName="G" x="0" y="0" flags="0x1204"/>
      <component glyphName="breve.cap" x="392" y="0" flags="0x1004"/>
    </TTGlyph>
    <TTGlyph name="Gcircumflex" xMin="122" yMin="-27" xMax="1077" yMax="1870">
      <component glyphName="G" x="0" y="0" flags="0x1204"/>
      <component glyphName="circumflex.cap" x="392" y="0" flags="0x1004"/>
    </TTGlyph>
    <TTGlyph name="Gcommaaccent" xMin="122" yMin="-540" xMax="1070" yMax="1385">
      <component glyphName="G" x="0" y="0" flags="0x1204"/>
      <component glyphName="commaaccent" x="340" y="0" flags="0x1004"/>
    </TTGlyph>
    <TTGlyph name="Gdotaccent" xMin="122" yMin="-27" xMax="1070" yMax="1762">
      <component glyphName="G" x="0" y="0" flags="0x1204"/>
      <component glyphName="dotaccent.cap" x="489" y="0" flags="0x1004"/>
    </TTGlyph>
    <TTGlyph name="H" xMin="205" yMin="0" xMax="1159" yMax="1358">
      <contour>
        <pt x="205" y="1358" on="1"/>
        <pt x="388" y="1358" on="1"/>
        <pt x="388" y="770" on="1"/>
        <pt x="976" y="770" on="1"/>
        <pt x="976" y="1358" on="1"/>
        <pt x="1159" y="1358" on="1"/>
        <pt x="1159" y="0" on="1"/>
        <pt x="976" y="0" on="1"/>
        <pt x="976" y="619" on="1"/>
        <pt x="388" y="619" on="1"/>
        <pt x="388" y="0" on="1"/>
        <pt x="205" y="0" on="1"/>
      </contour>
    </TTGlyph>
    <TTGlyph name="Hbar" xMin="101" yMin="0" xMax="1265" yMax="1358">
      <contour>
        <pt x="110" y="1043" on="1"/>
        <pt x="101" y="1077" on="0"/>
        <pt x="101" y="1147" on="0"/>
        <pt x="111" y="1179" on="1"/>
        <pt x="1259" y="1179" on="1"/>
        <pt x="1265" y="1152" on="0"/>
        <pt x="1265" y="1079" on="0"/>
        <pt x="1253" y="1043" on="1"/>
      </contour>
      <contour>
        <pt x="205" y="1358" on="1"/>
        <pt x="388" y="1358" on="1"/>
        <pt x="388" y="770" on="1"/>
        <pt x="976" y="770" on="1"/>
        <pt x="976" y="1358" on="1"/>
        <pt x="1159" y="1358" on="1"/>
        <pt x="1159" y="0" on="1"/>
        <pt x="976" y="0" on="1"/>
        <pt x="976" y="619" on="1"/>
        <pt x="388" y="619" on="1"/>
        <pt x="388" y="0" on="1"/>
        <pt x="205" y="0" on="1"/>
      </contour>
    </TTGlyph>
    <TTGlyph name="Hcircumflex" xMin="205" yMin="0" xMax="1159" yMax="1870">
      <component glyphName="H" x="0" y="0" flags="0x1204"/>
      <component glyphName="circumflex.cap" x="342" y="0" flags="0x1004"/>
    </TTGlyph>
    <TTGlyph name="I" xMin="165" yMin="0" xMax="348" yMax="1358">
      <contour>
        <pt x="165" y="1358" on="1"/>
        <pt x="348" y="1358" on="1"/>
        <pt x="348" y="0" on="1"/>
        <pt x="165" y="0" on="1"/>
      </contour>
    </TTGlyph>
    <TTGlyph name="IJ" xMin="165" yMin="-416" xMax="862" yMax="1358">
      <component glyphName="I" x="0" y="0" flags="0x1004"/>
      <component glyphName="J" x="513" y="0" flags="0x1004"/>
    </TTGlyph>
    <TTGlyph name="Iacute" xMin="70" yMin="0" xMax="503" yMax="1941">
      <component glyphName="I" x="0" y="0" flags="0x1204"/>
      <component glyphName="acute.cap" x="13" y="0" flags="0x1004"/>
    </TTGlyph>
    <TTGlyph name="Ibreve" xMin="-69" yMin="0" xMax="587" yMax="1881">
      <component glyphName="I" x="0" y="0" flags="0x1204"/>
      <component glyphName="breve.cap" x="-83" y="0" flags="0x1004"/>
    </TTGlyph>
    <TTGlyph name="Icircumflex" xMin="-82" yMin="0" xMax="602" yMax="1870">
      <component glyphName="I" x="0" y="0" flags="0x1204"/>
      <component glyphName="circumflex.cap" x="-83" y="0" flags="0x1004"/>
    </TTGlyph>
    <TTGlyph name="Idieresis" xMin="-79" yMin="0" xMax="591" yMax="1760">
      <component glyphName="I" x="0" y="0" flags="0x1204"/>
      <component glyphName="dieresis.cap" x="12" y="0" flags="0x1004"/>
    </TTGlyph>
    <TTGlyph name="Idotaccent" xMin="140" yMin="0" xMax="372" yMax="1762">
      <component glyphName="I" x="0" y="0" flags="0x1204"/>
      <component glyphName="dotaccent.cap" x="13" y="0" flags="0x1004"/>
    </TTGlyph>
    <TTGlyph name="Igrave" xMin="10" yMin="0" xMax="443" yMax="1941">
      <component glyphName="I" x="0" y="0" flags="0x1204"/>
      <component glyphName="grave.cap" x="13" y="0" flags="0x1004"/>
    </TTGlyph>
    <TTGlyph name="Imacron" xMin="-61" yMin="0" xMax="576" yMax="1852">
      <component glyphName="I" x="0" y="0" flags="0x1204"/>
      <component glyphName="macron.cap" x="-254" y="0" flags="0x1004"/>
    </TTGlyph>
    <TTGlyph name="Iogonek" xMin="35" yMin="-371" xMax="356" yMax="1358">
      <contour>
        <pt x="344" y="-182" on="1"/>
        <pt x="356" y="-221" on="0"/>
        <pt x="356" y="-271" on="1"/>
        <pt x="356" y="-322" on="0"/>
        <pt x="344" y="-366" on="1"/>
        <pt x="332" y="-371" on="0"/>
        <pt x="224" y="-371" on="0"/>
        <pt x="134" y="-342" on="0"/>
        <pt x="102" y="-316" on="1"/>
        <pt x="35" y="-262" on="0"/>
        <pt x="35" y="-169" on="1"/>
        <pt x="35" y="-55" on="0"/>
        <pt x="122" y="18" on="1"/>
        <pt x="148" y="41" on="0"/>
        <pt x="178" y="56" on="1"/>
        <pt x="348" y="0" on="1"/>
        <pt x="228" y="0" on="0"/>
        <pt x="188" y="-59" on="1"/>
        <pt x="173" y="-80" on="0"/>
        <pt x="173" y="-109" on="1"/>
        <pt x="173" y="-189" on="0"/>
        <pt x="296" y="-189" on="1"/>
        <pt x="314" y="-189" on="0"/>
      </contour>
      <contour>
        <pt x="165" y="1358" on="1"/>
        <pt x="348" y="1358" on="1"/>
        <pt x="348" y="0" on="1"/>
        <pt x="165" y="0" on="1"/>
      </contour>
    </TTGlyph>
    <TTGlyph name="Itilde" xMin="-76" yMin="0" xMax="590" yMax="1846">
      <component glyphName="I" x="0" y="0" flags="0x1204"/>
      <component glyphName="tilde.cap" x="-86" y="0" flags="0x1004"/>
    </TTGlyph>
    <TTGlyph name="J" xMin="29" yMin="-416" xMax="349" yMax="1358">
      <contour>
        <pt x="166" y="1358" on="1"/>
        <pt x="349" y="1358" on="1"/>
        <pt x="349" y="-50" on="1"/>
        <pt x="349" y="-216" on="0"/>
        <pt x="292" y="-296" on="1"/>
        <pt x="231" y="-381" on="0"/>
        <pt x="75" y="-416" on="1"/>
        <pt x="40" y="-364" on="0"/>
        <pt x="29" y="-263" on="1"/>
        <pt x="118" y="-245" on="0"/>
        <pt x="142" y="-196" on="1"/>
        <pt x="166" y="-150" on="0"/>
        <pt x="166" y="0" on="1"/>
      </contour>
    </TTGlyph>
    <TTGlyph name="Jcircumflex" xMin="-83" yMin="-416" xMax="601" yMax="1870">
      <component glyphName="J" x="0" y="0" flags="0x1204"/>
      <component glyphName="circumflex.cap" x="-84" y="0" flags="0x1004"/>
    </TTGlyph>
    <TTGlyph name="K" xMin="182" yMin="0" xMax="1147" yMax="1358">
      <contour>
        <pt x="182" y="1358" on="1"/>
        <pt x="365" y="1358" on="1"/>
        <pt x="365" y="752" on="1"/>
        <pt x="424" y="752" on="1"/>
        <pt x="880" y="1358" on="1"/>
        <pt x="1107" y="1358" on="1"/>
        <pt x="592" y="695" on="1"/>
        <pt x="1147" y="0" on="1"/>
        <pt x="915" y="0" on="1"/>
        <pt x="416" y="639" on="1"/>
        <pt x="365" y="639" on="1"/>
        <pt x="365" y="0" on="1"/>
        <pt x="182" y="0" on="1"/>
      </contour>
    </TTGlyph>
    <TTGlyph name="Kcommaaccent" xMin="182" yMin="-540" xMax="1147" yMax="1358">
      <component glyphName="K" x="0" y="0" flags="0x1204"/>
      <component glyphName="commaaccent" x="408" y="0" flags="0x1004"/>
    </TTGlyph>
    <TTGlyph name="L" xMin="182" yMin="0" xMax="960" yMax="1358">
      <contour>
        <pt x="957" y="152" on="1"/>
        <pt x="960" y="125" on="0"/>
        <pt x="960" y="44" on="0"/>
        <pt x="944" y="0" on="1"/>
        <pt x="182" y="0" on="1"/>
        <pt x="182" y="1358" on="1"/>
        <pt x="365" y="1358" on="1"/>
        <pt x="365" y="136" on="1"/>
        <pt x="471" y="136" on="0"/>
        <pt x="604" y="140" on="0"/>
        <pt x="702" y="142" on="0"/>
        <pt x="777" y="145" on="1"/>
      </contour>
    </TTGlyph>
    <TTGlyph name="Lacute" xMin="182" yMin="0" xMax="960" yMax="1941">
      <component glyphName="L" x="0" y="0" flags="0x1204"/>
      <component glyphName="acute.cap" x="165" y="0" flags="0x1004"/>
    </TTGlyph>
    <TTGlyph name="Lcaron" xMin="182" yMin="0" xMax="960" yMax="1443">
      <contour>
        <pt x="510" y="1023" on="1"/>
        <pt x="539" y="1128" on="0"/>
        <pt x="539" y="1342" on="0"/>
        <pt x="514" y="1422" on="1"/>
        <pt x="515" y="1422" on="0"/>
        <pt x="533" y="1429" on="0"/>
        <pt x="547" y="1433" on="1"/>
        <pt x="582" y="1443" on="0"/>
        <pt x="610" y="1443" on="1"/>
        <pt x="666" y="1443" on="0"/>
        <pt x="700" y="1421" on="1"/>
        <pt x="710" y="1369" on="0"/>
        <pt x="710" y="1310" on="1"/>
        <pt x="710" y="1159" on="0"/>
        <pt x="629" y="1012" on="1"/>
        <pt x="604" y="1005" on="0"/>
        <pt x="583" y="1005" on="1"/>
        <pt x="538" y="1005" on="0"/>
      </contour>
      <contour>
        <pt x="957" y="152" on="1"/>
        <pt x="960" y="125" on="0"/>
        <pt x="960" y="44" on="0"/>
        <pt x="944" y="0" on="1"/>
        <pt x="182" y="0" on="1"/>
        <pt x="182" y="1358" on="1"/>
        <pt x="365" y="1358" on="1"/>
        <pt x="365" y="136" on="1"/>
        <pt x="471" y="136" on="0"/>
        <pt x="604" y="140" on="0"/>
        <pt x="702" y="142" on="0"/>
        <pt x="777" y="145" on="1"/>
      </contour>
    </TTGlyph>
    <TTGlyph name="Lcommaaccent" xMin="182" yMin="-540" xMax="960" yMax="1358">
      <component glyphName="L" x="0" y="0" flags="0x1204"/>
      <component glyphName="commaaccent" x="315" y="0" flags="0x1004"/>
    </TTGlyph>
    <TTGlyph name="Ldot" xMin="182" yMin="0" xMax="960" yMax="1358">
      <component glyphName="L" x="0" y="0" flags="0x1204"/>
      <component glyphName="periodcentered" x="558" y="169" flags="0x1004"/>
    </TTGlyph>
    <TTGlyph name="Lslash" xMin="0" yMin="0" xMax="960" yMax="1358">
      <contour>
        <pt x="0" y="614" on="1"/>
        <pt x="850" y="913" on="1"/>
        <pt x="850" y="770" on="1"/>
        <pt x="0" y="471" on="1"/>
      </contour>
      <contour>
        <pt x="957" y="152" on="1"/>
        <pt x="960" y="125" on="0"/>
        <pt x="960" y="44" on="0"/>
        <pt x="944" y="0" on="1"/>
        <pt x="182" y="0" on="1"/>
        <pt x="182" y="1358" on="1"/>
        <pt x="365" y="1358" on="1"/>
        <pt x="365" y="136" on="1"/>
        <pt x="471" y="136" on="0"/>
        <pt x="604" y="140" on="0"/>
        <pt x="702" y="142" on="0"/>
        <pt x="777" y="145" on="1"/>
      </contour>
    </TTGlyph>
    <TTGlyph name="M" xMin="111" yMin="0" xMax="1424" yMax="1358">
      <contour>
        <pt x="172" y="1358" on="1"/>
        <pt x="456" y="1358" on="1"/>
        <pt x="756" y="406" on="1"/>
        <pt x="780" y="406" on="1"/>
        <pt x="1080" y="1358" on="1"/>
        <pt x="1364" y="1358" on="1"/>
        <pt x="1424" y="0" on="1"/>
        <pt x="1242" y="0" on="1"/>
        <pt x="1206" y="1159" on="1"/>
        <pt x="1188" y="1159" on="1"/>
        <pt x="880" y="238" on="1"/>
        <pt x="658" y="238" on="1"/>
        <pt x="346" y="1159" on="1"/>
        <pt x="327" y="1159" on="1"/>
        <pt x="294" y="0" on="1"/>
        <pt x="111" y="0" on="1"/>
      </contour>
    </TTGlyph>
    <TTGlyph name="N" xMin="182" yMin="0" xMax="1188" yMax="1358">
      <contour>
        <pt x="182" y="1358" on="1"/>
        <pt x="507" y="1358" on="1"/>
        <pt x="973" y="199" on="1"/>
        <pt x="1006" y="199" on="1"/>
        <pt x="1006" y="1358" on="1"/>
        <pt x="1188" y="1358" on="1"/>
        <pt x="1188" y="0" on="1"/>
        <pt x="872" y="0" on="1"/>
        <pt x="397" y="1159" on="1"/>
        <pt x="365" y="1159" on="1"/>
        <pt x="365" y="0" on="1"/>
        <pt x="182" y="0" on="1"/>
      </contour>
    </TTGlyph>
    <TTGlyph name="Nacute" xMin="182" yMin="0" xMax="1188" yMax="1941">
      <component glyphName="N" x="0" y="0" flags="0x1204"/>
      <component glyphName="acute.cap" x="442" y="0" flags="0x1004"/>
    </TTGlyph>
    <TTGlyph name="Ncaron" xMin="182" yMin="0" xMax="1188" yMax="1869">
      <component glyphName="N" x="0" y="0" flags="0x1204"/>
      <component glyphName="caron.cap" x="345" y="0" flags="0x1004"/>
    </TTGlyph>
    <TTGlyph name="Ncommaaccent" xMin="182" yMin="-540" xMax="1188" yMax="1358">
      <component glyphName="N" x="0" y="0" flags="0x1204"/>
      <component glyphName="commaaccent" x="429" y="0" flags="0x1004"/>
    </TTGlyph>
    <TTGlyph name="Ntilde" xMin="182" yMin="0" xMax="1188" yMax="1846">
      <component glyphName="N" x="0" y="0" flags="0x1204"/>
      <component glyphName="tilde.cap" x="342" y="0" flags="0x1004"/>
    </TTGlyph>
    <TTGlyph name="O" xMin="122" yMin="-27" xMax="1240" yMax="1385">
      <contour>
        <pt x="934" y="24" on="1"/>
        <pt x="829" y="-27" on="0"/>
        <pt x="538" y="-27" on="0"/>
        <pt x="326" y="71" on="0"/>
        <pt x="257" y="162" on="1"/>
        <pt x="122" y="342" on="0"/>
        <pt x="122" y="679" on="1"/>
        <pt x="122" y="1193" on="0"/>
        <pt x="436" y="1336" on="1"/>
        <pt x="542" y="1385" on="0"/>
        <pt x="834" y="1385" on="0"/>
        <pt x="1045" y="1293" on="0"/>
        <pt x="1112" y="1206" on="1"/>
        <pt x="1240" y="1036" on="0"/>
        <pt x="1240" y="698" on="1"/>
        <pt x="1240" y="176" on="0"/>
      </contour>
      <contour>
        <pt x="685" y="1223" on="1"/>
        <pt x="314" y="1223" on="0"/>
        <pt x="314" y="679" on="1"/>
        <pt x="314" y="285" on="0"/>
        <pt x="516" y="174" on="1"/>
        <pt x="586" y="136" on="0"/>
        <pt x="785" y="136" on="0"/>
        <pt x="923" y="222" on="0"/>
        <pt x="966" y="298" on="1"/>
        <pt x="1048" y="441" on="0"/>
        <pt x="1048" y="698" on="1"/>
        <pt x="1048" y="964" on="0"/>
        <pt x="966" y="1090" on="1"/>
        <pt x="879" y="1223" on="0"/>
      </contour>
    </TTGlyph>
    <TTGlyph name="OE" xMin="97" yMin="-27" xMax="1780" yMax="1385">
      <contour>
        <pt x="1023" y="153" on="1"/>
        <pt x="909" y="-27" on="0"/>
        <pt x="660" y="-27" on="1"/>
        <pt x="375" y="-27" on="0"/>
        <pt x="232" y="162" on="1"/>
        <pt x="97" y="342" on="0"/>
        <pt x="97" y="679" on="1"/>
        <pt x="97" y="1193" on="0"/>
        <pt x="411" y="1336" on="1"/>
        <pt x="517" y="1385" on="0"/>
        <pt x="660" y="1385" on="1"/>
        <pt x="910" y="1385" on="0"/>
        <pt x="1023" y="1230" on="1"/>
        <pt x="1023" y="1358" on="1"/>
        <pt x="1770" y="1358" on="1"/>
        <pt x="1770" y="1353" on="0"/>
        <pt x="1771" y="1348" on="1"/>
        <pt x="1772" y="1321" on="1"/>
        <pt x="1772" y="1251" on="0"/>
        <pt x="1750" y="1207" on="1"/>
        <pt x="1566" y="1213" on="1"/>
        <pt x="1323" y="1219" on="0"/>
        <pt x="1202" y="1219" on="1"/>
        <pt x="1202" y="764" on="1"/>
        <pt x="1229" y="764" on="0"/>
        <pt x="1302" y="765" on="0"/>
        <pt x="1344" y="766" on="1"/>
        <pt x="1428" y="766" on="1"/>
        <pt x="1472" y="767" on="0"/>
        <pt x="1611" y="770" on="0"/>
        <pt x="1717" y="772" on="1"/>
        <pt x="1717" y="767" on="0"/>
        <pt x="1718" y="760" on="1"/>
        <pt x="1719" y="728" on="1"/>
        <pt x="1719" y="670" on="0"/>
        <pt x="1706" y="625" on="1"/>
        <pt x="1601" y="626" on="0"/>
        <pt x="1464" y="628" on="0"/>
        <pt x="1421" y="628" on="1"/>
        <pt x="1338" y="630" on="1"/>
        <pt x="1298" y="630" on="0"/>
        <pt x="1227" y="631" on="0"/>
        <pt x="1202" y="631" on="1"/>
        <pt x="1202" y="138" on="1"/>
        <pt x="1295" y="138" on="0"/>
        <pt x="1368" y="140" on="1"/>
        <pt x="1490" y="142" on="1"/>
        <pt x="1579" y="144" on="0"/>
        <pt x="1778" y="152" on="1"/>
        <pt x="1778" y="147" on="0"/>
        <pt x="1779" y="140" on="1"/>
        <pt x="1780" y="107" on="1"/>
        <pt x="1780" y="45" on="0"/>
        <pt x="1768" y="0" on="1"/>
        <pt x="1023" y="0" on="1"/>
      </contour>
      <contour>
        <pt x="660" y="1223" on="1"/>
        <pt x="289" y="1223" on="0"/>
        <pt x="289" y="679" on="1"/>
        <pt x="289" y="285" on="0"/>
        <pt x="490" y="174" on="1"/>
        <pt x="561" y="136" on="0"/>
        <pt x="760" y="136" on="0"/>
        <pt x="898" y="222" on="0"/>
        <pt x="941" y="298" on="1"/>
        <pt x="1023" y="441" on="0"/>
        <pt x="1023" y="698" on="1"/>
        <pt x="1023" y="964" on="0"/>
        <pt x="941" y="1090" on="1"/>
        <pt x="854" y="1223" on="0"/>
      </contour>
    </TTGlyph>
    <TTGlyph name="Oacute" xMin="122" yMin="-27" xMax="1240" yMax="1941">
      <component glyphName="O" x="0" y="0" flags="0x1204"/>
      <component glyphName="acute.cap" x="438" y="0" flags="0x1004"/>
    </TTGlyph>
    <TTGlyph name="Obreve" xMin="122" yMin="-27" xMax="1240" yMax="1881">
      <component glyphName="O" x="0" y="0" flags="0x1204"/>
      <component glyphName="breve.cap" x="341" y="0" flags="0x1004"/>
    </TTGlyph>
    <TTGlyph name="Ocircumflex" xMin="122" yMin="-27" xMax="1240" yMax="1870">
      <component glyphName="O" x="0" y="0" flags="0x1204"/>
      <component glyphName="circumflex.cap" x="341" y="0" flags="0x1004"/>
    </TTGlyph>
    <TTGlyph name="Odieresis" xMin="122" yMin="-27" xMax="1240" yMax="1760">
      <component glyphName="O" x="0" y="0" flags="0x1204"/>
      <component glyphName="dieresis.cap" x="437" y="0" flags="0x1004"/>
    </TTGlyph>
    <TTGlyph name="Ograve" xMin="122" yMin="-27" xMax="1240" yMax="1941">
      <component glyphName="O" x="0" y="0" flags="0x1204"/>
      <component glyphName="grave.cap" x="438" y="0" flags="0x1004"/>
    </TTGlyph>
    <TTGlyph name="Ohungarumlaut" xMin="122" yMin="-27" xMax="1240" yMax="1941">
      <component glyphName="O" x="0" y="0" flags="0x1204"/>
      <component glyphName="hungarumlaut.cap" x="341" y="0" flags="0x1004"/>
    </TTGlyph>
    <TTGlyph name="Omacron" xMin="122" yMin="-27" xMax="1240" yMax="1852">
      <component glyphName="O" x="0" y="0" flags="0x1204"/>
      <component glyphName="macron.cap" x="170" y="0" flags="0x1004"/>
    </TTGlyph>
    <TTGlyph name="Omega" xMin="113" yMin="0" xMax="1419" yMax="1545">
      <contour>
        <pt x="136" y="0" on="1"/>
        <pt x="113" y="38" on="0"/>
        <pt x="113" y="123" on="1"/>
        <pt x="113" y="142" on="1"/>
        <pt x="113" y="160" on="0"/>
        <pt x="115" y="172" on="1"/>
        <pt x="353" y="133" on="0"/>
        <pt x="518" y="133" on="1"/>
        <pt x="518" y="153" on="1"/>
        <pt x="362" y="204" on="0"/>
        <pt x="256" y="360" on="1"/>
        <pt x="136" y="538" on="0"/>
        <pt x="136" y="834" on="1"/>
        <pt x="136" y="1168" on="0"/>
        <pt x="332" y="1366" on="1"/>
        <pt x="509" y="1545" on="0"/>
        <pt x="766" y="1545" on="1"/>
        <pt x="1020" y="1545" on="0"/>
        <pt x="1198" y="1370" on="1"/>
        <pt x="1397" y="1174" on="0"/>
        <pt x="1397" y="834" on="1"/>
        <pt x="1397" y="467" on="0"/>
        <pt x="1205" y="275" on="1"/>
        <pt x="1121" y="190" on="0"/>
        <pt x="1014" y="153" on="1"/>
        <pt x="1014" y="133" on="1"/>
        <pt x="1179" y="133" on="0"/>
        <pt x="1417" y="172" on="1"/>
        <pt x="1417" y="166" on="0"/>
        <pt x="1418" y="158" on="1"/>
        <pt x="1419" y="123" on="1"/>
        <pt x="1419" y="38" on="0"/>
        <pt x="1396" y="0" on="1"/>
        <pt x="884" y="0" on="1"/>
        <pt x="884" y="211" on="1"/>
        <pt x="1130" y="288" on="0"/>
        <pt x="1194" y="630" on="1"/>
        <pt x="1214" y="735" on="0"/>
        <pt x="1214" y="972" on="0"/>
        <pt x="1138" y="1181" on="0"/>
        <pt x="1076" y="1252" on="1"/>
        <pt x="950" y="1395" on="0"/>
        <pt x="766" y="1395" on="1"/>
        <pt x="586" y="1395" on="0"/>
        <pt x="460" y="1258" on="1"/>
        <pt x="319" y="1103" on="0"/>
        <pt x="319" y="834" on="1"/>
        <pt x="319" y="452" on="0"/>
        <pt x="522" y="278" on="1"/>
        <pt x="575" y="232" on="0"/>
        <pt x="649" y="209" on="1"/>
        <pt x="648" y="0" on="1"/>
      </contour>
    </TTGlyph>
    <TTGlyph name="Oslash" xMin="122" yMin="-180" xMax="1240" yMax="1520">
      <contour>
        <pt x="366" y="180" on="1"/>
        <pt x="385" y="193" on="1"/>
        <pt x="920" y="1236" on="1"/>
        <pt x="921" y="1257" on="1"/>
        <pt x="1055" y="1520" on="1"/>
        <pt x="1124" y="1510" on="0"/>
        <pt x="1163" y="1458" on="1"/>
        <pt x="1025" y="1190" on="1"/>
        <pt x="1008" y="1175" on="1"/>
        <pt x="478" y="134" on="1"/>
        <pt x="472" y="110" on="1"/>
        <pt x="324" y="-180" on="1"/>
        <pt x="261" y="-165" on="0"/>
        <pt x="213" y="-117" on="1"/>
      </contour>
      <contour>
        <pt x="934" y="24" on="1"/>
        <pt x="829" y="-27" on="0"/>
        <pt x="538" y="-27" on="0"/>
        <pt x="326" y="71" on="0"/>
        <pt x="257" y="162" on="1"/>
        <pt x="122" y="342" on="0"/>
        <pt x="122" y="679" on="1"/>
        <pt x="122" y="1193" on="0"/>
        <pt x="436" y="1336" on="1"/>
        <pt x="542" y="1385" on="0"/>
        <pt x="834" y="1385" on="0"/>
        <pt x="1045" y="1293" on="0"/>
        <pt x="1112" y="1206" on="1"/>
        <pt x="1240" y="1036" on="0"/>
        <pt x="1240" y="698" on="1"/>
        <pt x="1240" y="176" on="0"/>
      </contour>
      <contour>
        <pt x="685" y="1223" on="1"/>
        <pt x="314" y="1223" on="0"/>
        <pt x="314" y="679" on="1"/>
        <pt x="314" y="285" on="0"/>
        <pt x="516" y="174" on="1"/>
        <pt x="586" y="136" on="0"/>
        <pt x="785" y="136" on="0"/>
        <pt x="923" y="222" on="0"/>
        <pt x="966" y="298" on="1"/>
        <pt x="1048" y="441" on="0"/>
        <pt x="1048" y="698" on="1"/>
        <pt x="1048" y="964" on="0"/>
        <pt x="966" y="1090" on="1"/>
        <pt x="879" y="1223" on="0"/>
      </contour>
    </TTGlyph>
    <TTGlyph name="Otilde" xMin="122" yMin="-27" xMax="1240" yMax="1846">
      <component glyphName="O" x="0" y="0" flags="0x1204"/>
      <component glyphName="tilde.cap" x="338" y="0" flags="0x1004"/>
    </TTGlyph>
    <TTGlyph name="P" xMin="182" yMin="0" xMax="1067" yMax="1358">
      <contour>
        <pt x="600" y="519" on="1"/>
        <pt x="490" y="519" on="0"/>
        <pt x="365" y="530" on="1"/>
        <pt x="365" y="0" on="1"/>
        <pt x="182" y="0" on="1"/>
        <pt x="182" y="1358" on="1"/>
        <pt x="673" y="1358" on="1"/>
        <pt x="863" y="1358" on="0"/>
        <pt x="966" y="1246" on="1"/>
        <pt x="1067" y="1138" on="0"/>
        <pt x="1067" y="946" on="1"/>
        <pt x="1067" y="766" on="0"/>
        <pt x="946" y="647" on="1"/>
        <pt x="816" y="519" on="0"/>
      </contour>
      <contour>
        <pt x="365" y="677" on="1"/>
        <pt x="425" y="667" on="0"/>
        <pt x="604" y="667" on="0"/>
        <pt x="730" y="697" on="0"/>
        <pt x="776" y="730" on="1"/>
        <pt x="873" y="799" on="0"/>
        <pt x="873" y="942" on="1"/>
        <pt x="873" y="1131" on="0"/>
        <pt x="736" y="1188" on="1"/>
        <pt x="690" y="1207" on="0"/>
        <pt x="628" y="1207" on="1"/>
        <pt x="365" y="1207" on="1"/>
      </contour>
    </TTGlyph>
    <TTGlyph name="Q" xMin="122" yMin="-278" xMax="1240" yMax="1385">
      <contour>
        <pt x="741" y="-25" on="1"/>
        <pt x="713" y="-27" on="0"/>
        <pt x="685" y="-27" on="1"/>
        <pt x="400" y="-27" on="0"/>
        <pt x="257" y="162" on="1"/>
        <pt x="122" y="342" on="0"/>
        <pt x="122" y="679" on="1"/>
        <pt x="122" y="1193" on="0"/>
        <pt x="436" y="1336" on="1"/>
        <pt x="542" y="1385" on="0"/>
        <pt x="834" y="1385" on="0"/>
        <pt x="1045" y="1293" on="0"/>
        <pt x="1112" y="1206" on="1"/>
        <pt x="1240" y="1036" on="0"/>
        <pt x="1240" y="698" on="1"/>
        <pt x="1240" y="212" on="0"/>
        <pt x="961" y="54" on="1"/>
        <pt x="961" y="20" on="1"/>
        <pt x="1082" y="-56" on="0"/>
        <pt x="1237" y="-124" on="1"/>
        <pt x="1209" y="-214" on="0"/>
        <pt x="1138" y="-278" on="1"/>
        <pt x="1013" y="-206" on="0"/>
        <pt x="912" y="-139" on="1"/>
        <pt x="742" y="-25" on="1"/>
      </contour>
      <contour>
        <pt x="685" y="1223" on="1"/>
        <pt x="314" y="1223" on="0"/>
        <pt x="314" y="679" on="1"/>
        <pt x="314" y="285" on="0"/>
        <pt x="516" y="174" on="1"/>
        <pt x="586" y="136" on="0"/>
        <pt x="785" y="136" on="0"/>
        <pt x="923" y="222" on="0"/>
        <pt x="966" y="298" on="1"/>
        <pt x="1048" y="441" on="0"/>
        <pt x="1048" y="698" on="1"/>
        <pt x="1048" y="964" on="0"/>
        <pt x="966" y="1090" on="1"/>
        <pt x="879" y="1223" on="0"/>
      </contour>
    </TTGlyph>
    <TTGlyph name="R" xMin="182" yMin="0" xMax="1079" yMax="1358">
      <contour>
        <pt x="565" y="572" on="1"/>
        <pt x="448" y="572" on="0"/>
        <pt x="365" y="582" on="1"/>
        <pt x="365" y="0" on="1"/>
        <pt x="182" y="0" on="1"/>
        <pt x="182" y="1358" on="1"/>
        <pt x="643" y="1358" on="1"/>
        <pt x="834" y="1358" on="0"/>
        <pt x="936" y="1254" on="1"/>
        <pt x="1037" y="1152" on="0"/>
        <pt x="1037" y="977" on="1"/>
        <pt x="1037" y="767" on="0"/>
        <pt x="885" y="658" on="1"/>
        <pt x="833" y="620" on="0"/>
        <pt x="762" y="598" on="1"/>
        <pt x="1079" y="0" on="1"/>
        <pt x="880" y="0" on="1"/>
        <pt x="598" y="572" on="1"/>
      </contour>
      <contour>
        <pt x="365" y="730" on="1"/>
        <pt x="432" y="720" on="0"/>
        <pt x="612" y="720" on="0"/>
        <pt x="723" y="751" on="0"/>
        <pt x="762" y="782" on="1"/>
        <pt x="843" y="846" on="0"/>
        <pt x="843" y="1085" on="0"/>
        <pt x="716" y="1207" on="0"/>
        <pt x="598" y="1207" on="1"/>
        <pt x="365" y="1207" on="1"/>
      </contour>
    </TTGlyph>
    <TTGlyph name="Racute" xMin="182" yMin="0" xMax="1079" yMax="1941">
      <component glyphName="R" x="0" y="0" flags="0x1204"/>
      <component glyphName="acute.cap" x="387" y="0" flags="0x1004"/>
    </TTGlyph>
    <TTGlyph name="Rcaron" xMin="182" yMin="0" xMax="1079" yMax="1869">
      <component glyphName="R" x="0" y="0" flags="0x1204"/>
      <component glyphName="caron.cap" x="290" y="0" flags="0x1004"/>
    </TTGlyph>
    <TTGlyph name="Rcommaaccent" xMin="182" yMin="-540" xMax="1079" yMax="1358">
      <component glyphName="R" x="0" y="0" flags="0x1204"/>
      <component glyphName="commaaccent" x="336" y="0" flags="0x1004"/>
    </TTGlyph>
    <TTGlyph name="S" xMin="159" yMin="-27" xMax="1035" yMax="1385">
      <contour>
        <pt x="159" y="43" on="1"/>
        <pt x="167" y="131" on="0"/>
        <pt x="198" y="203" on="1"/>
        <pt x="382" y="144" on="0"/>
        <pt x="617" y="144" on="0"/>
        <pt x="732" y="170" on="0"/>
        <pt x="767" y="196" on="1"/>
        <pt x="832" y="243" on="0"/>
        <pt x="832" y="350" on="1"/>
        <pt x="832" y="454" on="0"/>
        <pt x="786" y="497" on="1"/>
        <pt x="737" y="544" on="0"/>
        <pt x="459" y="613" on="0"/>
        <pt x="303" y="687" on="0"/>
        <pt x="255" y="735" on="1"/>
        <pt x="166" y="824" on="0"/>
        <pt x="166" y="979" on="1"/>
        <pt x="166" y="1185" on="0"/>
        <pt x="296" y="1288" on="1"/>
        <pt x="418" y="1385" on="0"/>
        <pt x="854" y="1385" on="0"/>
        <pt x="985" y="1310" on="1"/>
        <pt x="978" y="1240" on="0"/>
        <pt x="928" y="1166" on="1"/>
        <pt x="828" y="1227" on="0"/>
        <pt x="497" y="1227" on="0"/>
        <pt x="364" y="1124" on="0"/>
        <pt x="364" y="1016" on="1"/>
        <pt x="364" y="913" on="0"/>
        <pt x="415" y="867" on="1"/>
        <pt x="469" y="818" on="0"/>
        <pt x="747" y="746" on="0"/>
        <pt x="899" y="680" on="0"/>
        <pt x="946" y="635" on="1"/>
        <pt x="1035" y="551" on="0"/>
        <pt x="1035" y="383" on="1"/>
        <pt x="1035" y="173" on="0"/>
        <pt x="920" y="75" on="1"/>
        <pt x="802" y="-27" on="0"/>
        <pt x="330" y="-27" on="0"/>
      </contour>
    </TTGlyph>
    <TTGlyph name="Sacute" xMin="159" yMin="-27" xMax="1035" yMax="1941">
      <component glyphName="S" x="0" y="0" flags="0x1204"/>
      <component glyphName="acute.cap" x="354" y="0" flags="0x1004"/>
    </TTGlyph>
    <TTGlyph name="Scaron" xMin="159" yMin="-27" xMax="1035" yMax="1869">
      <component glyphName="S" x="0" y="0" flags="0x1204"/>
      <component glyphName="caron.cap" x="257" y="0" flags="0x1004"/>
    </TTGlyph>
    <TTGlyph name="Scedilla" xMin="159" yMin="-371" xMax="1035" yMax="1385">
      <component glyphName="S" x="0" y="0" flags="0x1204"/>
      <component glyphName="cedilla" x="342" y="0" flags="0x1004"/>
    </TTGlyph>
    <TTGlyph name="Scircumflex" xMin="159" yMin="-27" xMax="1035" yMax="1870">
      <component glyphName="S" x="0" y="0" flags="0x1204"/>
      <component glyphName="circumflex.cap" x="257" y="0" flags="0x1004"/>
    </TTGlyph>
    <TTGlyph name="Scommaaccent" xMin="159" yMin="-540" xMax="1035" yMax="1385">
      <component glyphName="S" x="0" y="0" flags="0x1204"/>
      <component glyphName="commaaccent" x="341" y="0" flags="0x1004"/>
    </TTGlyph>
    <TTGlyph name="T" xMin="108" yMin="0" xMax="1086" yMax="1358">
      <contour>
        <pt x="1073" y="1207" on="1"/>
        <pt x="761" y="1213" on="0"/>
        <pt x="682" y="1213" on="1"/>
        <pt x="682" y="0" on="1"/>
        <pt x="499" y="0" on="1"/>
        <pt x="499" y="1213" on="1"/>
        <pt x="320" y="1213" on="0"/>
        <pt x="112" y="1205" on="1"/>
        <pt x="108" y="1237" on="0"/>
        <pt x="108" y="1315" on="0"/>
        <pt x="117" y="1358" on="1"/>
        <pt x="1083" y="1358" on="1"/>
        <pt x="1086" y="1306" on="1"/>
        <pt x="1086" y="1249" on="0"/>
      </contour>
    </TTGlyph>
    <TTGlyph name="Tbar" xMin="108" yMin="0" xMax="1086" yMax="1358">
      <component glyphName="T" x="0" y="0" flags="0x1204"/>
      <component glyphName="macron" x="85" y="-675" flags="0x1004"/>
    </TTGlyph>
    <TTGlyph name="Tcaron" xMin="108" yMin="0" xMax="1086" yMax="1869">
      <component glyphName="T" x="0" y="0" flags="0x1204"/>
      <component glyphName="caron.cap" x="257" y="0" flags="0x1004"/>
    </TTGlyph>
    <TTGlyph name="Tcommaaccent" xMin="108" yMin="-540" xMax="1086" yMax="1358">
      <component glyphName="T" x="0" y="0" flags="0x1204"/>
      <component glyphName="commaaccent" x="341" y="0" flags="0x1004"/>
    </TTGlyph>
    <TTGlyph name="Thorn" xMin="182" yMin="0" xMax="1067" yMax="1358">
      <contour>
        <pt x="600" y="270" on="1"/>
        <pt x="490" y="270" on="0"/>
        <pt x="365" y="281" on="1"/>
        <pt x="365" y="0" on="1"/>
        <pt x="182" y="0" on="1"/>
        <pt x="182" y="1358" on="1"/>
        <pt x="367" y="1358" on="1"/>
        <pt x="367" y="1109" on="1"/>
        <pt x="673" y="1109" on="1"/>
        <pt x="863" y="1109" on="0"/>
        <pt x="966" y="998" on="1"/>
        <pt x="1067" y="889" on="0"/>
        <pt x="1067" y="697" on="1"/>
        <pt x="1067" y="517" on="0"/>
        <pt x="946" y="398" on="1"/>
        <pt x="816" y="270" on="0"/>
      </contour>
      <contour>
        <pt x="365" y="428" on="1"/>
        <pt x="425" y="418" on="0"/>
        <pt x="604" y="418" on="0"/>
        <pt x="730" y="448" on="0"/>
        <pt x="776" y="480" on="1"/>
        <pt x="873" y="550" on="0"/>
        <pt x="873" y="693" on="1"/>
        <pt x="873" y="882" on="0"/>
        <pt x="736" y="939" on="1"/>
        <pt x="690" y="958" on="0"/>
        <pt x="628" y="958" on="1"/>
        <pt x="365" y="958" on="1"/>
      </contour>
    </TTGlyph>
    <TTGlyph name="U" xMin="184" yMin="-20" xMax="1181" yMax="1358">
      <contour>
        <pt x="1003" y="570" on="1"/>
        <pt x="1001" y="973" on="1"/>
        <pt x="1000" y="1149" on="0"/>
        <pt x="999" y="1358" on="1"/>
        <pt x="1181" y="1358" on="1"/>
        <pt x="1181" y="527" on="1"/>
        <pt x="1181" y="246" on="0"/>
        <pt x="1073" y="118" on="1"/>
        <pt x="957" y="-20" on="0"/>
        <pt x="685" y="-20" on="1"/>
        <pt x="412" y="-20" on="0"/>
        <pt x="294" y="120" on="1"/>
        <pt x="184" y="249" on="0"/>
        <pt x="184" y="527" on="1"/>
        <pt x="184" y="612" on="1"/>
        <pt x="186" y="1007" on="1"/>
        <pt x="187" y="1171" on="0"/>
        <pt x="188" y="1358" on="1"/>
        <pt x="371" y="1358" on="1"/>
        <pt x="371" y="499" on="1"/>
        <pt x="371" y="238" on="0"/>
        <pt x="538" y="168" on="1"/>
        <pt x="598" y="142" on="0"/>
        <pt x="685" y="142" on="1"/>
        <pt x="1003" y="142" on="0"/>
        <pt x="1003" y="499" on="1"/>
      </contour>
    </TTGlyph>
    <TTGlyph name="Uacute" xMin="184" yMin="-20" xMax="1181" yMax="1941">
      <component glyphName="U" x="0" y="0" flags="0x1204"/>
      <component glyphName="acute.cap" x="439" y="0" flags="0x1004"/>
    </TTGlyph>
    <TTGlyph name="Ubreve" xMin="184" yMin="-20" xMax="1181" yMax="1881">
      <component glyphName="U" x="0" y="0" flags="0x1204"/>
      <component glyphName="breve.cap" x="342" y="0" flags="0x1004"/>
    </TTGlyph>
    <TTGlyph name="Ucircumflex" xMin="184" yMin="-20" xMax="1181" yMax="1870">
      <component glyphName="U" x="0" y="0" flags="0x1204"/>
      <component glyphName="circumflex.cap" x="342" y="0" flags="0x1004"/>
    </TTGlyph>
    <TTGlyph name="Udieresis" xMin="184" yMin="-20" xMax="1181" yMax="1760">
      <component glyphName="U" x="0" y="0" flags="0x1204"/>
      <component glyphName="dieresis.cap" x="438" y="0" flags="0x1004"/>
    </TTGlyph>
    <TTGlyph name="Ugrave" xMin="184" yMin="-20" xMax="1181" yMax="1941">
      <component glyphName="U" x="0" y="0" flags="0x1204"/>
      <component glyphName="grave.cap" x="439" y="0" flags="0x1004"/>
    </TTGlyph>
    <TTGlyph name="Uhungarumlaut" xMin="184" yMin="-20" xMax="1181" yMax="1941">
      <component glyphName="U" x="0" y="0" flags="0x1204"/>
      <component glyphName="hungarumlaut.cap" x="342" y="0" flags="0x1004"/>
    </TTGlyph>
    <TTGlyph name="Umacron" xMin="184" yMin="-20" xMax="1181" yMax="1852">
      <component glyphName="U" x="0" y="0" flags="0x1204"/>
      <component glyphName="macron.cap" x="171" y="0" flags="0x1004"/>
    </TTGlyph>
    <TTGlyph name="Uogonek" xMin="184" yMin="-371" xMax="1181" yMax="1358">
      <contour>
        <pt x="1116" y="-182" on="1"/>
        <pt x="1128" y="-221" on="0"/>
        <pt x="1128" y="-271" on="1"/>
        <pt x="1128" y="-322" on="0"/>
        <pt x="1116" y="-366" on="1"/>
        <pt x="1079" y="-371" on="0"/>
        <pt x="1016" y="-371" on="1"/>
        <pt x="889" y="-371" on="0"/>
        <pt x="765" y="-261" on="0"/>
        <pt x="765" y="-169" on="1"/>
        <pt x="765" y="-96" on="0"/>
        <pt x="819" y="-30" on="1"/>
        <pt x="860" y="20" on="0"/>
        <pt x="902" y="37" on="1"/>
        <pt x="1044" y="88" on="1"/>
        <pt x="1002" y="52" on="1"/>
        <pt x="903" y="-31" on="0"/>
        <pt x="903" y="-99" on="1"/>
        <pt x="903" y="-136" on="0"/>
        <pt x="962" y="-189" on="0"/>
        <pt x="1086" y="-189" on="0"/>
      </contour>
      <contour>
        <pt x="1003" y="570" on="1"/>
        <pt x="1001" y="973" on="1"/>
        <pt x="1000" y="1149" on="0"/>
        <pt x="999" y="1358" on="1"/>
        <pt x="1181" y="1358" on="1"/>
        <pt x="1181" y="527" on="1"/>
        <pt x="1181" y="246" on="0"/>
        <pt x="1073" y="118" on="1"/>
        <pt x="957" y="-20" on="0"/>
        <pt x="685" y="-20" on="1"/>
        <pt x="412" y="-20" on="0"/>
        <pt x="294" y="120" on="1"/>
        <pt x="184" y="249" on="0"/>
        <pt x="184" y="527" on="1"/>
        <pt x="184" y="612" on="1"/>
        <pt x="186" y="1007" on="1"/>
        <pt x="187" y="1171" on="0"/>
        <pt x="188" y="1358" on="1"/>
        <pt x="371" y="1358" on="1"/>
        <pt x="371" y="499" on="1"/>
        <pt x="371" y="238" on="0"/>
        <pt x="538" y="168" on="1"/>
        <pt x="598" y="142" on="0"/>
        <pt x="685" y="142" on="1"/>
        <pt x="1003" y="142" on="0"/>
        <pt x="1003" y="499" on="1"/>
      </contour>
    </TTGlyph>
    <TTGlyph name="Uring" xMin="184" yMin="-20" xMax="1181" yMax="1897">
      <component glyphName="U" x="0" y="0" flags="0x1204"/>
      <component glyphName="ring.cap" x="438" y="0" flags="0x1004"/>
    </TTGlyph>
    <TTGlyph name="Utilde" xMin="184" yMin="-20" xMax="1181" yMax="1846">
      <component glyphName="U" x="0" y="0" flags="0x1204"/>
      <component glyphName="tilde.cap" x="339" y="0" flags="0x1004"/>
    </TTGlyph>
    <TTGlyph name="V" xMin="44" yMin="0" xMax="1147" yMax="1358">
      <contour>
        <pt x="44" y="1358" on="1"/>
        <pt x="236" y="1358" on="1"/>
        <pt x="578" y="150" on="1"/>
        <pt x="611" y="150" on="1"/>
        <pt x="957" y="1358" on="1"/>
        <pt x="1147" y="1358" on="1"/>
        <pt x="743" y="0" on="1"/>
        <pt x="441" y="0" on="1"/>
      </contour>
    </TTGlyph>
    <TTGlyph name="W" xMin="8" yMin="0" xMax="1867" yMax="1358">
      <contour>
        <pt x="8" y="1358" on="1"/>
        <pt x="200" y="1358" on="1"/>
        <pt x="513" y="150" on="1"/>
        <pt x="545" y="150" on="1"/>
        <pt x="810" y="1358" on="1"/>
        <pt x="1074" y="1358" on="1"/>
        <pt x="1335" y="150" on="1"/>
        <pt x="1368" y="150" on="1"/>
        <pt x="1685" y="1358" on="1"/>
        <pt x="1867" y="1358" on="1"/>
        <pt x="1494" y="0" on="1"/>
        <pt x="1198" y="0" on="1"/>
        <pt x="948" y="1198" on="1"/>
        <pt x="924" y="1198" on="1"/>
        <pt x="671" y="0" on="1"/>
        <pt x="375" y="0" on="1"/>
      </contour>
    </TTGlyph>
    <TTGlyph name="Wacute" xMin="8" yMin="0" xMax="1867" yMax="1941">
      <component glyphName="W" x="0" y="0" flags="0x1204"/>
      <component glyphName="acute.cap" x="694" y="0" flags="0x1004"/>
    </TTGlyph>
    <TTGlyph name="Wcircumflex" xMin="8" yMin="0" xMax="1867" yMax="1870">
      <component glyphName="W" x="0" y="0" flags="0x1204"/>
      <component glyphName="circumflex.cap" x="597" y="0" flags="0x1004"/>
    </TTGlyph>
    <TTGlyph name="Wdieresis" xMin="8" yMin="0" xMax="1867" yMax="1760">
      <component glyphName="W" x="0" y="0" flags="0x1204"/>
      <component glyphName="dieresis.cap" x="693" y="0" flags="0x1004"/>
    </TTGlyph>
    <TTGlyph name="Wgrave" xMin="8" yMin="0" xMax="1867" yMax="1941">
      <component glyphName="W" x="0" y="0" flags="0x1204"/>
      <component glyphName="grave.cap" x="694" y="0" flags="0x1004"/>
    </TTGlyph>
    <TTGlyph name="X" xMin="13" yMin="0" xMax="1179" yMax="1358">
      <contour>
        <pt x="473" y="695" on="1"/>
        <pt x="24" y="1358" on="1"/>
        <pt x="237" y="1358" on="1"/>
        <pt x="566" y="853" on="1"/>
        <pt x="605" y="853" on="1"/>
        <pt x="939" y="1358" on="1"/>
        <pt x="1158" y="1358" on="1"/>
        <pt x="690" y="673" on="1"/>
        <pt x="1179" y="0" on="1"/>
        <pt x="955" y="0" on="1"/>
        <pt x="584" y="534" on="1"/>
        <pt x="568" y="534" on="1"/>
        <pt x="229" y="0" on="1"/>
        <pt x="13" y="0" on="1"/>
      </contour>
    </TTGlyph>
    <TTGlyph name="Y" xMin="13" yMin="0" xMax="1012" yMax="1358">
      <contour>
        <pt x="422" y="509" on="1"/>
        <pt x="13" y="1358" on="1"/>
        <pt x="212" y="1358" on="1"/>
        <pt x="493" y="700" on="1"/>
        <pt x="529" y="700" on="1"/>
        <pt x="813" y="1358" on="1"/>
        <pt x="1012" y="1358" on="1"/>
        <pt x="605" y="509" on="1"/>
        <pt x="605" y="0" on="1"/>
        <pt x="422" y="0" on="1"/>
      </contour>
    </TTGlyph>
    <TTGlyph name="Yacute" xMin="13" yMin="0" xMax="1012" yMax="1941">
      <component glyphName="Y" x="0" y="0" flags="0x1204"/>
      <component glyphName="acute.cap" x="269" y="0" flags="0x1004"/>
    </TTGlyph>
    <TTGlyph name="Ycircumflex" xMin="13" yMin="0" xMax="1012" yMax="1870">
      <component glyphName="Y" x="0" y="0" flags="0x1204"/>
      <component glyphName="circumflex.cap" x="172" y="0" flags="0x1004"/>
    </TTGlyph>
    <TTGlyph name="Ydieresis" xMin="13" yMin="0" xMax="1012" yMax="1760">
      <component glyphName="Y" x="0" y="0" flags="0x1204"/>
      <component glyphName="dieresis.cap" x="268" y="0" flags="0x1004"/>
    </TTGlyph>
    <TTGlyph name="Ygrave" xMin="13" yMin="0" xMax="1012" yMax="1941">
      <component glyphName="Y" x="0" y="0" flags="0x1204"/>
      <component glyphName="grave.cap" x="269" y="0" flags="0x1004"/>
    </TTGlyph>
    <TTGlyph name="Z" xMin="44" yMin="0" xMax="980" yMax="1358">
      <contour>
        <pt x="980" y="118" on="1"/>
        <pt x="980" y="60" on="0"/>
        <pt x="955" y="0" on="1"/>
        <pt x="44" y="0" on="1"/>
        <pt x="44" y="152" on="1"/>
        <pt x="758" y="1217" on="1"/>
        <pt x="572" y="1217" on="0"/>
        <pt x="87" y="1207" on="1"/>
        <pt x="76" y="1251" on="0"/>
        <pt x="76" y="1332" on="0"/>
        <pt x="87" y="1358" on="1"/>
        <pt x="959" y="1358" on="1"/>
        <pt x="959" y="1207" on="1"/>
        <pt x="249" y="140" on="1"/>
        <pt x="574" y="140" on="0"/>
        <pt x="977" y="154" on="1"/>
      </contour>
    </TTGlyph>
    <TTGlyph name="Zacute" xMin="44" yMin="0" xMax="980" yMax="1941">
      <component glyphName="Z" x="0" y="0" flags="0x1204"/>
      <component glyphName="acute.cap" x="269" y="0" flags="0x1004"/>
    </TTGlyph>
    <TTGlyph name="Zcaron" xMin="44" yMin="0" xMax="980" yMax="1869">
      <component glyphName="Z" x="0" y="0" flags="0x1204"/>
      <component glyphName="caron.cap" x="172" y="0" flags="0x1004"/>
    </TTGlyph>
    <TTGlyph name="Zdotaccent" xMin="44" yMin="0" xMax="980" yMax="1762">
      <component glyphName="Z" x="0" y="0" flags="0x1204"/>
      <component glyphName="dotaccent.cap" x="269" y="0" flags="0x1004"/>
    </TTGlyph>
    <TTGlyph name="a" xMin="88" yMin="-20" xMax="960" yMax="1064">
      <contour>
        <pt x="643" y="71" on="1"/>
        <pt x="559" y="-20" on="0"/>
        <pt x="404" y="-20" on="1"/>
        <pt x="262" y="-20" on="0"/>
        <pt x="174" y="66" on="1"/>
        <pt x="88" y="150" on="0"/>
        <pt x="88" y="286" on="1"/>
        <pt x="88" y="517" on="0"/>
        <pt x="288" y="573" on="1"/>
        <pt x="352" y="591" on="0"/>
        <pt x="434" y="596" on="1"/>
        <pt x="686" y="610" on="1"/>
        <pt x="686" y="706" on="1"/>
        <pt x="686" y="824" on="0"/>
        <pt x="638" y="874" on="1"/>
        <pt x="589" y="925" on="0"/>
        <pt x="321" y="925" on="0"/>
        <pt x="202" y="858" on="1"/>
        <pt x="162" y="912" on="0"/>
        <pt x="151" y="986" on="1"/>
        <pt x="314" y="1064" on="0"/>
        <pt x="589" y="1064" on="0"/>
        <pt x="735" y="1019" on="0"/>
        <pt x="778" y="976" on="1"/>
        <pt x="858" y="896" on="0"/>
        <pt x="858" y="720" on="1"/>
        <pt x="858" y="154" on="1"/>
        <pt x="960" y="50" on="1"/>
        <pt x="960" y="0" on="1"/>
        <pt x="787" y="0" on="1"/>
        <pt x="707" y="71" on="1"/>
      </contour>
      <contour>
        <pt x="473" y="122" on="1"/>
        <pt x="603" y="122" on="0"/>
        <pt x="686" y="195" on="1"/>
        <pt x="686" y="489" on="1"/>
        <pt x="455" y="474" on="1"/>
        <pt x="264" y="464" on="0"/>
        <pt x="264" y="296" on="1"/>
        <pt x="264" y="156" on="0"/>
        <pt x="388" y="130" on="1"/>
        <pt x="426" y="122" on="0"/>
      </contour>
    </TTGlyph>
    <TTGlyph name="aacute" xMin="88" yMin="-20" xMax="960" yMax="1615">
      <component glyphName="a" x="0" y="0" flags="0x1204"/>
      <component glyphName="acute" x="45" y="0" flags="0x1004"/>
    </TTGlyph>
    <TTGlyph name="abreve" xMin="88" yMin="-20" xMax="960" yMax="1545">
      <component glyphName="a" x="0" y="0" flags="0x1204"/>
      <component glyphName="breve" x="124" y="0" flags="0x1004"/>
    </TTGlyph>
    <TTGlyph name="acircumflex" xMin="88" yMin="-20" xMax="960" yMax="1630">
      <component glyphName="a" x="0" y="0" flags="0x1204"/>
      <component glyphName="circumflex" x="-45" y="0" flags="0x1004"/>
    </TTGlyph>
    <TTGlyph name="acute" xMin="274" yMin="1204" xMax="657" yMax="1615">
      <contour>
        <pt x="351" y="1204" on="1"/>
        <pt x="319" y="1216" on="0"/>
        <pt x="278" y="1266" on="0"/>
        <pt x="274" y="1277" on="1"/>
        <pt x="514" y="1615" on="1"/>
        <pt x="562" y="1601" on="0"/>
        <pt x="632" y="1526" on="1"/>
        <pt x="650" y="1506" on="0"/>
        <pt x="657" y="1492" on="1"/>
      </contour>
    </TTGlyph>
    <TTGlyph name="acute.cap" xMin="57" yMin="1530" xMax="490" yMax="1941">
      <contour>
        <pt x="134" y="1530" on="1"/>
        <pt x="102" y="1542" on="0"/>
        <pt x="61" y="1592" on="0"/>
        <pt x="57" y="1603" on="1"/>
        <pt x="347" y="1941" on="1"/>
        <pt x="395" y="1927" on="0"/>
        <pt x="465" y="1852" on="1"/>
        <pt x="483" y="1832" on="0"/>
        <pt x="490" y="1818" on="1"/>
      </contour>
    </TTGlyph>
    <TTGlyph name="adieresis" xMin="88" yMin="-20" xMax="960" yMax="1457">
      <component glyphName="a" x="0" y="0" flags="0x1204"/>
      <component glyphName="dieresis" x="-45" y="0" flags="0x1004"/>
    </TTGlyph>
    <TTGlyph name="ae" xMin="140" yMin="-20" xMax="1561" yMax="1064">
      <contour>
        <pt x="1212" y="-20" on="1"/>
        <pt x="982" y="-20" on="0"/>
        <pt x="860" y="130" on="1"/>
        <pt x="808" y="130" on="1"/>
        <pt x="747" y="48" on="0"/>
        <pt x="624" y="3" on="1"/>
        <pt x="560" y="-20" on="0"/>
        <pt x="398" y="-20" on="0"/>
        <pt x="277" y="26" on="0"/>
        <pt x="233" y="68" on="1"/>
        <pt x="140" y="158" on="0"/>
        <pt x="140" y="312" on="1"/>
        <pt x="140" y="454" on="0"/>
        <pt x="236" y="528" on="1"/>
        <pt x="320" y="592" on="0"/>
        <pt x="466" y="596" on="1"/>
        <pt x="748" y="606" on="1"/>
        <pt x="748" y="706" on="1"/>
        <pt x="748" y="823" on="0"/>
        <pt x="702" y="871" on="1"/>
        <pt x="652" y="925" on="0"/>
        <pt x="388" y="925" on="0"/>
        <pt x="274" y="870" on="1"/>
        <pt x="232" y="924" on="0"/>
        <pt x="225" y="996" on="1"/>
        <pt x="375" y="1064" on="0"/>
        <pt x="525" y="1064" on="1"/>
        <pt x="757" y="1064" on="0"/>
        <pt x="832" y="972" on="1"/>
        <pt x="856" y="944" on="0"/>
        <pt x="873" y="909" on="1"/>
        <pt x="951" y="1016" on="0"/>
        <pt x="1092" y="1052" on="1"/>
        <pt x="1137" y="1064" on="0"/>
        <pt x="1270" y="1064" on="0"/>
        <pt x="1411" y="1006" on="0"/>
        <pt x="1460" y="954" on="1"/>
        <pt x="1561" y="845" on="0"/>
        <pt x="1561" y="667" on="1"/>
        <pt x="1561" y="597" on="0"/>
        <pt x="1553" y="521" on="1"/>
        <pt x="904" y="501" on="1"/>
        <pt x="904" y="317" on="0"/>
        <pt x="1062" y="126" on="0"/>
        <pt x="1357" y="126" on="0"/>
        <pt x="1475" y="178" on="1"/>
        <pt x="1508" y="99" on="0"/>
        <pt x="1514" y="39" on="1"/>
        <pt x="1382" y="-20" on="0"/>
      </contour>
      <contour>
        <pt x="1415" y="637" on="1"/>
        <pt x="1415" y="762" on="0"/>
        <pt x="1358" y="842" on="1"/>
        <pt x="1300" y="925" on="0"/>
        <pt x="1204" y="925" on="1"/>
        <pt x="1019" y="925" on="0"/>
        <pt x="944" y="744" on="1"/>
        <pt x="921" y="687" on="0"/>
        <pt x="912" y="617" on="1"/>
      </contour>
      <contour>
        <pt x="798" y="231" on="1"/>
        <pt x="748" y="348" on="0"/>
        <pt x="748" y="484" on="1"/>
        <pt x="486" y="474" on="1"/>
        <pt x="392" y="469" on="0"/>
        <pt x="316" y="393" on="0"/>
        <pt x="316" y="270" on="0"/>
        <pt x="351" y="195" on="0"/>
        <pt x="382" y="170" on="1"/>
        <pt x="443" y="122" on="0"/>
        <pt x="543" y="122" on="1"/>
        <pt x="689" y="122" on="0"/>
      </contour>
    </TTGlyph>
    <TTGlyph name="aeacute" xMin="140" yMin="-20" xMax="1561" yMax="1615">
      <component glyphName="ae" x="0" y="0" flags="0x1204"/>
      <component glyphName="acute" x="458" y="0" flags="0x1004"/>
    </TTGlyph>
    <TTGlyph name="agrave" xMin="88" yMin="-20" xMax="960" yMax="1615">
      <component glyphName="a" x="0" y="0" flags="0x1204"/>
      <component glyphName="grave" x="335" y="0" flags="0x1004"/>
    </TTGlyph>
    <TTGlyph name="amacron" xMin="88" yMin="-20" xMax="960" yMax="1501">
      <component glyphName="a" x="0" y="0" flags="0x1204"/>
      <component glyphName="macron" x="-47" y="0" flags="0x1004"/>
    </TTGlyph>
    <TTGlyph name="ampersand" xMin="133" yMin="-40" xMax="1318" yMax="1325">
      <contour>
        <pt x="969" y="128" on="1"/>
        <pt x="783" y="-40" on="0"/>
        <pt x="538" y="-40" on="1"/>
        <pt x="377" y="-40" on="0"/>
        <pt x="262" y="53" on="1"/>
        <pt x="133" y="158" on="0"/>
        <pt x="133" y="340" on="1"/>
        <pt x="133" y="458" on="0"/>
        <pt x="208" y="559" on="1"/>
        <pt x="276" y="649" on="0"/>
        <pt x="374" y="680" on="1"/>
        <pt x="391" y="710" on="1"/>
        <pt x="327" y="838" on="0"/>
        <pt x="327" y="1054" on="0"/>
        <pt x="384" y="1194" on="0"/>
        <pt x="433" y="1238" on="1"/>
        <pt x="528" y="1325" on="0"/>
        <pt x="686" y="1325" on="1"/>
        <pt x="808" y="1325" on="0"/>
        <pt x="906" y="1256" on="1"/>
        <pt x="949" y="1225" on="0"/>
        <pt x="979" y="1187" on="1"/>
        <pt x="952" y="1124" on="0"/>
        <pt x="876" y="1079" on="1"/>
        <pt x="798" y="1167" on="0"/>
        <pt x="701" y="1167" on="1"/>
        <pt x="511" y="1167" on="0"/>
        <pt x="511" y="964" on="1"/>
        <pt x="511" y="781" on="0"/>
        <pt x="666" y="602" on="1"/>
        <pt x="777" y="474" on="0"/>
        <pt x="962" y="338" on="1"/>
        <pt x="1052" y="448" on="0"/>
        <pt x="1136" y="601" on="1"/>
        <pt x="1216" y="565" on="0"/>
        <pt x="1264" y="511" on="1"/>
        <pt x="1165" y="350" on="0"/>
        <pt x="1085" y="252" on="1"/>
        <pt x="1234" y="155" on="0"/>
        <pt x="1318" y="107" on="1"/>
        <pt x="1297" y="4" on="0"/>
        <pt x="1239" y="-36" on="1"/>
        <pt x="1163" y="6" on="0"/>
        <pt x="1096" y="47" on="1"/>
      </contour>
      <contour>
        <pt x="842" y="217" on="1"/>
        <pt x="574" y="417" on="0"/>
        <pt x="442" y="622" on="1"/>
        <pt x="384" y="588" on="0"/>
        <pt x="317" y="455" on="0"/>
        <pt x="317" y="311" on="0"/>
        <pt x="356" y="218" on="0"/>
        <pt x="391" y="186" on="1"/>
        <pt x="464" y="118" on="0"/>
        <pt x="587" y="118" on="1"/>
        <pt x="719" y="118" on="0"/>
      </contour>
    </TTGlyph>
    <TTGlyph name="aogonek" xMin="88" yMin="-371" xMax="974" yMax="1064">
      <contour>
        <pt x="962" y="-182" on="1"/>
        <pt x="974" y="-221" on="0"/>
        <pt x="974" y="-271" on="1"/>
        <pt x="974" y="-322" on="0"/>
        <pt x="962" y="-366" on="1"/>
        <pt x="950" y="-371" on="0"/>
        <pt x="898" y="-371" on="1"/>
        <pt x="770" y="-371" on="0"/>
        <pt x="634" y="-262" on="0"/>
        <pt x="634" y="-169" on="1"/>
        <pt x="634" y="-103" on="0"/>
        <pt x="683" y="-34" on="1"/>
        <pt x="723" y="22" on="0"/>
        <pt x="761" y="37" on="1"/>
        <pt x="960" y="0" on="1"/>
        <pt x="772" y="0" on="0"/>
        <pt x="772" y="-109" on="1"/>
        <pt x="772" y="-146" on="0"/>
        <pt x="844" y="-189" on="0"/>
        <pt x="932" y="-189" on="0"/>
      </contour>
      <contour>
        <pt x="643" y="71" on="1"/>
        <pt x="559" y="-20" on="0"/>
        <pt x="404" y="-20" on="1"/>
        <pt x="262" y="-20" on="0"/>
        <pt x="174" y="66" on="1"/>
        <pt x="88" y="150" on="0"/>
        <pt x="88" y="286" on="1"/>
        <pt x="88" y="517" on="0"/>
        <pt x="288" y="573" on="1"/>
        <pt x="352" y="591" on="0"/>
        <pt x="434" y="596" on="1"/>
        <pt x="686" y="610" on="1"/>
        <pt x="686" y="706" on="1"/>
        <pt x="686" y="824" on="0"/>
        <pt x="638" y="874" on="1"/>
        <pt x="589" y="925" on="0"/>
        <pt x="321" y="925" on="0"/>
        <pt x="202" y="858" on="1"/>
        <pt x="162" y="912" on="0"/>
        <pt x="151" y="986" on="1"/>
        <pt x="314" y="1064" on="0"/>
        <pt x="589" y="1064" on="0"/>
        <pt x="735" y="1019" on="0"/>
        <pt x="778" y="976" on="1"/>
        <pt x="858" y="896" on="0"/>
        <pt x="858" y="720" on="1"/>
        <pt x="858" y="154" on="1"/>
        <pt x="960" y="50" on="1"/>
        <pt x="960" y="0" on="1"/>
        <pt x="787" y="0" on="1"/>
        <pt x="707" y="71" on="1"/>
      </contour>
      <contour>
        <pt x="473" y="122" on="1"/>
        <pt x="603" y="122" on="0"/>
        <pt x="686" y="195" on="1"/>
        <pt x="686" y="489" on="1"/>
        <pt x="455" y="474" on="1"/>
        <pt x="264" y="464" on="0"/>
        <pt x="264" y="296" on="1"/>
        <pt x="264" y="156" on="0"/>
        <pt x="388" y="130" on="1"/>
        <pt x="426" y="122" on="0"/>
      </contour>
    </TTGlyph>
    <TTGlyph name="approxequal" xMin="115" yMin="140" xMax="1081" yMax="879">
      <component glyphName="asciitilde" x="0" y="120" flags="0x1204"/>
      <component glyphName="asciitilde" x="0" y="-309" flags="0x1004"/>
    </TTGlyph>
    <TTGlyph name="aring" xMin="88" yMin="-20" xMax="960" yMax="1575">
      <component glyphName="a" x="0" y="0" flags="0x1204"/>
      <component glyphName="ring" x="203" y="0" flags="0x1004"/>
    </TTGlyph>
    <TTGlyph name="asciicircum" xMin="74" yMin="115" xMax="1121" yMax="1190">
      <contour>
        <pt x="534" y="1190" on="1"/>
        <pt x="661" y="1190" on="1"/>
        <pt x="1121" y="177" on="1"/>
        <pt x="986" y="115" on="1"/>
        <pt x="626" y="908" on="1"/>
        <pt x="597" y="1001" on="1"/>
        <pt x="567" y="905" on="1"/>
        <pt x="209" y="115" on="1"/>
        <pt x="74" y="177" on="1"/>
      </contour>
    </TTGlyph>
    <TTGlyph name="asciitilde" xMin="115" yMin="449" xMax="1081" yMax="759">
      <contour>
        <pt x="399" y="617" on="1"/>
        <pt x="316" y="617" on="0"/>
        <pt x="217" y="471" on="1"/>
        <pt x="151" y="501" on="0"/>
        <pt x="115" y="550" on="1"/>
        <pt x="223" y="710" on="0"/>
        <pt x="346" y="750" on="1"/>
        <pt x="374" y="759" on="0"/>
        <pt x="445" y="759" on="0"/>
        <pt x="521" y="734" on="0"/>
        <pt x="590" y="697" on="0"/>
        <pt x="653" y="653" on="0"/>
        <pt x="683" y="634" on="1"/>
        <pt x="754" y="591" on="0"/>
        <pt x="801" y="591" on="1"/>
        <pt x="901" y="591" on="0"/>
        <pt x="979" y="737" on="1"/>
        <pt x="1048" y="708" on="0"/>
        <pt x="1081" y="658" on="1"/>
        <pt x="976" y="499" on="0"/>
        <pt x="850" y="458" on="1"/>
        <pt x="822" y="449" on="0"/>
        <pt x="750" y="449" on="0"/>
        <pt x="678" y="474" on="0"/>
        <pt x="612" y="511" on="0"/>
        <pt x="553" y="555" on="0"/>
        <pt x="523" y="574" on="1"/>
        <pt x="452" y="617" on="0"/>
      </contour>
    </TTGlyph>
    <TTGlyph name="asterisk" xMin="320" yMin="506" xMax="1161" yMax="1366">
      <contour>
        <pt x="706" y="783" on="1"/>
        <pt x="584" y="663" on="0"/>
        <pt x="429" y="597" on="1"/>
        <pt x="383" y="617" on="0"/>
        <pt x="370" y="670" on="1"/>
        <pt x="406" y="702" on="0"/>
        <pt x="440" y="736" on="1"/>
        <pt x="512" y="811" on="1"/>
        <pt x="549" y="851" on="0"/>
        <pt x="582" y="894" on="1"/>
        <pt x="418" y="979" on="0"/>
        <pt x="320" y="1100" on="1"/>
        <pt x="330" y="1152" on="0"/>
        <pt x="372" y="1179" on="1"/>
        <pt x="460" y="1131" on="1"/>
        <pt x="548" y="1088" on="1"/>
        <pt x="598" y="1064" on="0"/>
        <pt x="649" y="1045" on="1"/>
        <pt x="680" y="1221" on="0"/>
        <pt x="766" y="1359" on="1"/>
        <pt x="814" y="1366" on="0"/>
        <pt x="857" y="1334" on="1"/>
        <pt x="820" y="1160" on="0"/>
        <pt x="815" y="1027" on="1"/>
        <pt x="885" y="1037" on="0"/>
        <pt x="939" y="1037" on="1"/>
        <pt x="1057" y="1037" on="0"/>
        <pt x="1149" y="1015" on="1"/>
        <pt x="1161" y="987" on="0"/>
        <pt x="1161" y="942" on="0"/>
        <pt x="1154" y="922" on="1"/>
        <pt x="971" y="899" on="0"/>
        <pt x="849" y="864" on="1"/>
        <pt x="926" y="709" on="0"/>
        <pt x="941" y="544" on="1"/>
        <pt x="900" y="506" on="0"/>
        <pt x="854" y="511" on="1"/>
        <pt x="783" y="668" on="0"/>
      </contour>
    </TTGlyph>
    <TTGlyph name="at" xMin="185" yMin="-362" xMax="1863" yMax="1344">
      <contour>
        <pt x="988" y="-248" on="1"/>
        <pt x="1212" y="-248" on="0"/>
        <pt x="1344" y="-161" on="1"/>
        <pt x="1390" y="-200" on="0"/>
        <pt x="1400" y="-249" on="1"/>
        <pt x="1313" y="-311" on="0"/>
        <pt x="1074" y="-362" on="0"/>
        <pt x="835" y="-362" on="0"/>
        <pt x="617" y="-302" on="0"/>
        <pt x="444" y="-197" on="0"/>
        <pt x="314" y="-53" on="0"/>
        <pt x="271" y="30" on="1"/>
        <pt x="185" y="198" on="0"/>
        <pt x="185" y="560" on="0"/>
        <pt x="265" y="833" on="0"/>
        <pt x="403" y="1045" on="0"/>
        <pt x="587" y="1198" on="0"/>
        <pt x="691" y="1248" on="1"/>
        <pt x="894" y="1344" on="0"/>
        <pt x="1121" y="1344" on="1"/>
        <pt x="1445" y="1344" on="0"/>
        <pt x="1650" y="1156" on="1"/>
        <pt x="1863" y="962" on="0"/>
        <pt x="1863" y="643" on="1"/>
        <pt x="1863" y="382" on="0"/>
        <pt x="1748" y="203" on="1"/>
        <pt x="1627" y="16" on="0"/>
        <pt x="1263" y="16" on="0"/>
        <pt x="1166" y="178" on="1"/>
        <pt x="1104" y="178" on="1"/>
        <pt x="1030" y="104" on="0"/>
        <pt x="916" y="104" on="1"/>
        <pt x="735" y="104" on="0"/>
        <pt x="671" y="282" on="1"/>
        <pt x="649" y="344" on="0"/>
        <pt x="649" y="549" on="0"/>
        <pt x="713" y="738" on="0"/>
        <pt x="767" y="804" on="1"/>
        <pt x="877" y="939" on="0"/>
        <pt x="1037" y="939" on="1"/>
        <pt x="1134" y="939" on="0"/>
        <pt x="1203" y="915" on="1"/>
        <pt x="1207" y="945" on="1"/>
        <pt x="1346" y="945" on="1"/>
        <pt x="1272" y="232" on="1"/>
        <pt x="1301" y="162" on="0"/>
        <pt x="1373" y="137" on="1"/>
        <pt x="1393" y="130" on="0"/>
        <pt x="1473" y="130" on="0"/>
        <pt x="1583" y="187" on="0"/>
        <pt x="1624" y="249" on="1"/>
        <pt x="1713" y="384" on="0"/>
        <pt x="1713" y="650" on="1"/>
        <pt x="1713" y="919" on="0"/>
        <pt x="1548" y="1074" on="1"/>
        <pt x="1383" y="1229" on="0"/>
        <pt x="1109" y="1229" on="1"/>
        <pt x="766" y="1229" on="0"/>
        <pt x="550" y="1002" on="1"/>
        <pt x="335" y="775" on="0"/>
        <pt x="335" y="421" on="1"/>
        <pt x="335" y="119" on="0"/>
        <pt x="510" y="-63" on="1"/>
        <pt x="687" y="-248" on="0"/>
      </contour>
      <contour>
        <pt x="1190" y="816" on="1"/>
        <pt x="1147" y="836" on="0"/>
        <pt x="1014" y="836" on="0"/>
        <pt x="917" y="780" on="0"/>
        <pt x="880" y="730" on="1"/>
        <pt x="799" y="619" on="0"/>
        <pt x="799" y="454" on="1"/>
        <pt x="799" y="283" on="0"/>
        <pt x="908" y="238" on="1"/>
        <pt x="942" y="225" on="0"/>
        <pt x="988" y="225" on="1"/>
        <pt x="1067" y="225" on="0"/>
        <pt x="1112" y="265" on="1"/>
        <pt x="1132" y="283" on="0"/>
        <pt x="1141" y="306" on="1"/>
      </contour>
    </TTGlyph>
    <TTGlyph name="atilde" xMin="88" yMin="-20" xMax="960" yMax="1510">
      <component glyphName="a" x="0" y="0" flags="0x1204"/>
      <component glyphName="tilde" x="15" y="0" flags="0x1004"/>
    </TTGlyph>
    <TTGlyph name="b" xMin="192" yMin="-20" xMax="1073" yMax="1420">
      <contour>
        <pt x="192" y="20" on="1"/>
        <pt x="192" y="1420" on="1"/>
        <pt x="364" y="1420" on="1"/>
        <pt x="364" y="973" on="1"/>
        <pt x="407" y="973" on="1"/>
        <pt x="516" y="1064" on="0"/>
        <pt x="672" y="1064" on="1"/>
        <pt x="949" y="1064" on="0"/>
        <pt x="1040" y="787" on="1"/>
        <pt x="1073" y="685" on="0"/>
        <pt x="1073" y="394" on="0"/>
        <pt x="991" y="187" on="0"/>
        <pt x="922" y="118" on="1"/>
        <pt x="782" y="-20" on="0"/>
        <pt x="330" y="-20" on="0"/>
      </contour>
      <contour>
        <pt x="698" y="904" on="1"/>
        <pt x="637" y="923" on="0"/>
        <pt x="463" y="923" on="0"/>
        <pt x="364" y="857" on="1"/>
        <pt x="364" y="142" on="1"/>
        <pt x="421" y="112" on="0"/>
        <pt x="610" y="112" on="0"/>
        <pt x="748" y="168" on="0"/>
        <pt x="795" y="222" on="1"/>
        <pt x="891" y="332" on="0"/>
        <pt x="891" y="532" on="1"/>
        <pt x="891" y="845" on="0"/>
      </contour>
    </TTGlyph>
    <TTGlyph name="backslash" xMin="48" yMin="-236" xMax="807" yMax="1385">
      <contour>
        <pt x="48" y="1328" on="1"/>
        <pt x="90" y="1378" on="0"/>
        <pt x="180" y="1385" on="1"/>
        <pt x="807" y="-178" on="1"/>
        <pt x="755" y="-225" on="0"/>
        <pt x="673" y="-236" on="1"/>
      </contour>
    </TTGlyph>
    <TTGlyph name="bar" xMin="170" yMin="-170" xMax="342" yMax="1530">
      <contour>
        <pt x="170" y="1530" on="1"/>
        <pt x="342" y="1530" on="1"/>
        <pt x="342" y="-170" on="1"/>
        <pt x="170" y="-170" on="1"/>
      </contour>
    </TTGlyph>
    <TTGlyph name="braceleft" xMin="171" yMin="-276" xMax="683" yMax="1596">
      <contour>
        <pt x="683" y="-172" on="1"/>
        <pt x="681" y="-239" on="0"/>
        <pt x="640" y="-276" on="1"/>
        <pt x="402" y="-247" on="0"/>
        <pt x="332" y="-45" on="1"/>
        <pt x="307" y="25" on="0"/>
        <pt x="307" y="157" on="0"/>
        <pt x="319" y="235" on="0"/>
        <pt x="326" y="274" on="1"/>
        <pt x="347" y="382" on="0"/>
        <pt x="347" y="500" on="0"/>
        <pt x="317" y="570" on="0"/>
        <pt x="293" y="587" on="1"/>
        <pt x="259" y="611" on="0"/>
        <pt x="178" y="611" on="1"/>
        <pt x="171" y="637" on="0"/>
        <pt x="171" y="708" on="0"/>
        <pt x="178" y="739" on="1"/>
        <pt x="258" y="739" on="0"/>
        <pt x="288" y="758" on="1"/>
        <pt x="346" y="797" on="0"/>
        <pt x="346" y="900" on="1"/>
        <pt x="346" y="949" on="0"/>
        <pt x="333" y="1022" on="1"/>
        <pt x="308" y="1161" on="0"/>
        <pt x="308" y="1303" on="0"/>
        <pt x="357" y="1439" on="0"/>
        <pt x="401" y="1486" on="1"/>
        <pt x="488" y="1579" on="0"/>
        <pt x="640" y="1596" on="1"/>
        <pt x="678" y="1558" on="0"/>
        <pt x="683" y="1489" on="1"/>
        <pt x="468" y="1454" on="0"/>
        <pt x="468" y="1229" on="1"/>
        <pt x="468" y="1196" on="0"/>
        <pt x="472" y="1164" on="1"/>
        <pt x="482" y="1097" on="1"/>
        <pt x="496" y="1002" on="0"/>
        <pt x="496" y="874" on="0"/>
        <pt x="463" y="777" on="0"/>
        <pt x="440" y="750" on="1"/>
        <pt x="413" y="718" on="0"/>
        <pt x="354" y="694" on="1"/>
        <pt x="354" y="656" on="1"/>
        <pt x="421" y="621" on="0"/>
        <pt x="447" y="583" on="1"/>
        <pt x="497" y="510" on="0"/>
        <pt x="497" y="396" on="1"/>
        <pt x="497" y="352" on="0"/>
        <pt x="488" y="282" on="1"/>
        <pt x="469" y="147" on="0"/>
        <pt x="469" y="99" on="1"/>
        <pt x="469" y="-132" on="0"/>
      </contour>
    </TTGlyph>
    <TTGlyph name="braceright" xMin="171" yMin="-276" xMax="683" yMax="1596">
      <component glyphName="braceleft" x="854" y="0" scalex="-0.999938964844" scaley="1.0" flags="0x1004"/>
    </TTGlyph>
    <TTGlyph name="bracketleft" xMin="180" yMin="-339" xMax="590" yMax="1551">
      <contour>
        <pt x="180" y="1551" on="1"/>
        <pt x="590" y="1551" on="1"/>
        <pt x="590" y="1439" on="1"/>
        <pt x="362" y="1439" on="1"/>
        <pt x="362" y="-227" on="1"/>
        <pt x="590" y="-227" on="1"/>
        <pt x="590" y="-339" on="1"/>
        <pt x="180" y="-339" on="1"/>
      </contour>
    </TTGlyph>
    <TTGlyph name="bracketright" xMin="94" yMin="-339" xMax="504" yMax="1551">
      <contour>
        <pt x="321" y="-227" on="1"/>
        <pt x="321" y="1439" on="1"/>
        <pt x="94" y="1439" on="1"/>
        <pt x="94" y="1551" on="1"/>
        <pt x="504" y="1551" on="1"/>
        <pt x="504" y="-339" on="1"/>
        <pt x="94" y="-339" on="1"/>
        <pt x="94" y="-227" on="1"/>
      </contour>
    </TTGlyph>
    <TTGlyph name="breve" xMin="12" yMin="1190" xMax="668" yMax="1545">
      <contour>
        <pt x="529" y="1531" on="1"/>
        <pt x="564" y="1545" on="0"/>
        <pt x="636" y="1545" on="0"/>
        <pt x="668" y="1529" on="1"/>
        <pt x="668" y="1360" on="0"/>
        <pt x="568" y="1269" on="1"/>
        <pt x="480" y="1190" on="0"/>
        <pt x="340" y="1190" on="1"/>
        <pt x="119" y="1190" on="0"/>
        <pt x="40" y="1374" on="1"/>
        <pt x="12" y="1438" on="0"/>
        <pt x="12" y="1529" on="1"/>
        <pt x="48" y="1545" on="0"/>
        <pt x="116" y="1545" on="0"/>
        <pt x="151" y="1531" on="1"/>
        <pt x="151" y="1437" on="0"/>
        <pt x="251" y="1342" on="0"/>
        <pt x="340" y="1342" on="1"/>
        <pt x="429" y="1342" on="0"/>
        <pt x="529" y="1437" on="0"/>
      </contour>
    </TTGlyph>
    <TTGlyph name="breve.cap" xMin="14" yMin="1526" xMax="670" yMax="1881">
      <contour>
        <pt x="531" y="1867" on="1"/>
        <pt x="566" y="1881" on="0"/>
        <pt x="638" y="1881" on="0"/>
        <pt x="670" y="1865" on="1"/>
        <pt x="670" y="1696" on="0"/>
        <pt x="570" y="1605" on="1"/>
        <pt x="482" y="1526" on="0"/>
        <pt x="342" y="1526" on="1"/>
        <pt x="121" y="1526" on="0"/>
        <pt x="42" y="1710" on="1"/>
        <pt x="14" y="1774" on="0"/>
        <pt x="14" y="1865" on="1"/>
        <pt x="50" y="1881" on="0"/>
        <pt x="118" y="1881" on="0"/>
        <pt x="153" y="1867" on="1"/>
        <pt x="153" y="1781" on="0"/>
        <pt x="253" y="1678" on="0"/>
        <pt x="342" y="1678" on="1"/>
        <pt x="431" y="1678" on="0"/>
        <pt x="531" y="1781" on="0"/>
      </contour>
    </TTGlyph>
    <TTGlyph name="brokenbar" xMin="170" yMin="-170" xMax="342" yMax="1530">
      <contour>
        <pt x="170" y="1530" on="1"/>
        <pt x="342" y="1530" on="1"/>
        <pt x="342" y="850" on="1"/>
        <pt x="170" y="850" on="1"/>
      </contour>
      <contour>
        <pt x="170" y="510" on="1"/>
        <pt x="342" y="510" on="1"/>
        <pt x="342" y="-170" on="1"/>
        <pt x="170" y="-170" on="1"/>
      </contour>
    </TTGlyph>
    <TTGlyph name="bullet" xMin="162" yMin="371" xMax="515" yMax="724">
      <contour>
        <pt x="339" y="371" on="1"/>
        <pt x="266" y="371" on="0"/>
        <pt x="162" y="475" on="0"/>
        <pt x="162" y="547" on="1"/>
        <pt x="162" y="620" on="0"/>
        <pt x="266" y="724" on="0"/>
        <pt x="339" y="724" on="1"/>
        <pt x="411" y="724" on="0"/>
        <pt x="515" y="620" on="0"/>
        <pt x="515" y="547" on="1"/>
        <pt x="515" y="475" on="0"/>
        <pt x="411" y="371" on="0"/>
      </contour>
    </TTGlyph>
    <TTGlyph name="c" xMin="122" yMin="-20" xMax="893" yMax="1064">
      <contour>
        <pt x="430" y="175" on="0"/>
        <pt x="548" y="126" on="0"/>
        <pt x="743" y="126" on="0"/>
        <pt x="864" y="164" on="1"/>
        <pt x="893" y="98" on="0"/>
        <pt x="891" y="22" on="1"/>
        <pt x="740" y="-20" on="0"/>
        <pt x="507" y="-20" on="0"/>
        <pt x="322" y="47" on="0"/>
        <pt x="257" y="114" on="1"/>
        <pt x="122" y="253" on="0"/>
        <pt x="122" y="513" on="1"/>
        <pt x="122" y="773" on="0"/>
        <pt x="260" y="920" on="1"/>
        <pt x="393" y="1064" on="0"/>
        <pt x="622" y="1064" on="1"/>
        <pt x="731" y="1064" on="0"/>
        <pt x="885" y="1020" on="1"/>
        <pt x="874" y="945" on="0"/>
        <pt x="847" y="888" on="1"/>
        <pt x="732" y="925" on="0"/>
        <pt x="548" y="925" on="0"/>
        <pt x="430" y="862" on="0"/>
        <pt x="389" y="806" on="1"/>
        <pt x="304" y="691" on="0"/>
        <pt x="304" y="513" on="1"/>
        <pt x="304" y="326" on="0"/>
        <pt x="389" y="224" on="1"/>
      </contour>
    </TTGlyph>
    <TTGlyph name="cacute" xMin="122" yMin="-20" xMax="893" yMax="1615">
      <component glyphName="c" x="0" y="0" flags="0x1204"/>
      <component glyphName="acute" x="198" y="0" flags="0x1004"/>
    </TTGlyph>
    <TTGlyph name="caron" xMin="170" yMin="1193" xMax="854" yMax="1630">
      <contour>
        <pt x="170" y="1630" on="1"/>
        <pt x="327" y="1630" on="1"/>
        <pt x="491" y="1309" on="1"/>
        <pt x="536" y="1309" on="1"/>
        <pt x="696" y="1630" on="1"/>
        <pt x="854" y="1630" on="1"/>
        <pt x="627" y="1193" on="1"/>
        <pt x="387" y="1193" on="1"/>
      </contour>
    </TTGlyph>
    <TTGlyph name="caron.cap" xMin="-1" yMin="1530" xMax="678" yMax="1869">
      <contour>
        <pt x="-1" y="1869" on="1"/>
        <pt x="156" y="1869" on="1"/>
        <pt x="319" y="1646" on="1"/>
        <pt x="370" y="1646" on="1"/>
        <pt x="520" y="1869" on="1"/>
        <pt x="678" y="1869" on="1"/>
        <pt x="455" y="1530" on="1"/>
        <pt x="215" y="1530" on="1"/>
      </contour>
    </TTGlyph>
    <TTGlyph name="caronvertical" xMin="140" yMin="1005" xMax="340" yMax="1443">
      <contour>
        <pt x="140" y="1023" on="1"/>
        <pt x="169" y="1128" on="0"/>
        <pt x="169" y="1342" on="0"/>
        <pt x="144" y="1422" on="1"/>
        <pt x="145" y="1422" on="0"/>
        <pt x="163" y="1429" on="0"/>
        <pt x="177" y="1433" on="1"/>
        <pt x="212" y="1443" on="0"/>
        <pt x="240" y="1443" on="1"/>
        <pt x="296" y="1443" on="0"/>
        <pt x="330" y="1421" on="1"/>
        <pt x="340" y="1369" on="0"/>
        <pt x="340" y="1310" on="1"/>
        <pt x="340" y="1159" on="0"/>
        <pt x="259" y="1012" on="1"/>
        <pt x="234" y="1005" on="0"/>
        <pt x="213" y="1005" on="1"/>
        <pt x="168" y="1005" on="0"/>
      </contour>
    </TTGlyph>
    <TTGlyph name="ccaron" xMin="122" yMin="-20" xMax="961" yMax="1630">
      <component glyphName="c" x="0" y="0" flags="0x1204"/>
      <component glyphName="caron" x="107" y="0" flags="0x1004"/>
    </TTGlyph>
    <TTGlyph name="ccedilla" xMin="122" yMin="-371" xMax="893" yMax="1064">
      <component glyphName="c" x="0" y="0" flags="0x1204"/>
      <component glyphName="cedilla" x="367" y="0" flags="0x1004"/>
    </TTGlyph>
    <TTGlyph name="ccircumflex" xMin="122" yMin="-20" xMax="961" yMax="1630">
      <component glyphName="c" x="0" y="0" flags="0x1204"/>
      <component glyphName="circumflex" x="107" y="0" flags="0x1004"/>
    </TTGlyph>
    <TTGlyph name="cdotaccent" xMin="122" yMin="-20" xMax="893" yMax="1457">
      <component glyphName="c" x="0" y="0" flags="0x1204"/>
      <component glyphName="dotaccent" x="356" y="0" flags="0x1004"/>
    </TTGlyph>
    <TTGlyph name="cedilla" xMin="-14" yMin="-371" xMax="326" yMax="40">
      <contour>
        <pt x="166" y="-132" on="0"/>
        <pt x="182" y="-84" on="0"/>
        <pt x="182" y="-16" on="0"/>
        <pt x="169" y="40" on="1"/>
        <pt x="297" y="40" on="1"/>
        <pt x="326" y="-22" on="0"/>
        <pt x="326" y="-162" on="0"/>
        <pt x="291" y="-257" on="0"/>
        <pt x="258" y="-293" on="1"/>
        <pt x="185" y="-371" on="0"/>
        <pt x="62" y="-371" on="1"/>
        <pt x="10" y="-371" on="0"/>
        <pt x="-2" y="-366" on="1"/>
        <pt x="-14" y="-322" on="0"/>
        <pt x="-14" y="-271" on="1"/>
        <pt x="-14" y="-221" on="0"/>
        <pt x="-2" y="-182" on="1"/>
        <pt x="28" y="-189" on="0"/>
        <pt x="81" y="-189" on="0"/>
        <pt x="132" y="-168" on="0"/>
      </contour>
    </TTGlyph>
    <TTGlyph name="cedilla.cap" xMin="-14" yMin="-371" xMax="321" yMax="40">
      <contour>
        <pt x="-2" y="-182" on="1"/>
        <pt x="28" y="-189" on="0"/>
        <pt x="86" y="-189" on="0"/>
        <pt x="139" y="-163" on="0"/>
        <pt x="154" y="-143" on="1"/>
        <pt x="182" y="-108" on="0"/>
        <pt x="182" y="-31" on="0"/>
        <pt x="180" y="-15" on="1"/>
        <pt x="175" y="13" on="1"/>
        <pt x="169" y="40" on="1"/>
        <pt x="297" y="40" on="1"/>
        <pt x="321" y="-11" on="0"/>
        <pt x="321" y="-126" on="0"/>
        <pt x="277" y="-233" on="0"/>
        <pt x="238" y="-276" on="1"/>
        <pt x="152" y="-371" on="0"/>
        <pt x="32" y="-371" on="1"/>
        <pt x="15" y="-371" on="1"/>
        <pt x="6" y="-371" on="0"/>
        <pt x="-2" y="-369" on="1"/>
        <pt x="-14" y="-321" on="0"/>
        <pt x="-14" y="-271" on="1"/>
        <pt x="-14" y="-221" on="0"/>
      </contour>
    </TTGlyph>
    <TTGlyph name="cent" xMin="122" yMin="-215" xMax="893" yMax="1263">
      <contour>
        <pt x="669" y="-207" on="1"/>
        <pt x="637" y="-215" on="0"/>
        <pt x="562" y="-215" on="0"/>
        <pt x="528" y="-203" on="1"/>
        <pt x="528" y="-13" on="1"/>
        <pt x="234" y="24" on="0"/>
        <pt x="150" y="302" on="1"/>
        <pt x="122" y="394" on="0"/>
        <pt x="122" y="513" on="1"/>
        <pt x="122" y="748" on="0"/>
        <pt x="236" y="892" on="1"/>
        <pt x="346" y="1032" on="0"/>
        <pt x="539" y="1058" on="1"/>
        <pt x="539" y="1252" on="1"/>
        <pt x="594" y="1263" on="0"/>
        <pt x="650" y="1263" on="0"/>
        <pt x="680" y="1249" on="1"/>
        <pt x="680" y="1061" on="1"/>
        <pt x="779" y="1051" on="0"/>
        <pt x="885" y="1020" on="1"/>
        <pt x="874" y="945" on="0"/>
        <pt x="847" y="888" on="1"/>
        <pt x="732" y="925" on="0"/>
        <pt x="548" y="925" on="0"/>
        <pt x="430" y="862" on="0"/>
        <pt x="389" y="806" on="1"/>
        <pt x="304" y="691" on="0"/>
        <pt x="304" y="513" on="1"/>
        <pt x="304" y="326" on="0"/>
        <pt x="389" y="224" on="1"/>
        <pt x="471" y="126" on="0"/>
        <pt x="743" y="126" on="0"/>
        <pt x="864" y="164" on="1"/>
        <pt x="893" y="98" on="0"/>
        <pt x="891" y="22" on="1"/>
        <pt x="772" y="-10" on="0"/>
        <pt x="669" y="-18" on="1"/>
      </contour>
    </TTGlyph>
    <TTGlyph name="circumflex" xMin="170" yMin="1193" xMax="854" yMax="1630">
      <contour>
        <pt x="397" y="1630" on="1"/>
        <pt x="637" y="1630" on="1"/>
        <pt x="854" y="1193" on="1"/>
        <pt x="691" y="1193" on="1"/>
        <pt x="527" y="1514" on="1"/>
        <pt x="494" y="1514" on="1"/>
        <pt x="324" y="1193" on="1"/>
        <pt x="170" y="1193" on="1"/>
      </contour>
    </TTGlyph>
    <TTGlyph name="circumflex.cap" xMin="1" yMin="1529" xMax="685" yMax="1870">
      <contour>
        <pt x="228" y="1870" on="1"/>
        <pt x="468" y="1870" on="1"/>
        <pt x="685" y="1529" on="1"/>
        <pt x="522" y="1529" on="1"/>
        <pt x="358" y="1754" on="1"/>
        <pt x="325" y="1754" on="1"/>
        <pt x="155" y="1529" on="1"/>
        <pt x="1" y="1529" on="1"/>
      </contour>
    </TTGlyph>
    <TTGlyph name="colon" xMin="128" yMin="-1" xMax="384" yMax="998">
      <component glyphName="period" x="0" y="0" flags="0x1204"/>
      <component glyphName="period" x="0" y="742" flags="0x1004"/>
    </TTGlyph>
    <TTGlyph name="comma" xMin="60" yMin="-251" xMax="380" yMax="174">
      <contour>
        <pt x="60" y="-201" on="1"/>
        <pt x="187" y="-14" on="0"/>
        <pt x="197" y="174" on="1"/>
        <pt x="329" y="174" on="0"/>
        <pt x="380" y="108" on="1"/>
        <pt x="360" y="-30" on="0"/>
        <pt x="262" y="-155" on="1"/>
        <pt x="219" y="-210" on="0"/>
        <pt x="168" y="-251" on="1"/>
        <pt x="96" y="-248" on="0"/>
      </contour>
    </TTGlyph>
    <TTGlyph name="commaaccent" xMin="61" yMin="-540" xMax="371" yMax="-155">
      <contour>
        <pt x="61" y="-490" on="1"/>
        <pt x="178" y="-341" on="0"/>
        <pt x="188" y="-155" on="1"/>
        <pt x="320" y="-155" on="0"/>
        <pt x="371" y="-221" on="1"/>
        <pt x="351" y="-363" on="0"/>
        <pt x="268" y="-464" on="1"/>
        <pt x="231" y="-510" on="0"/>
        <pt x="189" y="-540" on="1"/>
        <pt x="97" y="-536" on="0"/>
      </contour>
    </TTGlyph>
    <TTGlyph name="commaaccent.cap" xMin="81" yMin="-540" xMax="391" yMax="-155">
      <contour>
        <pt x="81" y="-490" on="1"/>
        <pt x="198" y="-341" on="0"/>
        <pt x="208" y="-155" on="1"/>
        <pt x="340" y="-155" on="0"/>
        <pt x="391" y="-221" on="1"/>
        <pt x="371" y="-363" on="0"/>
        <pt x="288" y="-464" on="1"/>
        <pt x="251" y="-510" on="0"/>
        <pt x="209" y="-540" on="1"/>
        <pt x="117" y="-536" on="0"/>
      </contour>
    </TTGlyph>
    <TTGlyph name="copyright" xMin="186" yMin="3" xMax="1520" yMax="1336">
      <contour>
        <pt x="186" y="670" on="1"/>
        <pt x="186" y="944" on="0"/>
        <pt x="382" y="1141" on="1"/>
        <pt x="503" y="1263" on="0"/>
        <pt x="676" y="1312" on="1"/>
        <pt x="761" y="1336" on="0"/>
        <pt x="853" y="1336" on="1"/>
        <pt x="1032" y="1336" on="0"/>
        <pt x="1190" y="1245" on="1"/>
        <pt x="1339" y="1159" on="0"/>
        <pt x="1428" y="1006" on="1"/>
        <pt x="1520" y="850" on="0"/>
        <pt x="1520" y="670" on="1"/>
        <pt x="1520" y="395" on="0"/>
        <pt x="1324" y="198" on="1"/>
        <pt x="1203" y="76" on="0"/>
        <pt x="1030" y="27" on="1"/>
        <pt x="945" y="3" on="0"/>
        <pt x="853" y="3" on="1"/>
        <pt x="674" y="3" on="0"/>
        <pt x="516" y="94" on="1"/>
        <pt x="367" y="180" on="0"/>
        <pt x="278" y="333" on="1"/>
        <pt x="186" y="489" on="0"/>
      </contour>
      <contour>
        <pt x="276" y="650" on="1"/>
        <pt x="276" y="550" on="0"/>
        <pt x="367" y="340" on="0"/>
        <pt x="445" y="262" on="1"/>
        <pt x="612" y="93" on="0"/>
        <pt x="853" y="93" on="1"/>
        <pt x="1094" y="93" on="0"/>
        <pt x="1261" y="262" on="1"/>
        <pt x="1430" y="432" on="0"/>
        <pt x="1430" y="670" on="1"/>
        <pt x="1430" y="910" on="0"/>
        <pt x="1261" y="1078" on="1"/>
        <pt x="1091" y="1246" on="0"/>
        <pt x="853" y="1246" on="1"/>
        <pt x="615" y="1246" on="0"/>
        <pt x="445" y="1078" on="1"/>
        <pt x="276" y="910" on="0"/>
      </contour>
      <contour>
        <pt x="869" y="276" on="1"/>
        <pt x="531" y="276" on="0"/>
        <pt x="531" y="666" on="1"/>
        <pt x="531" y="859" on="0"/>
        <pt x="705" y="1070" on="0"/>
        <pt x="869" y="1070" on="1"/>
        <pt x="952" y="1070" on="0"/>
        <pt x="1046" y="1042" on="1"/>
        <pt x="1043" y="984" on="0"/>
        <pt x="1021" y="932" on="1"/>
        <pt x="953" y="957" on="0"/>
        <pt x="821" y="957" on="0"/>
        <pt x="745" y="914" on="0"/>
        <pt x="718" y="876" on="1"/>
        <pt x="664" y="796" on="0"/>
        <pt x="664" y="666" on="1"/>
        <pt x="664" y="471" on="0"/>
        <pt x="783" y="414" on="1"/>
        <pt x="821" y="395" on="0"/>
        <pt x="956" y="395" on="0"/>
        <pt x="1034" y="421" on="1"/>
        <pt x="1057" y="389" on="0"/>
        <pt x="1054" y="314" on="1"/>
        <pt x="1025" y="303" on="0"/>
        <pt x="996" y="295" on="1"/>
        <pt x="929" y="276" on="0"/>
      </contour>
    </TTGlyph>
    <TTGlyph name="currency" xMin="209" yMin="104" xMax="1322" yMax="1218">
      <contour>
        <pt x="1169" y="966" on="1"/>
        <pt x="1233" y="852" on="0"/>
        <pt x="1233" y="499" on="0"/>
        <pt x="1153" y="374" on="1"/>
        <pt x="1322" y="208" on="1"/>
        <pt x="1281" y="130" on="0"/>
        <pt x="1221" y="110" on="1"/>
        <pt x="1060" y="272" on="1"/>
        <pt x="945" y="184" on="0"/>
        <pt x="586" y="184" on="0"/>
        <pt x="471" y="268" on="1"/>
        <pt x="310" y="104" on="1"/>
        <pt x="241" y="146" on="0"/>
        <pt x="213" y="207" on="1"/>
        <pt x="377" y="369" on="1"/>
        <pt x="300" y="489" on="0"/>
        <pt x="300" y="846" on="0"/>
        <pt x="371" y="962" on="1"/>
        <pt x="209" y="1121" on="1"/>
        <pt x="249" y="1187" on="0"/>
        <pt x="312" y="1218" on="1"/>
        <pt x="462" y="1065" on="1"/>
        <pt x="583" y="1162" on="0"/>
        <pt x="961" y="1162" on="0"/>
        <pt x="1079" y="1071" on="1"/>
        <pt x="1223" y="1217" on="1"/>
        <pt x="1298" y="1178" on="0"/>
        <pt x="1321" y="1116" on="1"/>
      </contour>
      <contour>
        <pt x="1053" y="688" on="1"/>
        <pt x="1053" y="1029" on="0"/>
        <pt x="770" y="1029" on="1"/>
        <pt x="626" y="1029" on="0"/>
        <pt x="550" y="927" on="1"/>
        <pt x="481" y="833" on="0"/>
        <pt x="481" y="674" on="1"/>
        <pt x="481" y="417" on="0"/>
        <pt x="640" y="347" on="1"/>
        <pt x="695" y="323" on="0"/>
        <pt x="770" y="323" on="1"/>
        <pt x="912" y="323" on="0"/>
        <pt x="986" y="430" on="1"/>
        <pt x="1053" y="525" on="0"/>
      </contour>
    </TTGlyph>
    <TTGlyph name="d" xMin="131" yMin="-20" xMax="1114" yMax="1422">
      <contour>
        <pt x="798" y="71" on="1"/>
        <pt x="710" y="-20" on="0"/>
        <pt x="558" y="-20" on="1"/>
        <pt x="389" y="-20" on="0"/>
        <pt x="269" y="102" on="1"/>
        <pt x="131" y="244" on="0"/>
        <pt x="131" y="493" on="1"/>
        <pt x="131" y="766" on="0"/>
        <pt x="282" y="922" on="1"/>
        <pt x="421" y="1064" on="0"/>
        <pt x="638" y="1064" on="1"/>
        <pt x="770" y="1064" on="0"/>
        <pt x="840" y="1044" on="1"/>
        <pt x="840" y="1422" on="1"/>
        <pt x="1013" y="1422" on="1"/>
        <pt x="1013" y="154" on="1"/>
        <pt x="1114" y="50" on="1"/>
        <pt x="1114" y="0" on="1"/>
        <pt x="941" y="0" on="1"/>
        <pt x="860" y="71" on="1"/>
      </contour>
      <contour>
        <pt x="840" y="913" on="1"/>
        <pt x="790" y="933" on="0"/>
        <pt x="604" y="933" on="0"/>
        <pt x="462" y="873" on="0"/>
        <pt x="413" y="816" on="1"/>
        <pt x="313" y="701" on="0"/>
        <pt x="313" y="493" on="1"/>
        <pt x="313" y="122" on="0"/>
        <pt x="644" y="122" on="1"/>
        <pt x="744" y="122" on="0"/>
        <pt x="840" y="186" on="1"/>
      </contour>
    </TTGlyph>
    <TTGlyph name="dagger" xMin="153" yMin="-340" xMax="701" yMax="1530">
      <contour>
        <pt x="698" y="1014" on="1"/>
        <pt x="701" y="993" on="0"/>
        <pt x="701" y="915" on="0"/>
        <pt x="679" y="871" on="1"/>
        <pt x="514" y="871" on="1"/>
        <pt x="514" y="-340" on="1"/>
        <pt x="342" y="-340" on="1"/>
        <pt x="342" y="871" on="1"/>
        <pt x="157" y="871" on="1"/>
        <pt x="153" y="907" on="0"/>
        <pt x="153" y="943" on="1"/>
        <pt x="153" y="974" on="0"/>
        <pt x="157" y="1014" on="1"/>
        <pt x="342" y="1014" on="1"/>
        <pt x="342" y="1530" on="1"/>
        <pt x="514" y="1530" on="1"/>
        <pt x="514" y="1014" on="1"/>
      </contour>
    </TTGlyph>
    <TTGlyph name="daggerdbl" xMin="153" yMin="-342" xMax="701" yMax="1530">
      <contour>
        <pt x="698" y="316" on="1"/>
        <pt x="701" y="295" on="0"/>
        <pt x="701" y="217" on="0"/>
        <pt x="679" y="173" on="1"/>
        <pt x="514" y="173" on="1"/>
        <pt x="514" y="-342" on="1"/>
        <pt x="342" y="-342" on="1"/>
        <pt x="342" y="173" on="1"/>
        <pt x="157" y="173" on="1"/>
        <pt x="153" y="209" on="0"/>
        <pt x="153" y="245" on="1"/>
        <pt x="153" y="276" on="0"/>
        <pt x="157" y="316" on="1"/>
        <pt x="342" y="316" on="1"/>
        <pt x="342" y="871" on="1"/>
        <pt x="157" y="871" on="1"/>
        <pt x="153" y="907" on="0"/>
        <pt x="153" y="943" on="1"/>
        <pt x="153" y="974" on="0"/>
        <pt x="157" y="1014" on="1"/>
        <pt x="342" y="1014" on="1"/>
        <pt x="342" y="1530" on="1"/>
        <pt x="514" y="1530" on="1"/>
        <pt x="514" y="1014" on="1"/>
        <pt x="698" y="1014" on="1"/>
        <pt x="701" y="993" on="0"/>
        <pt x="701" y="915" on="0"/>
        <pt x="679" y="871" on="1"/>
        <pt x="514" y="871" on="1"/>
        <pt x="514" y="316" on="1"/>
      </contour>
    </TTGlyph>
    <TTGlyph name="dcaron" xMin="131" yMin="-20" xMax="1364" yMax="1443">
      <contour>
        <pt x="1164" y="1023" on="1"/>
        <pt x="1193" y="1128" on="0"/>
        <pt x="1193" y="1342" on="0"/>
        <pt x="1168" y="1422" on="1"/>
        <pt x="1169" y="1422" on="0"/>
        <pt x="1187" y="1429" on="0"/>
        <pt x="1201" y="1433" on="1"/>
        <pt x="1236" y="1443" on="0"/>
        <pt x="1264" y="1443" on="1"/>
        <pt x="1320" y="1443" on="0"/>
        <pt x="1354" y="1421" on="1"/>
        <pt x="1364" y="1369" on="0"/>
        <pt x="1364" y="1310" on="1"/>
        <pt x="1364" y="1159" on="0"/>
        <pt x="1283" y="1012" on="1"/>
        <pt x="1258" y="1005" on="0"/>
        <pt x="1237" y="1005" on="1"/>
        <pt x="1192" y="1005" on="0"/>
      </contour>
      <contour>
        <pt x="798" y="71" on="1"/>
        <pt x="710" y="-20" on="0"/>
        <pt x="558" y="-20" on="1"/>
        <pt x="389" y="-20" on="0"/>
        <pt x="269" y="102" on="1"/>
        <pt x="131" y="244" on="0"/>
        <pt x="131" y="493" on="1"/>
        <pt x="131" y="766" on="0"/>
        <pt x="282" y="922" on="1"/>
        <pt x="421" y="1064" on="0"/>
        <pt x="638" y="1064" on="1"/>
        <pt x="770" y="1064" on="0"/>
        <pt x="840" y="1044" on="1"/>
        <pt x="840" y="1422" on="1"/>
        <pt x="1013" y="1422" on="1"/>
        <pt x="1013" y="154" on="1"/>
        <pt x="1114" y="50" on="1"/>
        <pt x="1114" y="0" on="1"/>
        <pt x="941" y="0" on="1"/>
        <pt x="860" y="71" on="1"/>
      </contour>
      <contour>
        <pt x="840" y="913" on="1"/>
        <pt x="790" y="933" on="0"/>
        <pt x="604" y="933" on="0"/>
        <pt x="462" y="873" on="0"/>
        <pt x="413" y="816" on="1"/>
        <pt x="313" y="701" on="0"/>
        <pt x="313" y="493" on="1"/>
        <pt x="313" y="122" on="0"/>
        <pt x="644" y="122" on="1"/>
        <pt x="744" y="122" on="0"/>
        <pt x="840" y="186" on="1"/>
      </contour>
    </TTGlyph>
    <TTGlyph name="dcroat" xMin="131" yMin="-20" xMax="1172" yMax="1422">
      <contour>
        <pt x="676" y="1160" on="1"/>
        <pt x="667" y="1194" on="0"/>
        <pt x="667" y="1264" on="0"/>
        <pt x="676" y="1296" on="1"/>
        <pt x="1166" y="1296" on="1"/>
        <pt x="1172" y="1269" on="0"/>
        <pt x="1172" y="1196" on="0"/>
        <pt x="1160" y="1160" on="1"/>
      </contour>
      <contour>
        <pt x="798" y="71" on="1"/>
        <pt x="710" y="-20" on="0"/>
        <pt x="558" y="-20" on="1"/>
        <pt x="389" y="-20" on="0"/>
        <pt x="269" y="102" on="1"/>
        <pt x="131" y="244" on="0"/>
        <pt x="131" y="493" on="1"/>
        <pt x="131" y="766" on="0"/>
        <pt x="282" y="922" on="1"/>
        <pt x="421" y="1064" on="0"/>
        <pt x="638" y="1064" on="1"/>
        <pt x="770" y="1064" on="0"/>
        <pt x="840" y="1044" on="1"/>
        <pt x="840" y="1422" on="1"/>
        <pt x="1013" y="1422" on="1"/>
        <pt x="1013" y="154" on="1"/>
        <pt x="1114" y="50" on="1"/>
        <pt x="1114" y="0" on="1"/>
        <pt x="941" y="0" on="1"/>
        <pt x="860" y="71" on="1"/>
      </contour>
      <contour>
        <pt x="840" y="913" on="1"/>
        <pt x="790" y="933" on="0"/>
        <pt x="604" y="933" on="0"/>
        <pt x="462" y="873" on="0"/>
        <pt x="413" y="816" on="1"/>
        <pt x="313" y="701" on="0"/>
        <pt x="313" y="493" on="1"/>
        <pt x="313" y="122" on="0"/>
        <pt x="644" y="122" on="1"/>
        <pt x="744" y="122" on="0"/>
        <pt x="840" y="186" on="1"/>
      </contour>
    </TTGlyph>
    <TTGlyph name="degree" xMin="118" yMin="1045" xMax="734" yMax="1678">
      <contour>
        <pt x="425" y="1045" on="1"/>
        <pt x="359" y="1045" on="0"/>
        <pt x="248" y="1085" on="0"/>
        <pt x="206" y="1124" on="1"/>
        <pt x="118" y="1209" on="0"/>
        <pt x="118" y="1361" on="1"/>
        <pt x="118" y="1513" on="0"/>
        <pt x="206" y="1598" on="1"/>
        <pt x="291" y="1678" on="0"/>
        <pt x="423" y="1678" on="1"/>
        <pt x="562" y="1678" on="0"/>
        <pt x="646" y="1598" on="1"/>
        <pt x="734" y="1514" on="0"/>
        <pt x="734" y="1361" on="1"/>
        <pt x="734" y="1207" on="0"/>
        <pt x="646" y="1124" on="1"/>
        <pt x="564" y="1045" on="0"/>
      </contour>
      <contour>
        <pt x="424" y="1161" on="1"/>
        <pt x="463" y="1161" on="0"/>
        <pt x="531" y="1186" on="0"/>
        <pt x="556" y="1212" on="1"/>
        <pt x="609" y="1266" on="0"/>
        <pt x="609" y="1361" on="1"/>
        <pt x="609" y="1505" on="0"/>
        <pt x="497" y="1550" on="1"/>
        <pt x="463" y="1563" on="0"/>
        <pt x="385" y="1563" on="0"/>
        <pt x="320" y="1536" on="0"/>
        <pt x="296" y="1510" on="1"/>
        <pt x="244" y="1455" on="0"/>
        <pt x="244" y="1361" on="1"/>
        <pt x="244" y="1268" on="0"/>
        <pt x="296" y="1212" on="1"/>
        <pt x="344" y="1161" on="0"/>
      </contour>
    </TTGlyph>
    <TTGlyph name="dieresis" xMin="173" yMin="1225" xMax="847" yMax="1457">
      <contour>
        <pt x="730" y="1225" on="1"/>
        <pt x="683" y="1225" on="0"/>
        <pt x="658" y="1250" on="1"/>
        <pt x="615" y="1293" on="0"/>
        <pt x="615" y="1341" on="1"/>
        <pt x="615" y="1391" on="0"/>
        <pt x="640" y="1415" on="1"/>
        <pt x="684" y="1457" on="0"/>
        <pt x="730" y="1457" on="1"/>
        <pt x="806" y="1457" on="0"/>
        <pt x="838" y="1386" on="1"/>
        <pt x="847" y="1365" on="0"/>
        <pt x="847" y="1341" on="1"/>
        <pt x="847" y="1295" on="0"/>
        <pt x="822" y="1269" on="1"/>
        <pt x="780" y="1225" on="0"/>
      </contour>
      <contour>
        <pt x="288" y="1225" on="1"/>
        <pt x="241" y="1225" on="0"/>
        <pt x="216" y="1250" on="1"/>
        <pt x="173" y="1293" on="0"/>
        <pt x="173" y="1341" on="1"/>
        <pt x="173" y="1391" on="0"/>
        <pt x="198" y="1415" on="1"/>
        <pt x="242" y="1457" on="0"/>
        <pt x="288" y="1457" on="1"/>
        <pt x="364" y="1457" on="0"/>
        <pt x="396" y="1386" on="1"/>
        <pt x="405" y="1365" on="0"/>
        <pt x="405" y="1341" on="1"/>
        <pt x="405" y="1295" on="0"/>
        <pt x="380" y="1269" on="1"/>
        <pt x="338" y="1225" on="0"/>
      </contour>
    </TTGlyph>
    <TTGlyph name="dieresis.cap" xMin="-91" yMin="1528" xMax="579" yMax="1760">
      <contour>
        <pt x="462" y="1528" on="1"/>
        <pt x="415" y="1528" on="0"/>
        <pt x="390" y="1553" on="1"/>
        <pt x="347" y="1596" on="0"/>
        <pt x="347" y="1644" on="1"/>
        <pt x="347" y="1694" on="0"/>
        <pt x="372" y="1718" on="1"/>
        <pt x="416" y="1760" on="0"/>
        <pt x="462" y="1760" on="1"/>
        <pt x="538" y="1760" on="0"/>
        <pt x="570" y="1690" on="1"/>
        <pt x="579" y="1668" on="0"/>
        <pt x="579" y="1644" on="1"/>
        <pt x="579" y="1598" on="0"/>
        <pt x="554" y="1572" on="1"/>
        <pt x="512" y="1528" on="0"/>
      </contour>
      <contour>
        <pt x="24" y="1528" on="1"/>
        <pt x="-23" y="1528" on="0"/>
        <pt x="-48" y="1553" on="1"/>
        <pt x="-91" y="1596" on="0"/>
        <pt x="-91" y="1644" on="1"/>
        <pt x="-91" y="1694" on="0"/>
        <pt x="-66" y="1718" on="1"/>
        <pt x="-22" y="1760" on="0"/>
        <pt x="24" y="1760" on="1"/>
        <pt x="100" y="1760" on="0"/>
        <pt x="132" y="1690" on="1"/>
        <pt x="141" y="1668" on="0"/>
        <pt x="141" y="1644" on="1"/>
        <pt x="141" y="1598" on="0"/>
        <pt x="116" y="1572" on="1"/>
        <pt x="74" y="1528" on="0"/>
      </contour>
    </TTGlyph>
    <TTGlyph name="divide" xMin="222" yMin="-1" xMax="1313" yMax="1193">
      <contour>
        <pt x="222" y="676" on="1"/>
        <pt x="1313" y="676" on="1"/>
        <pt x="1313" y="523" on="1"/>
        <pt x="222" y="523" on="1"/>
      </contour>
      <contour>
        <pt x="639" y="128" on="1"/>
        <pt x="639" y="181" on="0"/>
        <pt x="666" y="208" on="1"/>
        <pt x="714" y="256" on="0"/>
        <pt x="767" y="256" on="1"/>
        <pt x="820" y="256" on="0"/>
        <pt x="848" y="228" on="1"/>
        <pt x="895" y="181" on="0"/>
        <pt x="895" y="128" on="1"/>
        <pt x="895" y="74" on="0"/>
        <pt x="868" y="46" on="1"/>
        <pt x="820" y="-1" on="0"/>
        <pt x="767" y="-1" on="1"/>
        <pt x="714" y="-1" on="0"/>
        <pt x="686" y="26" on="1"/>
        <pt x="639" y="74" on="0"/>
      </contour>
      <contour>
        <pt x="639" y="1065" on="1"/>
        <pt x="639" y="1118" on="0"/>
        <pt x="666" y="1146" on="1"/>
        <pt x="714" y="1193" on="0"/>
        <pt x="767" y="1193" on="1"/>
        <pt x="820" y="1193" on="0"/>
        <pt x="848" y="1166" on="1"/>
        <pt x="895" y="1118" on="0"/>
        <pt x="895" y="1065" on="1"/>
        <pt x="895" y="1011" on="0"/>
        <pt x="868" y="984" on="1"/>
        <pt x="820" y="936" on="0"/>
        <pt x="767" y="936" on="1"/>
        <pt x="714" y="936" on="0"/>
        <pt x="686" y="964" on="1"/>
        <pt x="639" y="1011" on="0"/>
      </contour>
    </TTGlyph>
    <TTGlyph name="dollar" xMin="159" yMin="-225" xMax="1035" yMax="1586">
      <contour>
        <pt x="520" y="-27" on="1"/>
        <pt x="325" y="-22" on="0"/>
        <pt x="159" y="43" on="1"/>
        <pt x="167" y="131" on="0"/>
        <pt x="198" y="203" on="1"/>
        <pt x="382" y="144" on="0"/>
        <pt x="617" y="144" on="0"/>
        <pt x="732" y="170" on="0"/>
        <pt x="767" y="196" on="1"/>
        <pt x="832" y="243" on="0"/>
        <pt x="832" y="350" on="1"/>
        <pt x="832" y="454" on="0"/>
        <pt x="786" y="497" on="1"/>
        <pt x="735" y="545" on="0"/>
        <pt x="459" y="613" on="0"/>
        <pt x="303" y="687" on="0"/>
        <pt x="255" y="735" on="1"/>
        <pt x="166" y="824" on="0"/>
        <pt x="166" y="979" on="1"/>
        <pt x="166" y="1331" on="0"/>
        <pt x="539" y="1379" on="1"/>
        <pt x="539" y="1575" on="1"/>
        <pt x="594" y="1586" on="0"/>
        <pt x="650" y="1586" on="0"/>
        <pt x="680" y="1572" on="1"/>
        <pt x="680" y="1384" on="1"/>
        <pt x="871" y="1376" on="0"/>
        <pt x="985" y="1310" on="1"/>
        <pt x="978" y="1240" on="0"/>
        <pt x="928" y="1166" on="1"/>
        <pt x="828" y="1227" on="0"/>
        <pt x="497" y="1227" on="0"/>
        <pt x="364" y="1124" on="0"/>
        <pt x="364" y="1016" on="1"/>
        <pt x="364" y="912" on="0"/>
        <pt x="415" y="866" on="1"/>
        <pt x="469" y="817" on="0"/>
        <pt x="747" y="745" on="0"/>
        <pt x="899" y="680" on="0"/>
        <pt x="946" y="635" on="1"/>
        <pt x="1035" y="551" on="0"/>
        <pt x="1035" y="383" on="1"/>
        <pt x="1035" y="108" on="0"/>
        <pt x="832" y="20" on="1"/>
        <pt x="761" y="-10" on="0"/>
        <pt x="661" y="-21" on="1"/>
        <pt x="661" y="-217" on="1"/>
        <pt x="629" y="-225" on="0"/>
        <pt x="554" y="-225" on="0"/>
        <pt x="520" y="-213" on="1"/>
      </contour>
    </TTGlyph>
    <TTGlyph name="dotaccent" xMin="146" yMin="1225" xMax="378" yMax="1457">
      <contour>
        <pt x="261" y="1225" on="1"/>
        <pt x="214" y="1225" on="0"/>
        <pt x="189" y="1250" on="1"/>
        <pt x="146" y="1293" on="0"/>
        <pt x="146" y="1341" on="1"/>
        <pt x="146" y="1391" on="0"/>
        <pt x="171" y="1415" on="1"/>
        <pt x="215" y="1457" on="0"/>
        <pt x="261" y="1457" on="1"/>
        <pt x="337" y="1457" on="0"/>
        <pt x="368" y="1386" on="1"/>
        <pt x="378" y="1365" on="0"/>
        <pt x="378" y="1341" on="1"/>
        <pt x="378" y="1295" on="0"/>
        <pt x="353" y="1269" on="1"/>
        <pt x="311" y="1225" on="0"/>
      </contour>
    </TTGlyph>
    <TTGlyph name="dotaccent.cap" xMin="127" yMin="1530" xMax="359" yMax="1762">
      <contour>
        <pt x="242" y="1530" on="1"/>
        <pt x="195" y="1530" on="0"/>
        <pt x="170" y="1555" on="1"/>
        <pt x="127" y="1598" on="0"/>
        <pt x="127" y="1646" on="1"/>
        <pt x="127" y="1696" on="0"/>
        <pt x="152" y="1720" on="1"/>
        <pt x="196" y="1762" on="0"/>
        <pt x="242" y="1762" on="1"/>
        <pt x="318" y="1762" on="0"/>
        <pt x="350" y="1692" on="1"/>
        <pt x="359" y="1670" on="0"/>
        <pt x="359" y="1646" on="1"/>
        <pt x="359" y="1600" on="0"/>
        <pt x="334" y="1574" on="1"/>
        <pt x="292" y="1530" on="0"/>
      </contour>
    </TTGlyph>
    <TTGlyph name="dotlessi" xMin="172" yMin="0" xMax="348" yMax="1021">
      <contour>
        <pt x="174" y="1021" on="1"/>
        <pt x="348" y="1021" on="1"/>
        <pt x="348" y="0" on="1"/>
        <pt x="172" y="0" on="1"/>
      </contour>
    </TTGlyph>
    <TTGlyph name="dotlessj" xMin="37" yMin="-416" xMax="350" yMax="1020">
      <contour>
        <pt x="176" y="1020" on="1"/>
        <pt x="350" y="1020" on="1"/>
        <pt x="350" y="-114" on="1"/>
        <pt x="350" y="-301" on="0"/>
        <pt x="206" y="-374" on="1"/>
        <pt x="155" y="-400" on="0"/>
        <pt x="83" y="-416" on="1"/>
        <pt x="44" y="-353" on="0"/>
        <pt x="37" y="-263" on="1"/>
        <pt x="116" y="-246" on="0"/>
        <pt x="138" y="-220" on="1"/>
        <pt x="176" y="-175" on="0"/>
        <pt x="176" y="-85" on="1"/>
      </contour>
    </TTGlyph>
    <TTGlyph name="e" xMin="153" yMin="-20" xMax="1036" yMax="1064">
      <contour>
        <pt x="947" y="39" on="1"/>
        <pt x="819" y="-20" on="0"/>
        <pt x="536" y="-20" on="0"/>
        <pt x="349" y="47" on="0"/>
        <pt x="284" y="114" on="1"/>
        <pt x="153" y="251" on="0"/>
        <pt x="153" y="513" on="1"/>
        <pt x="153" y="772" on="0"/>
        <pt x="286" y="920" on="1"/>
        <pt x="414" y="1064" on="0"/>
        <pt x="627" y="1064" on="1"/>
        <pt x="818" y="1064" on="0"/>
        <pt x="928" y="954" on="1"/>
        <pt x="1036" y="846" on="0"/>
        <pt x="1036" y="658" on="1"/>
        <pt x="1036" y="573" on="0"/>
        <pt x="1020" y="509" on="1"/>
        <pt x="335" y="509" on="1"/>
        <pt x="335" y="126" on="0"/>
        <pt x="655" y="126" on="1"/>
        <pt x="798" y="126" on="0"/>
        <pt x="909" y="178" on="1"/>
        <pt x="935" y="115" on="0"/>
      </contour>
      <contour>
        <pt x="868" y="635" on="1"/>
        <pt x="876" y="760" on="0"/>
        <pt x="812" y="840" on="1"/>
        <pt x="743" y="925" on="0"/>
        <pt x="627" y="925" on="1"/>
        <pt x="513" y="925" on="0"/>
        <pt x="357" y="765" on="0"/>
        <pt x="343" y="635" on="1"/>
      </contour>
    </TTGlyph>
    <TTGlyph name="eacute" xMin="153" yMin="-20" xMax="1036" yMax="1615">
      <component glyphName="e" x="0" y="0" flags="0x1204"/>
      <component glyphName="acute" x="211" y="0" flags="0x1004"/>
    </TTGlyph>
    <TTGlyph name="ebreve" xMin="153" yMin="-20" xMax="1036" yMax="1545">
      <component glyphName="e" x="0" y="0" flags="0x1204"/>
      <component glyphName="breve" x="290" y="0" flags="0x1004"/>
    </TTGlyph>
    <TTGlyph name="ecaron" xMin="153" yMin="-20" xMax="1036" yMax="1630">
      <component glyphName="e" x="0" y="0" flags="0x1204"/>
      <component glyphName="caron" x="120" y="0" flags="0x1004"/>
    </TTGlyph>
    <TTGlyph name="ecircumflex" xMin="153" yMin="-20" xMax="1036" yMax="1630">
      <component glyphName="e" x="0" y="0" flags="0x1204"/>
      <component glyphName="circumflex" x="120" y="0" flags="0x1004"/>
    </TTGlyph>
    <TTGlyph name="edieresis" xMin="153" yMin="-20" xMax="1036" yMax="1457">
      <component glyphName="e" x="0" y="0" flags="0x1204"/>
      <component glyphName="dieresis" x="120" y="0" flags="0x1004"/>
    </TTGlyph>
    <TTGlyph name="edotaccent" xMin="153" yMin="-20" xMax="1036" yMax="1457">
      <component glyphName="e" x="0" y="0" flags="0x1204"/>
      <component glyphName="dotaccent" x="369" y="0" flags="0x1004"/>
    </TTGlyph>
    <TTGlyph name="egrave" xMin="153" yMin="-20" xMax="1036" yMax="1615">
      <component glyphName="e" x="0" y="0" flags="0x1204"/>
      <component glyphName="grave" x="501" y="0" flags="0x1004"/>
    </TTGlyph>
    <TTGlyph name="eight" xMin="243" yMin="-20" xMax="1118" yMax="1338">
      <contour>
        <pt x="483" y="698" on="1"/>
        <pt x="280" y="768" on="0"/>
        <pt x="280" y="994" on="1"/>
        <pt x="280" y="1155" on="0"/>
        <pt x="494" y="1338" on="0"/>
        <pt x="682" y="1338" on="1"/>
        <pt x="863" y="1338" on="0"/>
        <pt x="970" y="1246" on="1"/>
        <pt x="1081" y="1153" on="0"/>
        <pt x="1081" y="994" on="1"/>
        <pt x="1081" y="830" on="0"/>
        <pt x="962" y="742" on="1"/>
        <pt x="924" y="714" on="0"/>
        <pt x="878" y="698" on="1"/>
        <pt x="878" y="687" on="1"/>
        <pt x="986" y="661" on="0"/>
        <pt x="1051" y="573" on="1"/>
        <pt x="1118" y="483" on="0"/>
        <pt x="1118" y="264" on="0"/>
        <pt x="1052" y="125" on="0"/>
        <pt x="994" y="78" on="1"/>
        <pt x="875" y="-20" on="0"/>
        <pt x="682" y="-20" on="1"/>
        <pt x="484" y="-20" on="0"/>
        <pt x="364" y="79" on="1"/>
        <pt x="243" y="179" on="0"/>
        <pt x="243" y="353" on="1"/>
        <pt x="243" y="472" on="0"/>
        <pt x="310" y="568" on="1"/>
        <pt x="377" y="661" on="0"/>
        <pt x="483" y="687" on="1"/>
      </contour>
      <contour>
        <pt x="594" y="782" on="1"/>
        <pt x="632" y="766" on="0"/>
        <pt x="724" y="766" on="0"/>
        <pt x="800" y="796" on="0"/>
        <pt x="828" y="824" on="1"/>
        <pt x="889" y="887" on="0"/>
        <pt x="889" y="985" on="1"/>
        <pt x="889" y="1078" on="0"/>
        <pt x="828" y="1138" on="1"/>
        <pt x="768" y="1196" on="0"/>
        <pt x="584" y="1196" on="0"/>
        <pt x="473" y="1083" on="0"/>
        <pt x="473" y="985" on="1"/>
        <pt x="473" y="832" on="0"/>
      </contour>
      <contour>
        <pt x="434" y="345" on="1"/>
        <pt x="434" y="296" on="0"/>
        <pt x="473" y="209" on="0"/>
        <pt x="507" y="180" on="1"/>
        <pt x="575" y="122" on="0"/>
        <pt x="682" y="122" on="1"/>
        <pt x="784" y="122" on="0"/>
        <pt x="852" y="180" on="1"/>
        <pt x="927" y="244" on="0"/>
        <pt x="927" y="355" on="1"/>
        <pt x="927" y="449" on="0"/>
        <pt x="869" y="522" on="1"/>
        <pt x="800" y="610" on="0"/>
        <pt x="682" y="610" on="1"/>
        <pt x="554" y="610" on="0"/>
        <pt x="487" y="522" on="1"/>
        <pt x="434" y="453" on="0"/>
      </contour>
    </TTGlyph>
    <TTGlyph name="ellipsis" xMin="128" yMin="-1" xMax="1408" yMax="256">
      <contour>
        <pt x="1152" y="128" on="1"/>
        <pt x="1152" y="181" on="0"/>
        <pt x="1180" y="208" on="1"/>
        <pt x="1227" y="256" on="0"/>
        <pt x="1280" y="256" on="1"/>
        <pt x="1333" y="256" on="0"/>
        <pt x="1360" y="228" on="1"/>
        <pt x="1408" y="181" on="0"/>
        <pt x="1408" y="128" on="1"/>
        <pt x="1408" y="74" on="0"/>
        <pt x="1380" y="46" on="1"/>
        <pt x="1333" y="-1" on="0"/>
        <pt x="1280" y="-1" on="1"/>
        <pt x="1227" y="-1" on="0"/>
        <pt x="1200" y="26" on="1"/>
        <pt x="1152" y="74" on="0"/>
      </contour>
      <contour>
        <pt x="640" y="128" on="1"/>
        <pt x="640" y="181" on="0"/>
        <pt x="668" y="208" on="1"/>
        <pt x="715" y="256" on="0"/>
        <pt x="768" y="256" on="1"/>
        <pt x="821" y="256" on="0"/>
        <pt x="848" y="228" on="1"/>
        <pt x="896" y="181" on="0"/>
        <pt x="896" y="128" on="1"/>
        <pt x="896" y="74" on="0"/>
        <pt x="868" y="46" on="1"/>
        <pt x="821" y="-1" on="0"/>
        <pt x="768" y="-1" on="1"/>
        <pt x="715" y="-1" on="0"/>
        <pt x="688" y="26" on="1"/>
        <pt x="640" y="74" on="0"/>
      </contour>
      <contour>
        <pt x="128" y="128" on="1"/>
        <pt x="128" y="181" on="0"/>
        <pt x="156" y="208" on="1"/>
        <pt x="203" y="256" on="0"/>
        <pt x="256" y="256" on="1"/>
        <pt x="309" y="256" on="0"/>
        <pt x="336" y="228" on="1"/>
        <pt x="384" y="181" on="0"/>
        <pt x="384" y="128" on="1"/>
        <pt x="384" y="74" on="0"/>
        <pt x="356" y="46" on="1"/>
        <pt x="309" y="-1" on="0"/>
        <pt x="256" y="-1" on="1"/>
        <pt x="203" y="-1" on="0"/>
        <pt x="176" y="26" on="1"/>
        <pt x="128" y="74" on="0"/>
      </contour>
    </TTGlyph>
    <TTGlyph name="emacron" xMin="153" yMin="-20" xMax="1036" yMax="1501">
      <component glyphName="e" x="0" y="0" flags="0x1204"/>
      <component glyphName="macron" x="118" y="0" flags="0x1004"/>
    </TTGlyph>
    <TTGlyph name="emdash" xMin="174" yMin="520" xMax="1870" yMax="652">
      <contour>
        <pt x="174" y="652" on="1"/>
        <pt x="1870" y="652" on="1"/>
        <pt x="1870" y="520" on="1"/>
        <pt x="174" y="520" on="1"/>
      </contour>
    </TTGlyph>
    <TTGlyph name="endash" xMin="174" yMin="520" xMax="1188" yMax="652">
      <contour>
        <pt x="174" y="652" on="1"/>
        <pt x="1188" y="652" on="1"/>
        <pt x="1188" y="520" on="1"/>
        <pt x="174" y="520" on="1"/>
      </contour>
    </TTGlyph>
    <TTGlyph name="eng" xMin="122" yMin="-416" xMax="1015" yMax="1064">
      <contour>
        <pt x="841" y="811" on="0"/>
        <pt x="731" y="923" on="0"/>
        <pt x="457" y="923" on="0"/>
        <pt x="375" y="855" on="1"/>
        <pt x="375" y="0" on="1"/>
        <pt x="203" y="0" on="1"/>
        <pt x="203" y="911" on="1"/>
        <pt x="122" y="994" on="1"/>
        <pt x="122" y="1044" on="1"/>
        <pt x="284" y="1044" on="1"/>
        <pt x="354" y="973" on="1"/>
        <pt x="418" y="973" on="1"/>
        <pt x="475" y="1020" on="0"/>
        <pt x="616" y="1064" on="0"/>
        <pt x="754" y="1064" on="0"/>
        <pt x="880" y="1015" on="0"/>
        <pt x="924" y="969" on="1"/>
        <pt x="1014" y="875" on="0"/>
        <pt x="1014" y="714" on="1"/>
        <pt x="1014" y="0" on="1"/>
        <pt x="1015" y="-114" on="1"/>
        <pt x="1015" y="-301" on="0"/>
        <pt x="871" y="-374" on="1"/>
        <pt x="820" y="-400" on="0"/>
        <pt x="748" y="-416" on="1"/>
        <pt x="709" y="-353" on="0"/>
        <pt x="702" y="-263" on="1"/>
        <pt x="781" y="-246" on="0"/>
        <pt x="803" y="-220" on="1"/>
        <pt x="841" y="-175" on="0"/>
        <pt x="841" y="-85" on="1"/>
        <pt x="841" y="693" on="1"/>
      </contour>
    </TTGlyph>
    <TTGlyph name="eogonek" xMin="153" yMin="-371" xMax="1036" yMax="1064">
      <contour>
        <pt x="938" y="-182" on="1"/>
        <pt x="950" y="-221" on="0"/>
        <pt x="950" y="-271" on="1"/>
        <pt x="950" y="-322" on="0"/>
        <pt x="938" y="-366" on="1"/>
        <pt x="926" y="-371" on="0"/>
        <pt x="874" y="-371" on="1"/>
        <pt x="746" y="-371" on="0"/>
        <pt x="610" y="-262" on="0"/>
        <pt x="610" y="-169" on="1"/>
        <pt x="610" y="-103" on="0"/>
        <pt x="659" y="-34" on="1"/>
        <pt x="699" y="22" on="0"/>
        <pt x="737" y="37" on="1"/>
        <pt x="947" y="39" on="1"/>
        <pt x="937" y="34" on="0"/>
        <pt x="873" y="8" on="0"/>
        <pt x="838" y="-12" on="1"/>
        <pt x="748" y="-63" on="0"/>
        <pt x="748" y="-120" on="1"/>
        <pt x="748" y="-189" on="0"/>
        <pt x="890" y="-189" on="1"/>
        <pt x="908" y="-189" on="0"/>
      </contour>
      <contour>
        <pt x="947" y="39" on="1"/>
        <pt x="819" y="-20" on="0"/>
        <pt x="536" y="-20" on="0"/>
        <pt x="349" y="47" on="0"/>
        <pt x="284" y="114" on="1"/>
        <pt x="153" y="251" on="0"/>
        <pt x="153" y="513" on="1"/>
        <pt x="153" y="772" on="0"/>
        <pt x="286" y="920" on="1"/>
        <pt x="414" y="1064" on="0"/>
        <pt x="627" y="1064" on="1"/>
        <pt x="818" y="1064" on="0"/>
        <pt x="928" y="954" on="1"/>
        <pt x="1036" y="846" on="0"/>
        <pt x="1036" y="658" on="1"/>
        <pt x="1036" y="573" on="0"/>
        <pt x="1020" y="509" on="1"/>
        <pt x="335" y="509" on="1"/>
        <pt x="335" y="126" on="0"/>
        <pt x="655" y="126" on="1"/>
        <pt x="798" y="126" on="0"/>
        <pt x="909" y="178" on="1"/>
        <pt x="935" y="115" on="0"/>
      </contour>
      <contour>
        <pt x="868" y="635" on="1"/>
        <pt x="876" y="760" on="0"/>
        <pt x="812" y="840" on="1"/>
        <pt x="743" y="925" on="0"/>
        <pt x="627" y="925" on="1"/>
        <pt x="513" y="925" on="0"/>
        <pt x="357" y="765" on="0"/>
        <pt x="343" y="635" on="1"/>
      </contour>
    </TTGlyph>
    <TTGlyph name="equal" xMin="256" yMin="170" xMax="1105" yMax="841">
      <contour>
        <pt x="256" y="841" on="1"/>
        <pt x="1105" y="841" on="1"/>
        <pt x="1105" y="688" on="1"/>
        <pt x="256" y="688" on="1"/>
      </contour>
      <contour>
        <pt x="256" y="323" on="1"/>
        <pt x="1105" y="323" on="1"/>
        <pt x="1105" y="170" on="1"/>
        <pt x="256" y="170" on="1"/>
      </contour>
    </TTGlyph>
    <TTGlyph name="eth" xMin="125" yMin="-27" xMax="1070" yMax="1605">
      <contour>
        <pt x="840" y="1388" on="1"/>
        <pt x="1070" y="1144" on="0"/>
        <pt x="1070" y="593" on="1"/>
        <pt x="1070" y="169" on="0"/>
        <pt x="812" y="24" on="1"/>
        <pt x="720" y="-27" on="0"/>
        <pt x="485" y="-27" on="0"/>
        <pt x="314" y="58" on="0"/>
        <pt x="253" y="130" on="1"/>
        <pt x="125" y="283" on="0"/>
        <pt x="125" y="498" on="1"/>
        <pt x="125" y="753" on="0"/>
        <pt x="266" y="898" on="1"/>
        <pt x="393" y="1029" on="0"/>
        <pt x="580" y="1029" on="1"/>
        <pt x="753" y="1029" on="0"/>
        <pt x="828" y="948" on="1"/>
        <pt x="847" y="928" on="0"/>
        <pt x="855" y="912" on="1"/>
        <pt x="868" y="912" on="1"/>
        <pt x="868" y="1055" on="0"/>
        <pt x="790" y="1196" on="1"/>
        <pt x="764" y="1243" on="0"/>
        <pt x="731" y="1284" on="1"/>
        <pt x="610" y="1170" on="1"/>
        <pt x="517" y="1265" on="1"/>
        <pt x="633" y="1376" on="1"/>
        <pt x="530" y="1447" on="0"/>
        <pt x="406" y="1447" on="1"/>
        <pt x="395" y="1447" on="0"/>
        <pt x="373" y="1447" on="0"/>
        <pt x="362" y="1445" on="1"/>
        <pt x="339" y="1480" on="0"/>
        <pt x="339" y="1562" on="0"/>
        <pt x="352" y="1588" on="1"/>
        <pt x="581" y="1579" on="0"/>
        <pt x="737" y="1475" on="1"/>
        <pt x="873" y="1605" on="1"/>
        <pt x="962" y="1503" on="1"/>
      </contour>
      <contour>
        <pt x="308" y="512" on="1"/>
        <pt x="308" y="435" on="0"/>
        <pt x="339" y="299" on="0"/>
        <pt x="374" y="243" on="1"/>
        <pt x="452" y="115" on="0"/>
        <pt x="596" y="115" on="1"/>
        <pt x="734" y="115" on="0"/>
        <pt x="816" y="249" on="1"/>
        <pt x="888" y="366" on="0"/>
        <pt x="888" y="596" on="0"/>
        <pt x="846" y="746" on="0"/>
        <pt x="807" y="796" on="1"/>
        <pt x="728" y="897" on="0"/>
        <pt x="588" y="897" on="1"/>
        <pt x="457" y="897" on="0"/>
        <pt x="382" y="788" on="1"/>
        <pt x="308" y="680" on="0"/>
      </contour>
    </TTGlyph>
    <TTGlyph name="exclam" xMin="128" yMin="-1" xMax="384" yMax="1325">
      <contour>
        <pt x="159" y="1318" on="1"/>
        <pt x="243" y="1325" on="0"/>
        <pt x="268" y="1325" on="0"/>
        <pt x="352" y="1318" on="1"/>
        <pt x="352" y="978" on="0"/>
        <pt x="330" y="507" on="0"/>
        <pt x="322" y="415" on="1"/>
        <pt x="286" y="407" on="0"/>
        <pt x="262" y="407" on="1"/>
        <pt x="216" y="407" on="0"/>
        <pt x="189" y="415" on="1"/>
        <pt x="159" y="718" on="0"/>
      </contour>
      <contour>
        <pt x="128" y="128" on="1"/>
        <pt x="128" y="181" on="0"/>
        <pt x="156" y="208" on="1"/>
        <pt x="203" y="256" on="0"/>
        <pt x="256" y="256" on="1"/>
        <pt x="309" y="256" on="0"/>
        <pt x="336" y="228" on="1"/>
        <pt x="384" y="181" on="0"/>
        <pt x="384" y="128" on="1"/>
        <pt x="384" y="74" on="0"/>
        <pt x="356" y="46" on="1"/>
        <pt x="309" y="-1" on="0"/>
        <pt x="256" y="-1" on="1"/>
        <pt x="203" y="-1" on="0"/>
        <pt x="176" y="26" on="1"/>
        <pt x="128" y="74" on="0"/>
      </contour>
    </TTGlyph>
    <TTGlyph name="exclamdown" xMin="128" yMin="-395" xMax="384" yMax="931">
      <component glyphName="exclam" x="0" y="930" scalex="1.0" scaley="-0.999938964844" flags="0x1004"/>
    </TTGlyph>
    <TTGlyph name="f" xMin="59" yMin="0" xMax="722" yMax="1420">
      <contour>
        <pt x="652" y="976" on="1"/>
        <pt x="652" y="919" on="0"/>
        <pt x="629" y="871" on="1"/>
        <pt x="398" y="871" on="1"/>
        <pt x="398" y="0" on="1"/>
        <pt x="226" y="0" on="1"/>
        <pt x="226" y="871" on="1"/>
        <pt x="63" y="871" on="1"/>
        <pt x="59" y="911" on="0"/>
        <pt x="59" y="943" on="1"/>
        <pt x="59" y="978" on="0"/>
        <pt x="63" y="1014" on="1"/>
        <pt x="226" y="1014" on="1"/>
        <pt x="226" y="1107" on="1"/>
        <pt x="226" y="1320" on="0"/>
        <pt x="400" y="1394" on="1"/>
        <pt x="459" y="1420" on="0"/>
        <pt x="657" y="1420" on="0"/>
        <pt x="722" y="1391" on="1"/>
        <pt x="714" y="1312" on="0"/>
        <pt x="684" y="1259" on="1"/>
        <pt x="634" y="1279" on="0"/>
        <pt x="475" y="1279" on="0"/>
        <pt x="398" y="1196" on="0"/>
        <pt x="398" y="1101" on="1"/>
        <pt x="398" y="1014" on="1"/>
        <pt x="649" y="1014" on="1"/>
      </contour>
    </TTGlyph>
    <TTGlyph name="ff" xMin="59" yMin="0" xMax="1405" yMax="1420">
      <component glyphName="f" x="0" y="0" flags="0x1004"/>
      <component glyphName="f" x="683" y="0" flags="0x1004"/>
    </TTGlyph>
    <TTGlyph name="fi" xMin="59" yMin="0" xMax="1061" yMax="1457">
      <component glyphName="f" x="0" y="0" flags="0x1004"/>
      <component glyphName="i" x="683" y="0" flags="0x1004"/>
    </TTGlyph>
    <TTGlyph name="five" xMin="176" yMin="-20" xMax="1016" yMax="1328">
      <contour>
        <pt x="415" y="793" on="1"/>
        <pt x="475" y="803" on="0"/>
        <pt x="664" y="803" on="0"/>
        <pt x="836" y="751" on="0"/>
        <pt x="895" y="701" on="1"/>
        <pt x="1016" y="598" on="0"/>
        <pt x="1016" y="416" on="1"/>
        <pt x="1016" y="207" on="0"/>
        <pt x="777" y="-20" on="0"/>
        <pt x="560" y="-20" on="1"/>
        <pt x="361" y="-20" on="0"/>
        <pt x="176" y="56" on="1"/>
        <pt x="191" y="136" on="0"/>
        <pt x="233" y="201" on="1"/>
        <pt x="357" y="130" on="0"/>
        <pt x="529" y="130" on="1"/>
        <pt x="671" y="130" on="0"/>
        <pt x="750" y="206" on="1"/>
        <pt x="823" y="276" on="0"/>
        <pt x="823" y="385" on="1"/>
        <pt x="823" y="516" on="0"/>
        <pt x="731" y="587" on="1"/>
        <pt x="643" y="655" on="0"/>
        <pt x="484" y="655" on="1"/>
        <pt x="386" y="655" on="0"/>
        <pt x="316" y="641" on="1"/>
        <pt x="273" y="679" on="0"/>
        <pt x="251" y="738" on="1"/>
        <pt x="272" y="1025" on="1"/>
        <pt x="275" y="1073" on="0"/>
        <pt x="278" y="1124" on="1"/>
        <pt x="284" y="1226" on="1"/>
        <pt x="287" y="1278" on="0"/>
        <pt x="289" y="1328" on="1"/>
        <pt x="950" y="1328" on="1"/>
        <pt x="950" y="1323" on="0"/>
        <pt x="951" y="1317" on="1"/>
        <pt x="952" y="1289" on="1"/>
        <pt x="952" y="1199" on="0"/>
        <pt x="928" y="1151" on="1"/>
        <pt x="656" y="1174" on="0"/>
        <pt x="442" y="1174" on="1"/>
      </contour>
    </TTGlyph>
    <TTGlyph name="fl" xMin="59" yMin="0" xMax="1018" yMax="1422">
      <component glyphName="f" x="0" y="0" flags="0x1004"/>
      <component glyphName="l" x="683" y="0" flags="0x1004"/>
    </TTGlyph>
    <TTGlyph name="florin" xMin="53" yMin="-170" xMax="765" yMax="1420">
      <contour>
        <pt x="656" y="1014" on="1"/>
        <pt x="660" y="935" on="0"/>
        <pt x="623" y="871" on="1"/>
        <pt x="392" y="871" on="1"/>
        <pt x="311" y="-170" on="1"/>
        <pt x="139" y="-170" on="1"/>
        <pt x="220" y="871" on="1"/>
        <pt x="57" y="871" on="1"/>
        <pt x="53" y="932" on="0"/>
        <pt x="70" y="1014" on="1"/>
        <pt x="233" y="1014" on="1"/>
        <pt x="242" y="1107" on="1"/>
        <pt x="255" y="1242" on="0"/>
        <pt x="338" y="1326" on="1"/>
        <pt x="431" y="1420" on="0"/>
        <pt x="586" y="1420" on="1"/>
        <pt x="703" y="1420" on="0"/>
        <pt x="765" y="1391" on="1"/>
        <pt x="749" y="1313" on="0"/>
        <pt x="714" y="1259" on="1"/>
        <pt x="667" y="1279" on="0"/>
        <pt x="507" y="1279" on="0"/>
        <pt x="422" y="1196" on="0"/>
        <pt x="413" y="1101" on="1"/>
        <pt x="405" y="1014" on="1"/>
      </contour>
    </TTGlyph>
    <TTGlyph name="four" xMin="157" yMin="0" xMax="1186" yMax="1379">
      <contour>
        <pt x="202" y="324" on="1"/>
        <pt x="161" y="370" on="0"/>
        <pt x="157" y="470" on="1"/>
        <pt x="678" y="1379" on="1"/>
        <pt x="814" y="1329" on="0"/>
        <pt x="852" y="1281" on="1"/>
        <pt x="673" y="1007" on="1"/>
        <pt x="485" y="702" on="0"/>
        <pt x="437" y="617" on="1"/>
        <pt x="354" y="466" on="1"/>
        <pt x="788" y="466" on="1"/>
        <pt x="788" y="828" on="1"/>
        <pt x="865" y="885" on="0"/>
        <pt x="971" y="892" on="1"/>
        <pt x="971" y="466" on="1"/>
        <pt x="1184" y="466" on="1"/>
        <pt x="1184" y="462" on="0"/>
        <pt x="1185" y="457" on="1"/>
        <pt x="1186" y="434" on="1"/>
        <pt x="1186" y="368" on="0"/>
        <pt x="1163" y="324" on="1"/>
        <pt x="971" y="324" on="1"/>
        <pt x="971" y="0" on="1"/>
        <pt x="788" y="0" on="1"/>
        <pt x="788" y="324" on="1"/>
      </contour>
    </TTGlyph>
    <TTGlyph name="fraction" xMin="182" yMin="6" xMax="843" yMax="1420">
      <contour>
        <pt x="729" y="1417" on="1"/>
        <pt x="801" y="1420" on="0"/>
        <pt x="843" y="1373" on="1"/>
        <pt x="298" y="10" on="1"/>
        <pt x="233" y="6" on="0"/>
        <pt x="182" y="55" on="1"/>
      </contour>
    </TTGlyph>
    <TTGlyph name="g" xMin="66" yMin="-456" xMax="964" yMax="1064">
      <contour>
        <pt x="723" y="166" on="1"/>
        <pt x="953" y="166" on="0"/>
        <pt x="953" y="-101" on="1"/>
        <pt x="953" y="-257" on="0"/>
        <pt x="830" y="-354" on="1"/>
        <pt x="702" y="-456" on="0"/>
        <pt x="474" y="-456" on="1"/>
        <pt x="287" y="-456" on="0"/>
        <pt x="176" y="-382" on="1"/>
        <pt x="66" y="-308" on="0"/>
        <pt x="66" y="-184" on="1"/>
        <pt x="66" y="-103" on="0"/>
        <pt x="127" y="-34" on="1"/>
        <pt x="153" y="-3" on="0"/>
        <pt x="188" y="20" on="1"/>
        <pt x="188" y="50" on="1"/>
        <pt x="139" y="99" on="0"/>
        <pt x="139" y="188" on="1"/>
        <pt x="139" y="260" on="0"/>
        <pt x="193" y="330" on="1"/>
        <pt x="217" y="360" on="0"/>
        <pt x="248" y="383" on="1"/>
        <pt x="248" y="424" on="1"/>
        <pt x="111" y="534" on="0"/>
        <pt x="111" y="706" on="1"/>
        <pt x="111" y="865" on="0"/>
        <pt x="227" y="966" on="1"/>
        <pt x="340" y="1064" on="0"/>
        <pt x="513" y="1064" on="1"/>
        <pt x="575" y="1064" on="0"/>
        <pt x="642" y="1044" on="1"/>
        <pt x="964" y="1044" on="1"/>
        <pt x="964" y="975" on="1"/>
        <pt x="838" y="921" on="1"/>
        <pt x="914" y="816" on="0"/>
        <pt x="914" y="626" on="0"/>
        <pt x="852" y="495" on="0"/>
        <pt x="798" y="448" on="1"/>
        <pt x="684" y="350" on="0"/>
        <pt x="513" y="350" on="1"/>
        <pt x="406" y="350" on="0"/>
        <pt x="348" y="373" on="1"/>
        <pt x="294" y="322" on="0"/>
        <pt x="294" y="242" on="1"/>
        <pt x="294" y="166" on="0"/>
        <pt x="389" y="166" on="1"/>
      </contour>
      <contour>
        <pt x="513" y="476" on="1"/>
        <pt x="618" y="476" on="0"/>
        <pt x="735" y="594" on="0"/>
        <pt x="735" y="706" on="1"/>
        <pt x="735" y="808" on="0"/>
        <pt x="676" y="872" on="1"/>
        <pt x="617" y="937" on="0"/>
        <pt x="513" y="937" on="1"/>
        <pt x="409" y="937" on="0"/>
        <pt x="348" y="872" on="1"/>
        <pt x="289" y="809" on="0"/>
        <pt x="289" y="706" on="1"/>
        <pt x="289" y="546" on="0"/>
        <pt x="418" y="493" on="1"/>
        <pt x="460" y="476" on="0"/>
      </contour>
      <contour>
        <pt x="239" y="-175" on="0"/>
        <pt x="252" y="-234" on="0"/>
        <pt x="276" y="-257" on="1"/>
        <pt x="332" y="-309" on="0"/>
        <pt x="480" y="-309" on="1"/>
        <pt x="628" y="-309" on="0"/>
        <pt x="703" y="-246" on="1"/>
        <pt x="766" y="-194" on="0"/>
        <pt x="766" y="-103" on="1"/>
        <pt x="766" y="-49" on="0"/>
        <pt x="729" y="0" on="0"/>
        <pt x="677" y="0" on="1"/>
        <pt x="286" y="0" on="1"/>
        <pt x="272" y="-22" on="1"/>
        <pt x="239" y="-76" on="0"/>
      </contour>
    </TTGlyph>
    <TTGlyph name="gbreve" xMin="66" yMin="-456" xMax="964" yMax="1545">
      <component glyphName="g" x="0" y="0" flags="0x1204"/>
      <component glyphName="breve" x="175" y="0" flags="0x1004"/>
    </TTGlyph>
    <TTGlyph name="gcircumflex" xMin="66" yMin="-456" xMax="964" yMax="1630">
      <component glyphName="g" x="0" y="0" flags="0x1204"/>
      <component glyphName="circumflex" x="5" y="0" flags="0x1004"/>
    </TTGlyph>
    <TTGlyph name="gcommaaccent" xMin="66" yMin="-456" xMax="964" yMax="1613">
      <component glyphName="g" x="0" y="0" flags="0x1204"/>
      <component glyphName="commaaccent" x="751" y="1073" scale="-0.999938964844" flags="0x1004"/>
    </TTGlyph>
    <TTGlyph name="gdotaccent" xMin="66" yMin="-456" xMax="964" yMax="1457">
      <component glyphName="g" x="0" y="0" flags="0x1204"/>
      <component glyphName="dotaccent" x="254" y="0" flags="0x1004"/>
    </TTGlyph>
    <TTGlyph name="germandbls" xMin="163" yMin="-20" xMax="1083" yMax="1420">
      <contour>
        <pt x="530" y="168" on="1"/>
        <pt x="628" y="128" on="0"/>
        <pt x="723" y="128" on="1"/>
        <pt x="841" y="128" on="0"/>
        <pt x="884" y="202" on="1"/>
        <pt x="900" y="229" on="0"/>
        <pt x="900" y="331" on="0"/>
        <pt x="828" y="430" on="0"/>
        <pt x="689" y="489" on="0"/>
        <pt x="594" y="542" on="0"/>
        <pt x="562" y="574" on="1"/>
        <pt x="499" y="640" on="0"/>
        <pt x="499" y="740" on="1"/>
        <pt x="499" y="852" on="0"/>
        <pt x="699" y="1025" on="0"/>
        <pt x="699" y="1137" on="1"/>
        <pt x="699" y="1236" on="0"/>
        <pt x="611" y="1268" on="1"/>
        <pt x="581" y="1279" on="0"/>
        <pt x="484" y="1279" on="0"/>
        <pt x="407" y="1259" on="0"/>
        <pt x="382" y="1238" on="1"/>
        <pt x="335" y="1196" on="0"/>
        <pt x="335" y="1101" on="1"/>
        <pt x="335" y="0" on="1"/>
        <pt x="163" y="0" on="1"/>
        <pt x="163" y="1107" on="1"/>
        <pt x="163" y="1323" on="0"/>
        <pt x="371" y="1394" on="1"/>
        <pt x="445" y="1420" on="0"/>
        <pt x="582" y="1420" on="0"/>
        <pt x="656" y="1410" on="0"/>
        <pt x="730" y="1386" on="0"/>
        <pt x="798" y="1347" on="0"/>
        <pt x="824" y="1318" on="1"/>
        <pt x="883" y="1254" on="0"/>
        <pt x="883" y="1097" on="0"/>
        <pt x="853" y="1009" on="0"/>
        <pt x="807" y="942" on="0"/>
        <pt x="781" y="917" on="1"/>
        <pt x="732" y="868" on="1"/>
        <pt x="679" y="814" on="0"/>
        <pt x="679" y="761" on="1"/>
        <pt x="679" y="714" on="0"/>
        <pt x="697" y="692" on="1"/>
        <pt x="727" y="657" on="0"/>
        <pt x="881" y="591" on="0"/>
        <pt x="987" y="522" on="0"/>
        <pt x="1020" y="481" on="1"/>
        <pt x="1083" y="403" on="0"/>
        <pt x="1083" y="276" on="1"/>
        <pt x="1083" y="144" on="0"/>
        <pt x="981" y="61" on="1"/>
        <pt x="881" y="-20" on="0"/>
        <pt x="590" y="-20" on="0"/>
        <pt x="495" y="29" on="1"/>
        <pt x="495" y="108" on="0"/>
      </contour>
    </TTGlyph>
    <TTGlyph name="grave" xMin="-97" yMin="1204" xMax="286" yMax="1615">
      <contour>
        <pt x="-97" y="1492" on="1"/>
        <pt x="-73" y="1540" on="0"/>
        <pt x="10" y="1596" on="1"/>
        <pt x="32" y="1611" on="0"/>
        <pt x="46" y="1615" on="1"/>
        <pt x="286" y="1277" on="1"/>
        <pt x="263" y="1225" on="0"/>
        <pt x="209" y="1204" on="1"/>
      </contour>
    </TTGlyph>
    <TTGlyph name="grave.cap" xMin="-3" yMin="1530" xMax="430" yMax="1941">
      <contour>
        <pt x="-3" y="1818" on="1"/>
        <pt x="21" y="1866" on="0"/>
        <pt x="104" y="1922" on="1"/>
        <pt x="126" y="1937" on="0"/>
        <pt x="140" y="1941" on="1"/>
        <pt x="430" y="1603" on="1"/>
        <pt x="407" y="1551" on="0"/>
        <pt x="353" y="1530" on="1"/>
      </contour>
    </TTGlyph>
    <TTGlyph name="greater" xMin="230" yMin="33" xMax="1305" yMax="1080">
      <component glyphName="less" x="1535" y="0" scalex="-0.999938964844" scaley="1.0" flags="0x1004"/>
    </TTGlyph>
    <TTGlyph name="greaterequal" xMin="114" yMin="107" xMax="1189" yMax="1416">
      <component glyphName="lessequal" x="1303" y="0" scalex="-0.999938964844" scaley="1.0" flags="0x1004"/>
    </TTGlyph>
    <TTGlyph name="guillemotleft" xMin="233" yMin="88" xMax="1303" yMax="914">
      <component glyphName="guilsinglleft" x="622" y="0" flags="0x1004"/>
      <component glyphName="guilsinglleft" x="59" y="0" flags="0x1004"/>
    </TTGlyph>
    <TTGlyph name="guillemotright" xMin="234" yMin="88" xMax="1295" yMax="914">
      <component glyphName="guilsinglleft" x="1469" y="1002" scale="-0.999938964844" flags="0x1004"/>
      <component glyphName="guilsinglleft" x="915" y="1002" scale="-0.999938964844" flags="0x1004"/>
    </TTGlyph>
    <TTGlyph name="guilsinglleft" xMin="174" yMin="88" xMax="681" yMax="914">
      <contour>
        <pt x="184" y="431" on="1"/>
        <pt x="174" y="458" on="0"/>
        <pt x="174" y="495" on="1"/>
        <pt x="174" y="532" on="0"/>
        <pt x="188" y="560" on="1"/>
        <pt x="581" y="914" on="1"/>
        <pt x="666" y="868" on="0"/>
        <pt x="679" y="803" on="1"/>
        <pt x="327" y="517" on="1"/>
        <pt x="327" y="476" on="1"/>
        <pt x="681" y="206" on="1"/>
        <pt x="654" y="139" on="0"/>
        <pt x="577" y="88" on="1"/>
      </contour>
    </TTGlyph>
    <TTGlyph name="guilsinglright" xMin="171" yMin="89" xMax="678" yMax="915">
      <component glyphName="guilsinglleft" x="852" y="1003" scale="-0.999938964844" flags="0x1004"/>
    </TTGlyph>
    <TTGlyph name="h" xMin="198" yMin="0" xMax="1009" yMax="1420">
      <contour>
        <pt x="837" y="811" on="0"/>
        <pt x="726" y="923" on="0"/>
        <pt x="452" y="923" on="0"/>
        <pt x="370" y="855" on="1"/>
        <pt x="370" y="0" on="1"/>
        <pt x="198" y="0" on="1"/>
        <pt x="198" y="1420" on="1"/>
        <pt x="370" y="1420" on="1"/>
        <pt x="370" y="973" on="1"/>
        <pt x="413" y="973" on="1"/>
        <pt x="470" y="1020" on="0"/>
        <pt x="611" y="1064" on="0"/>
        <pt x="749" y="1064" on="0"/>
        <pt x="875" y="1015" on="0"/>
        <pt x="919" y="969" on="1"/>
        <pt x="1009" y="875" on="0"/>
        <pt x="1009" y="714" on="1"/>
        <pt x="1009" y="0" on="1"/>
        <pt x="837" y="0" on="1"/>
        <pt x="837" y="693" on="1"/>
      </contour>
    </TTGlyph>
    <TTGlyph name="hbar" xMin="41" yMin="0" xMax="1009" yMax="1420">
      <contour>
        <pt x="554" y="1326" on="1"/>
        <pt x="558" y="1294" on="0"/>
        <pt x="558" y="1222" on="0"/>
        <pt x="548" y="1197" on="1"/>
        <pt x="50" y="1197" on="1"/>
        <pt x="41" y="1231" on="0"/>
        <pt x="41" y="1296" on="0"/>
        <pt x="51" y="1326" on="1"/>
      </contour>
      <contour>
        <pt x="837" y="811" on="0"/>
        <pt x="726" y="923" on="0"/>
        <pt x="452" y="923" on="0"/>
        <pt x="370" y="855" on="1"/>
        <pt x="370" y="0" on="1"/>
        <pt x="198" y="0" on="1"/>
        <pt x="198" y="1420" on="1"/>
        <pt x="370" y="1420" on="1"/>
        <pt x="370" y="973" on="1"/>
        <pt x="413" y="973" on="1"/>
        <pt x="470" y="1020" on="0"/>
        <pt x="611" y="1064" on="0"/>
        <pt x="749" y="1064" on="0"/>
        <pt x="875" y="1015" on="0"/>
        <pt x="919" y="969" on="1"/>
        <pt x="1009" y="875" on="0"/>
        <pt x="1009" y="714" on="1"/>
        <pt x="1009" y="0" on="1"/>
        <pt x="837" y="0" on="1"/>
        <pt x="837" y="693" on="1"/>
      </contour>
    </TTGlyph>
    <TTGlyph name="hcircumflex" xMin="198" yMin="0" xMax="1018" yMax="1870">
      <component glyphName="h" x="0" y="0" flags="0x1204"/>
      <component glyphName="circumflex.cap" x="333" y="0" flags="0x1004"/>
    </TTGlyph>
    <TTGlyph name="hungarumlaut" xMin="274" yMin="1204" xMax="1026" yMax="1615">
      <contour>
        <pt x="730" y="1204" on="1"/>
        <pt x="698" y="1216" on="0"/>
        <pt x="657" y="1266" on="0"/>
        <pt x="653" y="1277" on="1"/>
        <pt x="893" y="1615" on="1"/>
        <pt x="941" y="1601" on="0"/>
        <pt x="1002" y="1534" on="1"/>
        <pt x="1019" y="1516" on="0"/>
        <pt x="1026" y="1502" on="1"/>
      </contour>
      <contour>
        <pt x="351" y="1204" on="1"/>
        <pt x="319" y="1216" on="0"/>
        <pt x="278" y="1266" on="0"/>
        <pt x="274" y="1277" on="1"/>
        <pt x="514" y="1615" on="1"/>
        <pt x="562" y="1601" on="0"/>
        <pt x="624" y="1534" on="1"/>
        <pt x="640" y="1516" on="0"/>
        <pt x="647" y="1502" on="1"/>
      </contour>
    </TTGlyph>
    <TTGlyph name="hungarumlaut.cap" xMin="37" yMin="1530" xMax="789" yMax="1941">
      <contour>
        <pt x="493" y="1530" on="1"/>
        <pt x="461" y="1542" on="0"/>
        <pt x="420" y="1592" on="0"/>
        <pt x="416" y="1603" on="1"/>
        <pt x="656" y="1941" on="1"/>
        <pt x="704" y="1927" on="0"/>
        <pt x="766" y="1860" on="1"/>
        <pt x="782" y="1842" on="0"/>
        <pt x="789" y="1828" on="1"/>
      </contour>
      <contour>
        <pt x="114" y="1530" on="1"/>
        <pt x="82" y="1542" on="0"/>
        <pt x="41" y="1592" on="0"/>
        <pt x="37" y="1603" on="1"/>
        <pt x="277" y="1941" on="1"/>
        <pt x="325" y="1927" on="0"/>
        <pt x="386" y="1860" on="1"/>
        <pt x="403" y="1842" on="0"/>
        <pt x="410" y="1828" on="1"/>
      </contour>
    </TTGlyph>
    <TTGlyph name="hyphen" xMin="174" yMin="518" xMax="846" yMax="652">
      <contour>
        <pt x="174" y="652" on="1"/>
        <pt x="846" y="650" on="1"/>
        <pt x="846" y="518" on="1"/>
        <pt x="174" y="520" on="1"/>
      </contour>
    </TTGlyph>
    <TTGlyph name="i" xMin="146" yMin="0" xMax="378" yMax="1457">
      <contour>
        <pt x="261" y="1225" on="1"/>
        <pt x="214" y="1225" on="0"/>
        <pt x="189" y="1250" on="1"/>
        <pt x="146" y="1293" on="0"/>
        <pt x="146" y="1341" on="1"/>
        <pt x="146" y="1391" on="0"/>
        <pt x="171" y="1415" on="1"/>
        <pt x="215" y="1457" on="0"/>
        <pt x="261" y="1457" on="1"/>
        <pt x="337" y="1457" on="0"/>
        <pt x="368" y="1386" on="1"/>
        <pt x="378" y="1365" on="0"/>
        <pt x="378" y="1341" on="1"/>
        <pt x="378" y="1295" on="0"/>
        <pt x="353" y="1269" on="1"/>
        <pt x="311" y="1225" on="0"/>
      </contour>
      <contour>
        <pt x="174" y="1021" on="1"/>
        <pt x="348" y="1021" on="1"/>
        <pt x="348" y="0" on="1"/>
        <pt x="172" y="0" on="1"/>
      </contour>
    </TTGlyph>
    <TTGlyph name="iacute" xMin="116" yMin="0" xMax="499" yMax="1615">
      <component glyphName="dotlessi" x="0" y="0" flags="0x1204"/>
      <component glyphName="acute" x="-158" y="0" flags="0x1004"/>
    </TTGlyph>
    <TTGlyph name="ibreve" xMin="-67" yMin="0" xMax="589" yMax="1545">
      <component glyphName="dotlessi" x="0" y="0" flags="0x1204"/>
      <component glyphName="breve" x="-79" y="0" flags="0x1004"/>
    </TTGlyph>
    <TTGlyph name="icircumflex" xMin="-79" yMin="0" xMax="605" yMax="1630">
      <component glyphName="dotlessi" x="0" y="0" flags="0x1204"/>
      <component glyphName="circumflex" x="-249" y="0" flags="0x1004"/>
    </TTGlyph>
    <TTGlyph name="idieresis" xMin="-76" yMin="0" xMax="598" yMax="1457">
      <component glyphName="dotlessi" x="0" y="0" flags="0x1204"/>
      <component glyphName="dieresis" x="-249" y="0" flags="0x1004"/>
    </TTGlyph>
    <TTGlyph name="igrave" xMin="34" yMin="0" xMax="417" yMax="1615">
      <component glyphName="dotlessi" x="0" y="0" flags="0x1204"/>
      <component glyphName="grave" x="131" y="0" flags="0x1004"/>
    </TTGlyph>
    <TTGlyph name="ij" xMin="146" yMin="-416" xMax="890" yMax="1457">
      <component glyphName="i" x="0" y="0" flags="0x1004"/>
      <component glyphName="j" x="512" y="0" flags="0x1004"/>
    </TTGlyph>
    <TTGlyph name="imacron" xMin="-57" yMin="0" xMax="580" yMax="1501">
      <component glyphName="dotlessi" x="0" y="0" flags="0x1204"/>
      <component glyphName="macron" x="-251" y="0" flags="0x1004"/>
    </TTGlyph>
    <TTGlyph name="infinity" xMin="108" yMin="271" xMax="1595" yMax="996">
      <contour>
        <pt x="446" y="271" on="1"/>
        <pt x="377" y="271" on="0"/>
        <pt x="252" y="324" on="0"/>
        <pt x="206" y="372" on="1"/>
        <pt x="108" y="474" on="0"/>
        <pt x="108" y="629" on="1"/>
        <pt x="108" y="780" on="0"/>
        <pt x="213" y="887" on="1"/>
        <pt x="320" y="996" on="0"/>
        <pt x="471" y="996" on="1"/>
        <pt x="624" y="996" on="0"/>
        <pt x="784" y="824" on="1"/>
        <pt x="867" y="733" on="1"/>
        <pt x="947" y="827" on="1"/>
        <pt x="1087" y="996" on="0"/>
        <pt x="1243" y="996" on="1"/>
        <pt x="1395" y="996" on="0"/>
        <pt x="1494" y="894" on="1"/>
        <pt x="1595" y="789" on="0"/>
        <pt x="1595" y="629" on="1"/>
        <pt x="1595" y="483" on="0"/>
        <pt x="1486" y="378" on="1"/>
        <pt x="1376" y="271" on="0"/>
        <pt x="1219" y="271" on="1"/>
        <pt x="1075" y="271" on="0"/>
        <pt x="926" y="441" on="1"/>
        <pt x="847" y="530" on="1"/>
        <pt x="763" y="438" on="1"/>
        <pt x="613" y="271" on="0"/>
      </contour>
      <contour>
        <pt x="954" y="640" on="1"/>
        <pt x="1013" y="567" on="1"/>
        <pt x="1133" y="412" on="0"/>
        <pt x="1244" y="412" on="1"/>
        <pt x="1327" y="412" on="0"/>
        <pt x="1376" y="476" on="1"/>
        <pt x="1422" y="536" on="0"/>
        <pt x="1422" y="678" on="0"/>
        <pt x="1395" y="760" on="0"/>
        <pt x="1370" y="790" on="1"/>
        <pt x="1318" y="854" on="0"/>
        <pt x="1232" y="854" on="1"/>
        <pt x="1123" y="854" on="0"/>
        <pt x="1015" y="716" on="1"/>
      </contour>
      <contour>
        <pt x="354" y="445" on="0"/>
        <pt x="423" y="412" on="0"/>
        <pt x="510" y="412" on="0"/>
        <pt x="589" y="449" on="0"/>
        <pt x="660" y="509" on="0"/>
        <pt x="692" y="546" on="1"/>
        <pt x="755" y="619" on="1"/>
        <pt x="690" y="695" on="1"/>
        <pt x="561" y="854" on="0"/>
        <pt x="451" y="854" on="1"/>
        <pt x="326" y="854" on="0"/>
        <pt x="290" y="716" on="1"/>
        <pt x="280" y="675" on="0"/>
        <pt x="280" y="582" on="0"/>
        <pt x="306" y="503" on="0"/>
      </contour>
    </TTGlyph>
    <TTGlyph name="integral" xMin="72" yMin="-339" xMax="782" yMax="1870">
      <contour>
        <pt x="678" y="1735" on="1"/>
        <pt x="482" y="1735" on="0"/>
        <pt x="482" y="1302" on="1"/>
        <pt x="482" y="1164" on="0"/>
        <pt x="536" y="702" on="0"/>
        <pt x="561" y="456" on="0"/>
        <pt x="561" y="280" on="0"/>
        <pt x="555" y="131" on="0"/>
        <pt x="533" y="-20" on="0"/>
        <pt x="488" y="-162" on="0"/>
        <pt x="450" y="-217" on="1"/>
        <pt x="364" y="-339" on="0"/>
        <pt x="213" y="-339" on="1"/>
        <pt x="114" y="-339" on="0"/>
        <pt x="76" y="-317" on="1"/>
        <pt x="72" y="-300" on="0"/>
        <pt x="72" y="-231" on="0"/>
        <pt x="100" y="-184" on="1"/>
        <pt x="143" y="-200" on="0"/>
        <pt x="229" y="-200" on="0"/>
        <pt x="296" y="-152" on="0"/>
        <pt x="341" y="-71" on="0"/>
        <pt x="368" y="35" on="0"/>
        <pt x="375" y="94" on="1"/>
        <pt x="386" y="185" on="0"/>
        <pt x="386" y="436" on="0"/>
        <pt x="363" y="678" on="0"/>
        <pt x="348" y="800" on="1"/>
        <pt x="311" y="1116" on="0"/>
        <pt x="311" y="1267" on="1"/>
        <pt x="311" y="1870" on="0"/>
        <pt x="671" y="1870" on="1"/>
        <pt x="739" y="1870" on="0"/>
        <pt x="775" y="1855" on="1"/>
        <pt x="782" y="1833" on="0"/>
        <pt x="782" y="1809" on="1"/>
        <pt x="782" y="1759" on="0"/>
        <pt x="747" y="1722" on="1"/>
        <pt x="702" y="1735" on="0"/>
      </contour>
    </TTGlyph>
    <TTGlyph name="iogonek" xMin="27" yMin="-371" xMax="378" yMax="1457">
      <contour>
        <pt x="336" y="-182" on="1"/>
        <pt x="348" y="-221" on="0"/>
        <pt x="348" y="-271" on="1"/>
        <pt x="348" y="-322" on="0"/>
        <pt x="336" y="-366" on="1"/>
        <pt x="324" y="-371" on="0"/>
        <pt x="216" y="-371" on="0"/>
        <pt x="126" y="-342" on="0"/>
        <pt x="94" y="-316" on="1"/>
        <pt x="27" y="-262" on="0"/>
        <pt x="27" y="-93" on="0"/>
        <pt x="96" y="14" on="0"/>
        <pt x="170" y="56" on="1"/>
        <pt x="340" y="0" on="1"/>
        <pt x="220" y="0" on="0"/>
        <pt x="180" y="-59" on="1"/>
        <pt x="165" y="-80" on="0"/>
        <pt x="165" y="-109" on="1"/>
        <pt x="165" y="-189" on="0"/>
        <pt x="288" y="-189" on="1"/>
        <pt x="306" y="-189" on="0"/>
      </contour>
      <contour>
        <pt x="261" y="1225" on="1"/>
        <pt x="214" y="1225" on="0"/>
        <pt x="189" y="1250" on="1"/>
        <pt x="146" y="1293" on="0"/>
        <pt x="146" y="1341" on="1"/>
        <pt x="146" y="1391" on="0"/>
        <pt x="171" y="1415" on="1"/>
        <pt x="215" y="1457" on="0"/>
        <pt x="261" y="1457" on="1"/>
        <pt x="337" y="1457" on="0"/>
        <pt x="368" y="1386" on="1"/>
        <pt x="378" y="1365" on="0"/>
        <pt x="378" y="1341" on="1"/>
        <pt x="378" y="1295" on="0"/>
        <pt x="353" y="1269" on="1"/>
        <pt x="311" y="1225" on="0"/>
      </contour>
      <contour>
        <pt x="174" y="1021" on="1"/>
        <pt x="348" y="1021" on="1"/>
        <pt x="348" y="0" on="1"/>
        <pt x="172" y="0" on="1"/>
      </contour>
    </TTGlyph>
    <TTGlyph name="itilde" xMin="-72" yMin="0" xMax="594" yMax="1510">
      <component glyphName="dotlessi" x="0" y="0" flags="0x1204"/>
      <component glyphName="tilde" x="-188" y="0" flags="0x1004"/>
    </TTGlyph>
    <TTGlyph name="j" xMin="37" yMin="-416" xMax="378" yMax="1457">
      <contour>
        <pt x="261" y="1225" on="1"/>
        <pt x="214" y="1225" on="0"/>
        <pt x="189" y="1250" on="1"/>
        <pt x="146" y="1293" on="0"/>
        <pt x="146" y="1341" on="1"/>
        <pt x="146" y="1391" on="0"/>
        <pt x="171" y="1415" on="1"/>
        <pt x="215" y="1457" on="0"/>
        <pt x="261" y="1457" on="1"/>
        <pt x="337" y="1457" on="0"/>
        <pt x="368" y="1386" on="1"/>
        <pt x="378" y="1365" on="0"/>
        <pt x="378" y="1341" on="1"/>
        <pt x="378" y="1295" on="0"/>
        <pt x="353" y="1269" on="1"/>
        <pt x="311" y="1225" on="0"/>
      </contour>
      <contour>
        <pt x="176" y="1020" on="1"/>
        <pt x="350" y="1020" on="1"/>
        <pt x="350" y="-114" on="1"/>
        <pt x="350" y="-301" on="0"/>
        <pt x="206" y="-374" on="1"/>
        <pt x="155" y="-400" on="0"/>
        <pt x="83" y="-416" on="1"/>
        <pt x="44" y="-353" on="0"/>
        <pt x="37" y="-263" on="1"/>
        <pt x="116" y="-246" on="0"/>
        <pt x="138" y="-220" on="1"/>
        <pt x="176" y="-175" on="0"/>
        <pt x="176" y="-85" on="1"/>
      </contour>
    </TTGlyph>
    <TTGlyph name="jcircumflex" xMin="-79" yMin="-416" xMax="605" yMax="1630">
      <component glyphName="dotlessj" x="0" y="0" flags="0x1204"/>
      <component glyphName="circumflex" x="-249" y="0" flags="0x1004"/>
    </TTGlyph>
    <TTGlyph name="k" xMin="190" yMin="0" xMax="999" yMax="1420">
      <contour>
        <pt x="190" y="1420" on="1"/>
        <pt x="362" y="1420" on="1"/>
        <pt x="362" y="586" on="1"/>
        <pt x="434" y="586" on="1"/>
        <pt x="784" y="1020" on="1"/>
        <pt x="981" y="1020" on="1"/>
        <pt x="573" y="530" on="1"/>
        <pt x="999" y="0" on="1"/>
        <pt x="801" y="0" on="1"/>
        <pt x="428" y="474" on="1"/>
        <pt x="362" y="474" on="1"/>
        <pt x="362" y="0" on="1"/>
        <pt x="190" y="0" on="1"/>
      </contour>
    </TTGlyph>
    <TTGlyph name="kcommaaccent" xMin="190" yMin="-540" xMax="999" yMax="1420">
      <component glyphName="k" x="0" y="0" flags="0x1204"/>
      <component glyphName="commaaccent" x="297" y="0" flags="0x1004"/>
    </TTGlyph>
    <TTGlyph name="kgreenlandic" xMin="190" yMin="0" xMax="999" yMax="1020">
      <contour>
        <pt x="190" y="1020" on="1"/>
        <pt x="362" y="1020" on="1"/>
        <pt x="362" y="586" on="1"/>
        <pt x="434" y="586" on="1"/>
        <pt x="784" y="1020" on="1"/>
        <pt x="981" y="1020" on="1"/>
        <pt x="573" y="530" on="1"/>
        <pt x="999" y="0" on="1"/>
        <pt x="801" y="0" on="1"/>
        <pt x="428" y="474" on="1"/>
        <pt x="362" y="474" on="1"/>
        <pt x="362" y="0" on="1"/>
        <pt x="190" y="0" on="1"/>
      </contour>
    </TTGlyph>
    <TTGlyph name="l" xMin="162" yMin="0" xMax="335" yMax="1422">
      <contour>
        <pt x="162" y="1422" on="1"/>
        <pt x="335" y="1422" on="1"/>
        <pt x="335" y="0" on="1"/>
        <pt x="162" y="0" on="1"/>
      </contour>
    </TTGlyph>
    <TTGlyph name="lacute" xMin="130" yMin="0" xMax="563" yMax="1941">
      <component glyphName="l" x="0" y="0" flags="0x1204"/>
      <component glyphName="acute.cap" x="73" y="0" flags="0x1004"/>
    </TTGlyph>
    <TTGlyph name="lcaron" xMin="162" yMin="0" xMax="682" yMax="1443">
      <contour>
        <pt x="482" y="1023" on="1"/>
        <pt x="511" y="1128" on="0"/>
        <pt x="511" y="1342" on="0"/>
        <pt x="486" y="1422" on="1"/>
        <pt x="487" y="1422" on="0"/>
        <pt x="505" y="1429" on="0"/>
        <pt x="519" y="1433" on="1"/>
        <pt x="554" y="1443" on="0"/>
        <pt x="582" y="1443" on="1"/>
        <pt x="638" y="1443" on="0"/>
        <pt x="672" y="1421" on="1"/>
        <pt x="682" y="1369" on="0"/>
        <pt x="682" y="1310" on="1"/>
        <pt x="682" y="1159" on="0"/>
        <pt x="601" y="1012" on="1"/>
        <pt x="576" y="1005" on="0"/>
        <pt x="555" y="1005" on="1"/>
        <pt x="510" y="1005" on="0"/>
      </contour>
      <contour>
        <pt x="162" y="1422" on="1"/>
        <pt x="335" y="1422" on="1"/>
        <pt x="335" y="0" on="1"/>
        <pt x="162" y="0" on="1"/>
      </contour>
    </TTGlyph>
    <TTGlyph name="lcommaaccent" xMin="54" yMin="-540" xMax="364" yMax="1422">
      <component glyphName="l" x="0" y="0" flags="0x1204"/>
      <component glyphName="commaaccent" x="-7" y="0" flags="0x1004"/>
    </TTGlyph>
    <TTGlyph name="ldot" xMin="162" yMin="0" xMax="882" yMax="1422">
      <component glyphName="l" x="0" y="0" flags="0x1004"/>
      <component glyphName="periodcentered" x="498" y="0" flags="0x1004"/>
    </TTGlyph>
    <TTGlyph name="less" xMin="230" yMin="33" xMax="1305" yMax="1080">
      <contour>
        <pt x="230" y="620" on="1"/>
        <pt x="1243" y="1080" on="1"/>
        <pt x="1305" y="945" on="1"/>
        <pt x="512" y="585" on="1"/>
        <pt x="419" y="556" on="1"/>
        <pt x="515" y="526" on="1"/>
        <pt x="1305" y="168" on="1"/>
        <pt x="1243" y="33" on="1"/>
        <pt x="230" y="493" on="1"/>
      </contour>
    </TTGlyph>
    <TTGlyph name="lessequal" xMin="114" yMin="107" xMax="1189" yMax="1416">
      <contour>
        <pt x="114" y="956" on="1"/>
        <pt x="1127" y="1416" on="1"/>
        <pt x="1189" y="1281" on="1"/>
        <pt x="396" y="921" on="1"/>
        <pt x="303" y="892" on="1"/>
        <pt x="399" y="862" on="1"/>
        <pt x="1189" y="556" on="1"/>
        <pt x="1143" y="414" on="1"/>
        <pt x="114" y="816" on="1"/>
      </contour>
      <contour>
        <pt x="116" y="260" on="1"/>
        <pt x="1158" y="260" on="1"/>
        <pt x="1158" y="107" on="1"/>
        <pt x="116" y="107" on="1"/>
      </contour>
    </TTGlyph>
    <TTGlyph name="logicalnot" xMin="222" yMin="181" xMax="1313" yMax="676">
      <contour>
        <pt x="222" y="676" on="1"/>
        <pt x="1313" y="676" on="1"/>
        <pt x="1313" y="181" on="1"/>
        <pt x="1160" y="181" on="1"/>
        <pt x="1160" y="523" on="1"/>
        <pt x="222" y="523" on="1"/>
      </contour>
    </TTGlyph>
    <TTGlyph name="lozenge" xMin="126" yMin="0" xMax="1070" yMax="1357">
      <contour>
        <pt x="126" y="678" on="1"/>
        <pt x="535" y="1357" on="1"/>
        <pt x="661" y="1357" on="1"/>
        <pt x="1070" y="678" on="1"/>
        <pt x="661" y="0" on="1"/>
        <pt x="535" y="0" on="1"/>
      </contour>
      <contour>
        <pt x="598" y="150" on="1"/>
        <pt x="627" y="223" on="1"/>
        <pt x="889" y="678" on="1"/>
        <pt x="627" y="1133" on="1"/>
        <pt x="598" y="1207" on="1"/>
        <pt x="568" y="1131" on="1"/>
        <pt x="307" y="678" on="1"/>
        <pt x="568" y="225" on="1"/>
      </contour>
    </TTGlyph>
    <TTGlyph name="lslash" xMin="27" yMin="0" xMax="485" yMax="1422">
      <contour>
        <pt x="27" y="697" on="1"/>
        <pt x="485" y="935" on="1"/>
        <pt x="485" y="793" on="1"/>
        <pt x="27" y="555" on="1"/>
      </contour>
      <contour>
        <pt x="162" y="1422" on="1"/>
        <pt x="335" y="1422" on="1"/>
        <pt x="335" y="0" on="1"/>
        <pt x="162" y="0" on="1"/>
      </contour>
    </TTGlyph>
    <TTGlyph name="m" xMin="128" yMin="0" xMax="1522" yMax="1064">
      <contour>
        <pt x="927" y="882" on="1"/>
        <pt x="960" y="803" on="0"/>
        <pt x="960" y="714" on="1"/>
        <pt x="960" y="0" on="1"/>
        <pt x="788" y="0" on="1"/>
        <pt x="788" y="693" on="1"/>
        <pt x="788" y="810" on="0"/>
        <pt x="696" y="923" on="0"/>
        <pt x="582" y="923" on="1"/>
        <pt x="476" y="923" on="0"/>
        <pt x="418" y="889" on="1"/>
        <pt x="392" y="874" on="0"/>
        <pt x="381" y="855" on="1"/>
        <pt x="381" y="0" on="1"/>
        <pt x="209" y="0" on="1"/>
        <pt x="209" y="911" on="1"/>
        <pt x="128" y="994" on="1"/>
        <pt x="128" y="1044" on="1"/>
        <pt x="288" y="1044" on="1"/>
        <pt x="361" y="973" on="1"/>
        <pt x="424" y="973" on="1"/>
        <pt x="515" y="1064" on="0"/>
        <pt x="639" y="1064" on="1"/>
        <pt x="729" y="1064" on="0"/>
        <pt x="845" y="1003" on="0"/>
        <pt x="889" y="946" on="1"/>
        <pt x="958" y="1015" on="0"/>
        <pt x="1066" y="1049" on="1"/>
        <pt x="1114" y="1064" on="0"/>
        <pt x="1251" y="1064" on="0"/>
        <pt x="1381" y="1015" on="0"/>
        <pt x="1426" y="969" on="1"/>
        <pt x="1522" y="872" on="0"/>
        <pt x="1522" y="714" on="1"/>
        <pt x="1522" y="0" on="1"/>
        <pt x="1350" y="0" on="1"/>
        <pt x="1350" y="693" on="1"/>
        <pt x="1350" y="923" on="0"/>
        <pt x="1114" y="923" on="1"/>
        <pt x="1009" y="923" on="0"/>
      </contour>
    </TTGlyph>
    <TTGlyph name="macron" xMin="194" yMin="1365" xMax="831" yMax="1501">
      <contour>
        <pt x="203" y="1365" on="1"/>
        <pt x="194" y="1399" on="0"/>
        <pt x="194" y="1469" on="0"/>
        <pt x="204" y="1501" on="1"/>
        <pt x="825" y="1501" on="1"/>
        <pt x="831" y="1474" on="0"/>
        <pt x="831" y="1401" on="0"/>
        <pt x="819" y="1365" on="1"/>
      </contour>
    </TTGlyph>
    <TTGlyph name="macron.cap" xMin="193" yMin="1716" xMax="830" yMax="1852">
      <contour>
        <pt x="202" y="1716" on="1"/>
        <pt x="193" y="1750" on="0"/>
        <pt x="193" y="1820" on="0"/>
        <pt x="203" y="1852" on="1"/>
        <pt x="824" y="1852" on="1"/>
        <pt x="830" y="1825" on="0"/>
        <pt x="830" y="1752" on="0"/>
        <pt x="818" y="1716" on="1"/>
      </contour>
    </TTGlyph>
    <TTGlyph name="minus" xMin="222" yMin="523" xMax="1313" yMax="676">
      <contour>
        <pt x="222" y="676" on="1"/>
        <pt x="1313" y="676" on="1"/>
        <pt x="1313" y="523" on="1"/>
        <pt x="222" y="523" on="1"/>
      </contour>
    </TTGlyph>
    <TTGlyph name="mu" xMin="192" yMin="-436" xMax="1091" yMax="1022">
      <contour>
        <pt x="332" y="30" on="1"/>
        <pt x="312" y="11" on="1"/>
        <pt x="365" y="-405" on="1"/>
        <pt x="336" y="-436" on="1"/>
        <pt x="192" y="-436" on="1"/>
        <pt x="193" y="331" on="1"/>
        <pt x="193" y="1022" on="1"/>
        <pt x="365" y="1022" on="1"/>
        <pt x="365" y="350" on="1"/>
        <pt x="365" y="234" on="0"/>
        <pt x="462" y="122" on="0"/>
        <pt x="737" y="122" on="0"/>
        <pt x="817" y="188" on="1"/>
        <pt x="817" y="1022" on="1"/>
        <pt x="989" y="1022" on="1"/>
        <pt x="989" y="154" on="1"/>
        <pt x="1091" y="50" on="1"/>
        <pt x="1091" y="0" on="1"/>
        <pt x="919" y="0" on="1"/>
        <pt x="838" y="71" on="1"/>
        <pt x="774" y="71" on="1"/>
        <pt x="666" y="-20" on="0"/>
        <pt x="410" y="-20" on="0"/>
      </contour>
    </TTGlyph>
    <TTGlyph name="multiply" xMin="183" yMin="107" xMax="1177" yMax="1102">
      <contour>
        <pt x="584" y="604" on="1"/>
        <pt x="183" y="1000" on="1"/>
        <pt x="286" y="1102" on="1"/>
        <pt x="680" y="699" on="1"/>
        <pt x="1075" y="1102" on="1"/>
        <pt x="1177" y="1000" on="1"/>
        <pt x="775" y="604" on="1"/>
        <pt x="1177" y="209" on="1"/>
        <pt x="1075" y="107" on="1"/>
        <pt x="680" y="508" on="1"/>
        <pt x="286" y="107" on="1"/>
        <pt x="183" y="209" on="1"/>
      </contour>
    </TTGlyph>
    <TTGlyph name="n" xMin="122" yMin="0" xMax="1014" yMax="1064">
      <contour>
        <pt x="841" y="811" on="0"/>
        <pt x="731" y="923" on="0"/>
        <pt x="457" y="923" on="0"/>
        <pt x="375" y="855" on="1"/>
        <pt x="375" y="0" on="1"/>
        <pt x="203" y="0" on="1"/>
        <pt x="203" y="911" on="1"/>
        <pt x="122" y="994" on="1"/>
        <pt x="122" y="1044" on="1"/>
        <pt x="284" y="1044" on="1"/>
        <pt x="354" y="973" on="1"/>
        <pt x="418" y="973" on="1"/>
        <pt x="475" y="1020" on="0"/>
        <pt x="616" y="1064" on="0"/>
        <pt x="754" y="1064" on="0"/>
        <pt x="880" y="1015" on="0"/>
        <pt x="924" y="969" on="1"/>
        <pt x="1014" y="875" on="0"/>
        <pt x="1014" y="714" on="1"/>
        <pt x="1014" y="0" on="1"/>
        <pt x="841" y="0" on="1"/>
        <pt x="841" y="693" on="1"/>
      </contour>
    </TTGlyph>
    <TTGlyph name="nacute" xMin="122" yMin="0" xMax="1014" yMax="1615">
      <component glyphName="n" x="0" y="0" flags="0x1204"/>
      <component glyphName="acute" x="194" y="0" flags="0x1004"/>
    </TTGlyph>
    <TTGlyph name="ncaron" xMin="122" yMin="0" xMax="1014" yMax="1630">
      <component glyphName="n" x="0" y="0" flags="0x1204"/>
      <component glyphName="caron" x="103" y="0" flags="0x1004"/>
    </TTGlyph>
    <TTGlyph name="ncommaaccent" xMin="122" yMin="-540" xMax="1014" yMax="1064">
      <component glyphName="n" x="0" y="0" flags="0x1204"/>
      <component glyphName="commaaccent" x="378" y="0" flags="0x1004"/>
    </TTGlyph>
    <TTGlyph name="nine" xMin="255" yMin="-20" xMax="1110" yMax="1338">
      <contour>
        <pt x="636" y="-20" on="1"/>
        <pt x="444" y="-20" on="0"/>
        <pt x="330" y="37" on="1"/>
        <pt x="338" y="112" on="0"/>
        <pt x="381" y="180" on="1"/>
        <pt x="467" y="130" on="0"/>
        <pt x="616" y="130" on="1"/>
        <pt x="761" y="130" on="0"/>
        <pt x="840" y="253" on="1"/>
        <pt x="912" y="366" on="0"/>
        <pt x="918" y="546" on="1"/>
        <pt x="895" y="558" on="1"/>
        <pt x="764" y="459" on="0"/>
        <pt x="622" y="459" on="1"/>
        <pt x="361" y="459" on="0"/>
        <pt x="282" y="692" on="1"/>
        <pt x="255" y="774" on="0"/>
        <pt x="255" y="995" on="0"/>
        <pt x="317" y="1161" on="0"/>
        <pt x="372" y="1219" on="1"/>
        <pt x="486" y="1338" on="0"/>
        <pt x="678" y="1338" on="1"/>
        <pt x="1028" y="1338" on="0"/>
        <pt x="1090" y="1016" on="1"/>
        <pt x="1110" y="916" on="0"/>
        <pt x="1110" y="584" on="0"/>
        <pt x="1043" y="277" on="0"/>
        <pt x="981" y="177" on="1"/>
        <pt x="859" y="-20" on="0"/>
      </contour>
      <contour>
        <pt x="682" y="1186" on="1"/>
        <pt x="448" y="1186" on="0"/>
        <pt x="448" y="890" on="1"/>
        <pt x="448" y="746" on="0"/>
        <pt x="573" y="600" on="0"/>
        <pt x="688" y="600" on="1"/>
        <pt x="806" y="600" on="0"/>
        <pt x="907" y="734" on="1"/>
        <pt x="916" y="813" on="0"/>
        <pt x="916" y="946" on="0"/>
        <pt x="891" y="1053" on="0"/>
        <pt x="863" y="1094" on="1"/>
        <pt x="801" y="1186" on="0"/>
      </contour>
    </TTGlyph>
    <TTGlyph name="notequal" xMin="256" yMin="-235" xMax="1105" yMax="1179">
      <contour>
        <pt x="897" y="1176" on="1"/>
        <pt x="969" y="1179" on="0"/>
        <pt x="1011" y="1132" on="1"/>
        <pt x="466" y="-231" on="1"/>
        <pt x="401" y="-235" on="0"/>
        <pt x="350" y="-186" on="1"/>
      </contour>
      <contour>
        <pt x="256" y="841" on="1"/>
        <pt x="1105" y="841" on="1"/>
        <pt x="1105" y="688" on="1"/>
        <pt x="256" y="688" on="1"/>
      </contour>
      <contour>
        <pt x="256" y="323" on="1"/>
        <pt x="1105" y="323" on="1"/>
        <pt x="1105" y="170" on="1"/>
        <pt x="256" y="170" on="1"/>
      </contour>
    </TTGlyph>
    <TTGlyph name="ntilde" xMin="122" yMin="0" xMax="1014" yMax="1510">
      <component glyphName="n" x="0" y="0" flags="0x1204"/>
      <component glyphName="tilde" x="164" y="0" flags="0x1004"/>
    </TTGlyph>
    <TTGlyph name="numbersign" xMin="95" yMin="-14" xMax="1268" yMax="1379">
      <contour>
        <pt x="460" y="-6" on="1"/>
        <pt x="432" y="-14" on="0"/>
        <pt x="361" y="-14" on="0"/>
        <pt x="326" y="0" on="1"/>
        <pt x="360" y="360" on="1"/>
        <pt x="103" y="360" on="1"/>
        <pt x="95" y="392" on="0"/>
        <pt x="95" y="458" on="0"/>
        <pt x="105" y="494" on="1"/>
        <pt x="372" y="494" on="1"/>
        <pt x="408" y="866" on="1"/>
        <pt x="155" y="866" on="1"/>
        <pt x="147" y="898" on="0"/>
        <pt x="147" y="964" on="0"/>
        <pt x="157" y="1000" on="1"/>
        <pt x="421" y="1000" on="1"/>
        <pt x="456" y="1369" on="1"/>
        <pt x="476" y="1374" on="1"/>
        <pt x="498" y="1379" on="0"/>
        <pt x="565" y="1379" on="0"/>
        <pt x="591" y="1363" on="1"/>
        <pt x="556" y="1000" on="1"/>
        <pt x="846" y="1000" on="1"/>
        <pt x="878" y="1369" on="1"/>
        <pt x="898" y="1374" on="1"/>
        <pt x="920" y="1379" on="0"/>
        <pt x="987" y="1379" on="0"/>
        <pt x="1013" y="1363" on="1"/>
        <pt x="981" y="1000" on="1"/>
        <pt x="1257" y="1000" on="1"/>
        <pt x="1268" y="945" on="0"/>
        <pt x="1268" y="893" on="0"/>
        <pt x="1255" y="865" on="1"/>
        <pt x="969" y="865" on="1"/>
        <pt x="936" y="494" on="1"/>
        <pt x="1205" y="494" on="1"/>
        <pt x="1216" y="439" on="0"/>
        <pt x="1216" y="387" on="0"/>
        <pt x="1203" y="359" on="1"/>
        <pt x="924" y="359" on="1"/>
        <pt x="892" y="-6" on="1"/>
        <pt x="864" y="-14" on="0"/>
        <pt x="793" y="-14" on="0"/>
        <pt x="758" y="0" on="1"/>
        <pt x="789" y="359" on="1"/>
        <pt x="495" y="360" on="1"/>
      </contour>
      <contour>
        <pt x="801" y="494" on="1"/>
        <pt x="834" y="865" on="1"/>
        <pt x="543" y="866" on="1"/>
        <pt x="508" y="494" on="1"/>
      </contour>
    </TTGlyph>
    <TTGlyph name="o" xMin="130" yMin="-20" xMax="1064" yMax="1064">
      <contour>
        <pt x="130" y="523" on="1"/>
        <pt x="130" y="783" on="0"/>
        <pt x="260" y="926" on="1"/>
        <pt x="386" y="1064" on="0"/>
        <pt x="600" y="1064" on="1"/>
        <pt x="938" y="1064" on="0"/>
        <pt x="1032" y="768" on="1"/>
        <pt x="1064" y="670" on="0"/>
        <pt x="1064" y="405" on="0"/>
        <pt x="999" y="198" on="0"/>
        <pt x="939" y="126" on="1"/>
        <pt x="816" y="-20" on="0"/>
        <pt x="600" y="-20" on="1"/>
        <pt x="260" y="-20" on="0"/>
        <pt x="162" y="290" on="1"/>
        <pt x="130" y="391" on="0"/>
      </contour>
      <contour>
        <pt x="312" y="523" on="1"/>
        <pt x="312" y="123" on="0"/>
        <pt x="600" y="123" on="1"/>
        <pt x="742" y="123" on="0"/>
        <pt x="816" y="243" on="1"/>
        <pt x="882" y="351" on="0"/>
        <pt x="882" y="728" on="0"/>
        <pt x="749" y="927" on="0"/>
        <pt x="600" y="927" on="1"/>
        <pt x="457" y="927" on="0"/>
        <pt x="382" y="812" on="1"/>
        <pt x="312" y="706" on="0"/>
      </contour>
    </TTGlyph>
    <TTGlyph name="oacute" xMin="130" yMin="-20" xMax="1064" yMax="1615">
      <component glyphName="o" x="0" y="0" flags="0x1204"/>
      <component glyphName="acute" x="178" y="0" flags="0x1004"/>
    </TTGlyph>
    <TTGlyph name="obreve" xMin="130" yMin="-20" xMax="1064" yMax="1545">
      <component glyphName="o" x="0" y="0" flags="0x1204"/>
      <component glyphName="breve" x="257" y="0" flags="0x1004"/>
    </TTGlyph>
    <TTGlyph name="ocircumflex" xMin="130" yMin="-20" xMax="1064" yMax="1630">
      <component glyphName="o" x="0" y="0" flags="0x1204"/>
      <component glyphName="circumflex" x="87" y="0" flags="0x1004"/>
    </TTGlyph>
    <TTGlyph name="odieresis" xMin="130" yMin="-20" xMax="1064" yMax="1457">
      <component glyphName="o" x="0" y="0" flags="0x1204"/>
      <component glyphName="dieresis" x="87" y="0" flags="0x1004"/>
    </TTGlyph>
    <TTGlyph name="oe" xMin="146" yMin="-20" xMax="1731" yMax="1064">
      <contour>
        <pt x="1672" y="39" on="1"/>
        <pt x="1540" y="-20" on="0"/>
        <pt x="1370" y="-20" on="1"/>
        <pt x="1153" y="-20" on="0"/>
        <pt x="1020" y="149" on="1"/>
        <pt x="984" y="194" on="0"/>
        <pt x="977" y="215" on="1"/>
        <pt x="961" y="168" on="0"/>
        <pt x="859" y="64" on="0"/>
        <pt x="820" y="38" on="1"/>
        <pt x="729" y="-20" on="0"/>
        <pt x="505" y="-20" on="0"/>
        <pt x="330" y="50" on="0"/>
        <pt x="270" y="119" on="1"/>
        <pt x="146" y="262" on="0"/>
        <pt x="146" y="523" on="1"/>
        <pt x="146" y="783" on="0"/>
        <pt x="276" y="926" on="1"/>
        <pt x="402" y="1064" on="0"/>
        <pt x="616" y="1064" on="1"/>
        <pt x="841" y="1064" on="0"/>
        <pt x="956" y="900" on="1"/>
        <pt x="983" y="861" on="0"/>
        <pt x="991" y="836" on="1"/>
        <pt x="1005" y="878" on="0"/>
        <pt x="1110" y="983" on="0"/>
        <pt x="1148" y="1008" on="1"/>
        <pt x="1237" y="1064" on="0"/>
        <pt x="1433" y="1064" on="0"/>
        <pt x="1578" y="1003" on="0"/>
        <pt x="1628" y="949" on="1"/>
        <pt x="1731" y="838" on="0"/>
        <pt x="1731" y="658" on="1"/>
        <pt x="1731" y="623" on="0"/>
        <pt x="1725" y="509" on="1"/>
        <pt x="1070" y="509" on="1"/>
        <pt x="1070" y="318" on="0"/>
        <pt x="1227" y="126" on="0"/>
        <pt x="1520" y="126" on="0"/>
        <pt x="1634" y="178" on="1"/>
        <pt x="1646" y="149" on="0"/>
        <pt x="1653" y="124" on="1"/>
        <pt x="1665" y="80" on="1"/>
        <pt x="1669" y="58" on="0"/>
      </contour>
      <contour>
        <pt x="905" y="538" on="1"/>
        <pt x="905" y="927" on="0"/>
        <pt x="616" y="927" on="1"/>
        <pt x="473" y="927" on="0"/>
        <pt x="398" y="812" on="1"/>
        <pt x="328" y="706" on="0"/>
        <pt x="328" y="523" on="1"/>
        <pt x="328" y="123" on="0"/>
        <pt x="616" y="123" on="1"/>
        <pt x="759" y="123" on="0"/>
        <pt x="836" y="243" on="1"/>
        <pt x="905" y="353" on="0"/>
      </contour>
      <contour>
        <pt x="1563" y="635" on="1"/>
        <pt x="1571" y="758" on="0"/>
        <pt x="1510" y="841" on="1"/>
        <pt x="1449" y="925" on="0"/>
        <pt x="1342" y="925" on="1"/>
        <pt x="1239" y="925" on="0"/>
        <pt x="1164" y="845" on="1"/>
        <pt x="1090" y="765" on="0"/>
        <pt x="1078" y="635" on="1"/>
      </contour>
    </TTGlyph>
    <TTGlyph name="ogonek" xMin="182" yMin="-371" xMax="522" yMax="39">
      <contour>
        <pt x="510" y="-182" on="1"/>
        <pt x="522" y="-221" on="0"/>
        <pt x="522" y="-271" on="1"/>
        <pt x="522" y="-322" on="0"/>
        <pt x="510" y="-366" on="1"/>
        <pt x="498" y="-371" on="0"/>
        <pt x="446" y="-371" on="1"/>
        <pt x="318" y="-371" on="0"/>
        <pt x="182" y="-262" on="0"/>
        <pt x="182" y="-169" on="1"/>
        <pt x="182" y="-103" on="0"/>
        <pt x="231" y="-34" on="1"/>
        <pt x="271" y="22" on="0"/>
        <pt x="309" y="37" on="1"/>
        <pt x="519" y="39" on="1"/>
        <pt x="509" y="34" on="0"/>
        <pt x="445" y="8" on="0"/>
        <pt x="410" y="-12" on="1"/>
        <pt x="320" y="-63" on="0"/>
        <pt x="320" y="-120" on="1"/>
        <pt x="320" y="-189" on="0"/>
        <pt x="462" y="-189" on="1"/>
        <pt x="480" y="-189" on="0"/>
      </contour>
    </TTGlyph>
    <TTGlyph name="ograve" xMin="130" yMin="-20" xMax="1064" yMax="1615">
      <component glyphName="o" x="0" y="0" flags="0x1204"/>
      <component glyphName="grave" x="468" y="0" flags="0x1004"/>
    </TTGlyph>
    <TTGlyph name="ohungarumlaut" xMin="130" yMin="-20" xMax="1113" yMax="1615">
      <component glyphName="o" x="0" y="0" flags="0x1204"/>
      <component glyphName="hungarumlaut" x="87" y="0" flags="0x1004"/>
    </TTGlyph>
    <TTGlyph name="omacron" xMin="130" yMin="-20" xMax="1064" yMax="1501">
      <component glyphName="o" x="0" y="0" flags="0x1204"/>
      <component glyphName="macron" x="85" y="0" flags="0x1004"/>
    </TTGlyph>
    <TTGlyph name="one" xMin="231" yMin="0" xMax="623" yMax="1318">
      <contour>
        <pt x="450" y="1145" on="1"/>
        <pt x="362" y="1104" on="0"/>
        <pt x="290" y="1085" on="1"/>
        <pt x="242" y="1112" on="0"/>
        <pt x="231" y="1205" on="1"/>
        <pt x="285" y="1226" on="0"/>
        <pt x="331" y="1246" on="1"/>
        <pt x="412" y="1282" on="1"/>
        <pt x="452" y="1300" on="0"/>
        <pt x="486" y="1318" on="1"/>
        <pt x="623" y="1318" on="1"/>
        <pt x="623" y="0" on="1"/>
        <pt x="450" y="0" on="1"/>
      </contour>
    </TTGlyph>
    <TTGlyph name="onehalf" xMin="224" yMin="1" xMax="1451" yMax="1530">
      <contour>
        <pt x="389" y="1392" on="1"/>
        <pt x="369" y="1384" on="0"/>
        <pt x="350" y="1376" on="1"/>
        <pt x="303" y="1357" on="0"/>
        <pt x="270" y="1349" on="1"/>
        <pt x="228" y="1371" on="0"/>
        <pt x="224" y="1445" on="1"/>
        <pt x="265" y="1461" on="0"/>
        <pt x="300" y="1476" on="1"/>
        <pt x="361" y="1503" on="1"/>
        <pt x="391" y="1517" on="0"/>
        <pt x="416" y="1530" on="1"/>
        <pt x="510" y="1530" on="1"/>
        <pt x="510" y="797" on="1"/>
        <pt x="389" y="797" on="1"/>
      </contour>
      <contour>
        <pt x="932" y="1417" on="1"/>
        <pt x="1004" y="1420" on="0"/>
        <pt x="1046" y="1373" on="1"/>
        <pt x="501" y="10" on="1"/>
        <pt x="436" y="6" on="0"/>
        <pt x="385" y="55" on="1"/>
      </contour>
      <contour>
        <pt x="1451" y="92" on="1"/>
        <pt x="1451" y="24" on="0"/>
        <pt x="1438" y="1" on="1"/>
        <pt x="955" y="1" on="1"/>
        <pt x="955" y="90" on="1"/>
        <pt x="1173" y="316" on="1"/>
        <pt x="1250" y="399" on="0"/>
        <pt x="1269" y="430" on="1"/>
        <pt x="1298" y="477" on="0"/>
        <pt x="1298" y="526" on="1"/>
        <pt x="1298" y="650" on="0"/>
        <pt x="1196" y="650" on="1"/>
        <pt x="1076" y="650" on="0"/>
        <pt x="994" y="586" on="1"/>
        <pt x="960" y="615" on="0"/>
        <pt x="948" y="677" on="1"/>
        <pt x="1064" y="752" on="0"/>
        <pt x="1193" y="752" on="1"/>
        <pt x="1426" y="752" on="0"/>
        <pt x="1426" y="537" on="1"/>
        <pt x="1426" y="449" on="0"/>
        <pt x="1344" y="346" on="1"/>
        <pt x="1303" y="296" on="0"/>
        <pt x="1244" y="237" on="1"/>
        <pt x="1108" y="102" on="1"/>
        <pt x="1275" y="102" on="0"/>
        <pt x="1450" y="127" on="1"/>
        <pt x="1450" y="117" on="1"/>
      </contour>
    </TTGlyph>
    <TTGlyph name="onequarter" xMin="224" yMin="0" xMax="1447" yMax="1530">
      <contour>
        <pt x="389" y="1392" on="1"/>
        <pt x="369" y="1384" on="0"/>
        <pt x="350" y="1376" on="1"/>
        <pt x="303" y="1357" on="0"/>
        <pt x="270" y="1349" on="1"/>
        <pt x="228" y="1371" on="0"/>
        <pt x="224" y="1445" on="1"/>
        <pt x="265" y="1461" on="0"/>
        <pt x="300" y="1476" on="1"/>
        <pt x="361" y="1503" on="1"/>
        <pt x="391" y="1517" on="0"/>
        <pt x="416" y="1530" on="1"/>
        <pt x="510" y="1530" on="1"/>
        <pt x="510" y="797" on="1"/>
        <pt x="389" y="797" on="1"/>
      </contour>
      <contour>
        <pt x="932" y="1417" on="1"/>
        <pt x="1004" y="1420" on="0"/>
        <pt x="1046" y="1373" on="1"/>
        <pt x="501" y="10" on="1"/>
        <pt x="436" y="6" on="0"/>
        <pt x="385" y="55" on="1"/>
      </contour>
      <contour>
        <pt x="878" y="169" on="1"/>
        <pt x="834" y="196" on="0"/>
        <pt x="834" y="260" on="1"/>
        <pt x="1121" y="762" on="1"/>
        <pt x="1213" y="733" on="0"/>
        <pt x="1236" y="707" on="1"/>
        <pt x="1051" y="413" on="1"/>
        <pt x="964" y="262" on="1"/>
        <pt x="1202" y="262" on="1"/>
        <pt x="1202" y="441" on="1"/>
        <pt x="1245" y="476" on="0"/>
        <pt x="1323" y="493" on="1"/>
        <pt x="1323" y="262" on="1"/>
        <pt x="1440" y="262" on="1"/>
        <pt x="1447" y="205" on="0"/>
        <pt x="1429" y="169" on="1"/>
        <pt x="1323" y="169" on="1"/>
        <pt x="1323" y="0" on="1"/>
        <pt x="1202" y="0" on="1"/>
        <pt x="1202" y="169" on="1"/>
      </contour>
    </TTGlyph>
</ttFont>
